<?xml version="1.0" encoding="UTF-8"?><svg id="_デザインカンプ" xmlns="http://www.w3.org/2000/svg" xmlns:xlink="http://www.w3.org/1999/xlink" viewBox="0 0 270 172"><defs><style>.cls-1,.cls-2,.cls-3,.cls-4{fill:none;}.cls-5{fill:#054c8f;}.cls-5,.cls-6,.cls-7{stroke:#fff;}.cls-5,.cls-6,.cls-7,.cls-2,.cls-3,.cls-4{stroke-miterlimit:10;}.cls-5,.cls-7{stroke-width:.5px;}.cls-8,.cls-6,.cls-7{fill:#004f80;}.cls-6{fill-rule:evenodd;stroke-width:.37px;}.cls-9{fill:url(#_名称未設定グラデーション_2);}.cls-10{fill:#fff;}.cls-11{fill:#2cb9e7;}.cls-12{fill:#e6d226;}.cls-2{stroke-width:.89px;}.cls-2,.cls-3,.cls-4{stroke:#054c8f;}.cls-3{stroke-width:.64px;}.cls-4{stroke-width:.36px;}.cls-13{clip-path:url(#clippath);}</style><clipPath id="clippath"><rect class="cls-1" y="25.28" width="121.12" height="121.12"/></clipPath><linearGradient id="_名称未設定グラデーション_2" x1="-437.18" y1="49.51" x2="-399.15" y2="65.97" gradientTransform="translate(486.55) skewX(-10)" gradientUnits="userSpaceOnUse"><stop offset="0" stop-color="#4098d4"/><stop offset=".32" stop-color="#2887c8"/><stop offset=".75" stop-color="#0d74bb"/><stop offset="1" stop-color="#036eb7"/></linearGradient></defs><circle class="cls-12" cx="151.03" cy="86" r="85.85"/><g class="cls-13"><path class="cls-10" d="M108.61,91.97H12.51c-1.48,0-2.7-1.22-2.7-2.72V29.61c0-1.5,1.21-2.72,2.7-2.72h96.1c1.48,0,2.7,1.22,2.7,2.72v59.65c0,1.49-1.21,2.72-2.7,2.72"/><path class="cls-10" d="M108.61,26.89c1.48,0,2.7,1.22,2.7,2.72v59.65c0,1.49-1.21,2.72-2.7,2.72H12.51c-1.48,0-2.7-1.22-2.7-2.72V29.61c0-1.5,1.21-2.72,2.7-2.72h96.1M108.61,26.3H12.51c-1.81,0-3.29,1.48-3.29,3.31v59.65c0,1.82,1.48,3.31,3.29,3.31h96.1c1.81,0,3.29-1.48,3.29-3.31V29.61c0-1.82-1.48-3.31-3.29-3.31h0Z"/><path class="cls-2" d="M108.61,91.97H12.51c-1.48,0-2.7-1.22-2.7-2.72V29.61c0-1.5,1.21-2.72,2.7-2.72h96.1c1.48,0,2.7,1.22,2.7,2.72v59.65c0,1.49-1.21,2.72-2.7,2.72Z"/><path class="cls-8" d="M119.91,141.64l-8.13-41.38c-.28-1.41-1.5-2.43-2.93-2.43H12.27c-1.43,0-2.65,1.02-2.93,2.43L1.21,141.64c-.36,1.86,1.05,3.59,2.93,3.59h112.84c1.88,0,3.29-1.73,2.93-3.59"/><path class="cls-10" d="M108.85,97.84c1.43,0,2.65,1.02,2.93,2.43l8.13,41.38c.36,1.86-1.05,3.59-2.93,3.59H4.14c-1.88,0-3.29-1.73-2.93-3.59l8.13-41.38c.28-1.41,1.5-2.43,2.93-2.43h96.58M108.85,97.69H12.27c-1.49,0-2.79,1.07-3.08,2.54L1.07,141.61c-.18.94.06,1.89.66,2.63.6.73,1.48,1.14,2.41,1.14h112.84c.94,0,1.81-.42,2.41-1.14.6-.73.85-1.69.66-2.63l-8.13-41.38c-.29-1.47-1.58-2.54-3.08-2.54h0Z"/><path class="cls-10" d="M107.63,104.02c-.25-1.28-1.37-2.2-2.67-2.2H16.18c-1.31,0-2.44.93-2.7,2.23l-2.78,13.98c-.26,1.31.74,2.54,2.06,2.54h95.58c1.33,0,2.33-1.22,2.06-2.54l-2.78-14Z"/><path class="cls-3" d="M107.63,104.48c-.25-1.28-1.37-2.2-2.67-2.2H16.18c-1.31,0-2.44.93-2.7,2.23l-2.78,13.98c-.26,1.31.74,2.54,2.06,2.54h95.58c1.33,0,2.33-1.22,2.06-2.54l-2.78-14Z"/><path class="cls-10" d="M75.48,130.05c-.08-1.28.15-2.05-.84-2.2h-28.14c-.85.15-.77.93-.86,2.23l-.51,8.07c-.05.8.58,1.47,1.37,1.47h28.12c.79,0,1.42-.67,1.37-1.47l-.51-8.1Z"/><path class="cls-4" d="M75.48,130.05c-.08-1.28.15-2.05-.84-2.2h-28.14c-.85.15-.77.93-.86,2.23l-.51,8.07c-.05.8.58,1.47,1.37,1.47h28.12c.79,0,1.42-.67,1.37-1.47l-.51-8.1Z"/></g><path class="cls-6" d="M158.81,59.21l13.53,8.44c.86.54.86,1.79,0,2.32l-13.53,8.44c-.91.57-2.09-.09-2.09-1.16v-4.64h-24.47c-.77,0-1.4-.63-1.4-1.4v-4.8c0-.77.63-1.4,1.4-1.4h24.47v-4.64c0-1.07,1.18-1.73,2.09-1.16Z"/><path class="cls-6" d="M143.22,112.79l-13.49-8.41c-.87-.54-.87-1.81,0-2.35l13.49-8.41c.92-.58,2.12.09,2.12,1.17v4.61h24.47c.77,0,1.4.63,1.4,1.4v4.81c0,.77-.63,1.4-1.4,1.4h-24.47v4.61c0,1.09-1.2,1.75-2.12,1.17Z"/><path class="cls-7" d="M193.95,50.84v68.56c0,8.69,16.97,15.74,37.9,15.74s37.9-7.05,37.9-15.74V50.84h-75.8Z"/><ellipse class="cls-7" cx="231.85" cy="50.84" rx="37.9" ry="15.74"/><path class="cls-5" d="M269.75,72.69c0,8.69-16.97,15.74-37.9,15.74s-37.9-7.05-37.9-15.74"/><path class="cls-5" d="M269.75,94.55c0,8.69-16.97,15.74-37.9,15.74s-37.9-7.05-37.9-15.74"/><path class="cls-10" d="M259.59,73.69c0,1.85-1.51,3.36-3.37,3.36s-3.37-1.51-3.37-3.36,1.5-3.37,3.37-3.37,3.37,1.51,3.37,3.37Z"/><path class="cls-10" d="M259.59,96.36c0,1.85-1.51,3.36-3.37,3.36s-3.37-1.51-3.37-3.36,1.5-3.37,3.37-3.37,3.37,1.51,3.37,3.37Z"/><path class="cls-10" d="M259.59,119.04c0,1.85-1.51,3.36-3.37,3.36s-3.37-1.51-3.37-3.36,1.5-3.37,3.37-3.37,3.37,1.51,3.37,3.37Z"/><path class="cls-11" d="M77.45,77.76h-17.06c-.18,0-.29-.14-.26-.31l2.79-15.85c.03-.17.2-.31.37-.31h17.06c.18,0,.29.14.26.31l-2.79,15.85c-.03.17-.2.31-.37.31Z"/><path class="cls-9" d="M84.06,40.3h-10.92l-7.11,3.66-.31,1.74h-4.83l.9-5.09c.03-.17-.09-.31-.26-.31h-8.79l-9.45,4.86-1.99,11.29c-.03.17.09.31.26.31h5.54l-1.18,6.7-6.44,3.32-1.88,10.66c-.03.17.09.31.26.31h17.06c.18,0,.34-.14.37-.31l2.79-15.85c.03-.17-.09-.31-.26-.31h-5.14l.8-4.52h5.14c.18,0,.34-.14.37-.31l.71-4.02h4.83s-.71,4.02-.71,4.02c-.03.17.09.31.26.31h17.06c.18,0,.34-.14.37-.31l2.79-15.85c.03-.17-.09-.31-.26-.31Z"/></svg>