<?xml version="1.0" encoding="UTF-8"?><svg id="_デザインカンプ" xmlns="http://www.w3.org/2000/svg" xmlns:xlink="http://www.w3.org/1999/xlink" viewBox="0 0 203 45"><defs><style>.cls-1{fill:#004f80;}.cls-2{fill:url(#_名称未設定グラデーション_2);}.cls-3{fill:#2cb9e7;}</style><linearGradient id="_名称未設定グラデーション_2" x1="-1255.57" y1="11.06" x2="-1209.89" y2="30.83" gradientTransform="translate(1261.63) skewX(-10)" gradientUnits="userSpaceOnUse"><stop offset="0" stop-color="#4098d4"/><stop offset=".32" stop-color="#2887c8"/><stop offset=".75" stop-color="#0d74bb"/><stop offset="1" stop-color="#036eb7"/></linearGradient></defs><path class="cls-3" d="M48.33,45h-20.5c-.21,0-.35-.17-.32-.38l3.36-19.03c.04-.21.24-.38.45-.38h20.5c.21,0,.35.17.32.38l-3.36,19.03c-.04.21-.24.38-.45.38Z"/><path class="cls-2" d="M56.27,0h-13.12l-8.54,4.39-.37,2.1h-5.8l1.08-6.11c.04-.21-.11-.38-.32-.38h-10.56L7.29,5.84l-2.39,13.57c-.04.21.11.38.32.38h6.65l-1.42,8.05-7.74,3.98L.45,44.62c-.04.21.11.38.32.38h20.5c.21,0,.41-.17.45-.38l3.36-19.03c.04-.21-.11-.38-.32-.38h-6.17l.96-5.43h6.17c.21,0,.41-.17.45-.38l.85-4.83h5.8s-.85,4.83-.85,4.83c-.04.21.11.38.32.38h20.5c.21,0,.41-.17.45-.38L56.58.38c.04-.21-.11-.38-.32-.38Z"/><path class="cls-1" d="M121.55,23.66c-1.36-1.89-2.85-3.01-5.98-3.01-2.85,0-4.53,1.28-4.53,3.61,0,2.65,2.09,3.69,5.94,4.53,5.58,1.2,8.46,3.29,8.46,8.26,0,4.13-2.77,7.94-9.43,7.94-4.73,0-8.06-1.44-10.35-4.53l3.65-2.53c1.64,1.97,3.29,3.01,6.46,3.01,3.81,0,5.01-1.68,5.01-3.69,0-2.21-1.24-3.57-6.06-4.61-5.33-1.12-8.34-3.69-8.34-8.38,0-4.17,2.73-7.66,9.23-7.66,4.41,0,7.5,1.48,9.47,4.53l-3.53,2.53Z"/><path class="cls-1" d="M128.7,16.96h4.29v9.35c.84-1.2,2.29-2.09,4.89-2.09,4.13,0,7.3,2.09,7.3,7.86v12.56h-4.25v-12.07c0-3.53-1.6-4.53-3.81-4.53-2.65,0-4.13,1.81-4.13,4.49v12.11h-4.29v-27.68Z"/><path class="cls-1" d="M164.24,41.59c-1.4,2.45-3.65,3.41-7.18,3.41-5.74,0-8.78-3.73-8.78-9.07v-2.73c0-5.9,2.89-8.99,8.14-8.99s8.1,3.29,8.1,9.23v2.21h-11.99v.08c0,3.13,1.2,5.58,4.37,5.58,2.37,0,3.33-.72,4.13-1.97l3.21,2.25ZM152.57,32.36h7.66c-.16-2.93-1.36-4.41-3.81-4.41s-3.65,1.68-3.85,4.41Z"/><path class="cls-1" d="M183.1,41.59c-1.4,2.45-3.65,3.41-7.18,3.41-5.74,0-8.78-3.73-8.78-9.07v-2.73c0-5.9,2.89-8.99,8.14-8.99s8.1,3.29,8.1,9.23v2.21h-11.99v.08c0,3.13,1.2,5.58,4.37,5.58,2.37,0,3.33-.72,4.13-1.97l3.21,2.25ZM171.42,32.36h7.66c-.16-2.93-1.36-4.41-3.81-4.41s-3.65,1.68-3.85,4.41Z"/><path class="cls-1" d="M185.23,24.58h2.57v-4.41h4.25v4.41h4.25v3.69h-4.25v9.19c0,2.33.36,3.33,2.61,3.33h1.64v3.85h-1.97c-4.81,0-6.54-1.64-6.54-6.38v-9.99h-2.57v-3.69Z"/><path class="cls-1" d="M76.16,44.7c-2.61,0-4.73-.84-6.3-2.51-1.56-1.66-2.35-3.9-2.35-6.66,0-2.59.83-4.76,2.47-6.44,1.64-1.69,3.76-2.54,6.3-2.54,1.02,0,2.12.19,3.29.56v-8.99h4.19v26.58h-7.58ZM76.79,30.28c-1.57,0-2.78.49-3.69,1.51-.92,1.01-1.38,2.41-1.38,4.16,0,1.63.4,2.9,1.19,3.77.47.51.96.86,1.47,1.03.53.18,1.54.27,2.99.27h2.2v-10.1c-.91-.43-1.84-.64-2.77-.64Z"/><path class="cls-1" d="M93.15,45c-1.11,0-2.3-.12-3.54-.36-1.24-.24-2.25-.55-2.99-.92l-.22-.11v-25.49h4.17v9.66c1.33-.82,2.76-1.23,4.24-1.23,2.27,0,4.15.87,5.59,2.58,1.42,1.69,2.14,3.88,2.14,6.51,0,2.83-.86,5.12-2.56,6.81-1.7,1.69-4,2.54-6.83,2.54ZM90.57,40.64c1.01.28,2.06.42,3.12.42,1.38,0,2.47-.47,3.34-1.45.87-.98,1.31-2.26,1.31-3.81s-.41-2.88-1.23-3.86c-.81-.97-1.83-1.44-3.13-1.44-1.1,0-2.25.49-3.41,1.44v8.7Z"/><path class="cls-1" d="M197.08,18.79v-4.42h1.96c.39,0,.69.04.9.12.21.08.37.22.49.42.12.2.18.42.18.67,0,.31-.1.58-.31.79-.2.22-.52.35-.94.41.16.07.27.15.35.22.17.16.33.35.49.59l.77,1.2h-.74l-.59-.92c-.17-.27-.31-.47-.42-.61-.11-.14-.21-.24-.3-.3-.09-.06-.18-.1-.27-.12-.07-.01-.17-.02-.33-.02h-.68v1.96h-.59ZM197.67,16.31h1.26c.27,0,.48-.03.63-.08s.27-.14.34-.27c.08-.12.12-.25.12-.4,0-.21-.08-.38-.23-.52-.15-.13-.39-.2-.72-.2h-1.4v1.46Z"/><path class="cls-1" d="M198.8,20.35c-2.07,0-3.76-1.69-3.76-3.76s1.69-3.76,3.76-3.76,3.76,1.69,3.76,3.76-1.69,3.76-3.76,3.76ZM198.8,13.34c-1.79,0-3.24,1.45-3.24,3.24s1.46,3.24,3.24,3.24,3.24-1.46,3.24-3.24-1.46-3.24-3.24-3.24Z"/></svg>