<?xml version="1.0" encoding="UTF-8"?><svg id="_デザインカンプ" xmlns="http://www.w3.org/2000/svg" viewBox="0 0 17 50"><defs><style>.cls-1{fill:#eeb924;}</style></defs><path class="cls-1" d="M13.72.36c.37,1.59.16,3.14-.51,4.53-.17.35-.36.69-.59,1.01-.11.16-.24.32-.37.48-.13.16-.26.31-.4.46-.28.3-.61.59-.95.86-.34.27-.71.53-1.11.77-.31.18-.64.12-.76-.16-.69-1.46-.57-3.18.17-4.72.75-1.53,2.12-2.85,3.84-3.54.32-.13.62,0,.69.31Z"/><path class="cls-1" d="M14.34,10.99c.03,1.51-.5,2.86-1.44,4.02-.25.29-.5.56-.79.82-.29.26-.61.5-.95.73-.68.45-1.45.82-2.31,1.09-.33.1-.61-.05-.66-.36-.25-1.62.27-3.26,1.32-4.5.51-.62,1.16-1.14,1.88-1.52.71-.39,1.53-.63,2.39-.73.33-.04.57.16.57.44Z"/><path class="cls-1" d="M3.21,9.11c-1.14,1.77-1.56,3.69-1.24,5.25.07.39.2.76.36,1.1.16.34.36.66.6.94.48.56,1.13,1,1.89,1.27.29.1.63-.07.79-.39.84-1.71,1.08-3.35.83-4.82-.14-.74-.39-1.43-.79-2.05-.41-.62-.93-1.17-1.6-1.6-.26-.16-.61-.04-.84.3Z"/><path class="cls-1" d="M12.24,20.71c.1.35.18.7.2,1.04.01.17.02.35.01.52,0,.17,0,.34-.03.51-.03.34-.12.68-.22,1.02-.1.33-.23.67-.4.99-.67,1.3-1.84,2.53-3.44,3.43-.3.17-.63.1-.76-.17-.65-1.44-.55-3.09.19-4.49.18-.35.39-.68.65-1,.26-.31.55-.61.86-.87.32-.27.66-.51,1.03-.72.38-.21.78-.39,1.2-.54.32-.11.62,0,.69.27Z"/><path class="cls-1" d="M.49,21.71c-.7,1.91-.63,3.79.09,5.15.71,1.38,2.03,2.25,3.73,2.37.32.02.62-.22.7-.55.42-1.79.25-3.36-.38-4.67-.16-.32-.36-.63-.58-.91-.22-.28-.47-.55-.75-.79-.28-.24-.6-.45-.94-.63-.34-.18-.7-.34-1.1-.45-.3-.09-.63.11-.77.48Z"/><path class="cls-1" d="M12.6,30.25c.37.6.63,1.22.71,1.88.05.32.07.65.05.99-.01.17-.03.34-.06.51-.02.17-.06.34-.1.51-.08.34-.2.69-.36,1.03-.16.35-.33.68-.55,1.03-.43.68-1.01,1.35-1.69,1.96-.26.23-.62.25-.81.03-1.04-1.17-1.33-2.73-.96-4.2.19-.74.56-1.45,1.05-2.1.51-.65,1.17-1.23,1.95-1.71.3-.18.63-.15.78.08Z"/><path class="cls-1" d="M.95,34.03c-.13.98-.02,1.89.2,2.7.13.4.3.78.49,1.13.1.17.21.34.32.5.12.15.25.3.38.44.27.27.57.51.89.71.32.2.68.35,1.05.46.75.22,1.56.27,2.44.12.34-.06.57-.35.56-.69-.04-1.75-.59-3.18-1.59-4.23-.49-.52-1.08-.95-1.78-1.25-.68-.31-1.46-.49-2.33-.51-.33,0-.61.26-.65.63Z"/><path class="cls-1" d="M15.39,38.97c1.07.92,1.61,2.08,1.61,3.44,0,.33-.03.68-.09,1.04-.03.18-.08.36-.13.54-.05.18-.1.36-.17.54-.26.73-.66,1.49-1.21,2.23-.21.28-.56.38-.81.22-1.37-.81-2.05-2.2-2.06-3.64,0-.37.05-.74.14-1.1.08-.37.21-.73.39-1.1.35-.73.86-1.42,1.52-2.06.25-.24.6-.29.81-.12Z"/><path class="cls-1" d="M4.58,45.34c.25,1.87,1.29,3.3,2.65,4.06.35.19.71.33,1.09.43.19.05.38.09.58.12.2.03.4.04.6.05.81.02,1.66-.14,2.5-.49.32-.13.49-.47.4-.78-.5-1.6-1.42-2.8-2.7-3.52-.31-.18-.65-.34-1-.46-.36-.12-.73-.21-1.12-.27-.77-.11-1.62-.09-2.5.11-.34.07-.55.39-.5.74Z"/></svg>