<?xml version="1.0" encoding="UTF-8"?><svg id="_素材" xmlns="http://www.w3.org/2000/svg" viewBox="0 0 70 49"><defs><style>.cls-1{fill:#cbcada;}.cls-2{fill:#0a4f99;}</style></defs><path class="cls-1" d="M38.26,26.24s.01-.03.03-.04c.12-.21.26-.42.4-.62.03-.05.07-.1.1-.15.12-.17.24-.34.35-.5.04-.06.09-.12.13-.18,3.21-4.24,8.31-6.98,14.03-6.98h-7.38c-3.81,0-7.34,1.22-10.22,3.28-2.85-2.04-6.32-3.25-10.08-3.28,5.6-.04,10.57-2.7,13.77-6.82-2.31-2.97-3.69-6.71-3.69-10.76,0,9.6-7.72,17.41-17.28,17.58h-.32.16c-.05,0-.11,0-.16,0h.32c5.6.1,10.57,2.81,13.72,6.98.05.06.09.12.14.18.12.16.23.33.36.5.03.05.07.1.1.15.14.2.27.41.4.62.01.01.01.03.02.04.44.72.83,1.48,1.16,2.26,0,0,0,0,0,.01.89,2.1,1.39,4.41,1.39,6.84,0-.05,0-.08,0-.13v.13c0-2.43.5-4.73,1.39-6.84,0,0,0,0,0,0,.33-.78.72-1.54,1.16-2.26Z"/><polygon class="cls-1" points="16.46 7.89 13.91 24.6 18.62 28.56 21.3 10.95 16.46 7.89"/><path class="cls-2" d="M17.61.19C17.6,9.9,9.72,17.77,0,17.77h7.39c5.66,0,10.69-2.67,13.92-6.82-2.31-2.97-3.69-6.71-3.7-10.76Z"/><polygon class="cls-1" points="54.56 16.76 56.08 10.92 51.23 7.86 49.5 19.69 58.81 20.86 66.3 17.78 54.56 16.76"/><path class="cls-2" d="M52.39,35.35c.01-9.71,7.89-17.58,17.61-17.58h-7.39c-5.66,0-10.69,2.67-13.91,6.82,2.31,2.97,3.69,6.71,3.7,10.76Z"/><path class="cls-2" d="M52.37.23c-.01,4.98-1.99,9.61-5.49,12.63-3.55,3.07-6.67,4.01-18.42,4.67-7.11.4-11.12,2.55-14.55,7.06h0c2.31,2.95,3.7,6.66,3.71,10.69,0-4.98,1.99-9.61,5.48-12.63,3.55-3.06,6.66-4.01,18.43-4.67,7.12-.4,11.13-2.55,14.55-7.06-2.31-2.94-3.7-6.65-3.71-10.69h0Z"/><path class="cls-2" d="M66.17,48.8l-.02-8.29c-.1-.59-.57-.86-1.12-.86h-1.2l-2.42,6.39-2.56-5.49h0c-.24-.58-.57-.9-1.13-.9h-2.04v9.15h1.35v-5.12l2.61,5.12h2.12l1.99-5.22v5.22h2.43Z"/><path class="cls-2" d="M11.87,39.65v6.9l-4.52-6.02c-.41-.64-1.18-.89-1.77-.89h-1.75v9.04h1.31v-6.72l4.38,5.84c.42.64,1.18.88,1.78.88h1.89v-9.04h-1.32Z"/><path class="cls-2" d="M52.92,39.65h-5.73c-1,0-1.82.8-1.82,1.75v5.65c0,.96.82,1.75,1.82,1.75h5.73c1,0,1.82-.79,1.82-1.75v-5.65c0-.96-.82-1.75-1.82-1.75ZM52.07,46.99c0,.32-.27.58-.61.58h-2.81c-.33,0-.61-.26-.61-.58v-5.51c0-.32.27-.58.61-.58h2.81c.33,0,.61.26.61.58v5.51Z"/><path class="cls-2" d="M17.32,40.89h4.96v-1.24h-6.36c-1.06,0-1.91.78-1.91,1.75v5.64c0,.96.86,1.75,1.91,1.75h6.36v-1.24h-4.96c-.35,0-.64-.26-.64-.58v-2.13h5.29v-1.24h-5.29v-2.13c0-.32.29-.58.64-.58Z"/><path class="cls-2" d="M39.26,40.89h5.29v-1.24h-6.69c-1.05,0-1.91.78-1.91,1.75v5.65c0,.97.86,1.76,1.91,1.76h6.69v-1.25h-5.29c-.35,0-.64-.26-.64-.58v-5.51c0-.32.29-.58.64-.58Z"/><path class="cls-2" d="M33.97,39.66l-1.25,6.43-1.75-6.43h-2.68l-1.69,6.56h-.03l-1.04-5.7c-.18-.64-.56-.87-1.13-.87h-1.47l1.53,8.28c.18.64.57.87,1.13.87h2.07l1.61-6.43,1.74,6.43h2.78l1.73-9.14h-1.53Z"/></svg>