<?xml version="1.0" encoding="UTF-8"?><svg id="_素材" xmlns="http://www.w3.org/2000/svg" viewBox="0 0 185 144"><defs><style>.cls-1{fill:#0054a6;}.cls-2{fill:#cdcddd;}.cls-3{fill:#e8f3fa;}</style></defs><rect class="cls-3" width="185" height="144"/><path class="cls-2" d="M98.73,75.33s.03-.06.05-.08c.23-.4.5-.8.76-1.19.06-.09.13-.19.2-.28.23-.33.45-.64.68-.95.08-.12.17-.23.26-.34,6.14-8.11,15.87-13.34,26.81-13.34h-14.11c-7.28,0-14.02,2.33-19.53,6.26-5.44-3.89-12.07-6.2-19.26-6.26,10.7-.08,20.2-5.16,26.31-13.03-4.41-5.68-7.05-12.82-7.06-20.56-.02,18.34-14.75,33.25-33.02,33.59h-.61.31c-.1,0-.2,0-.31,0h.61c10.7.2,20.19,5.38,26.21,13.33.09.11.17.22.26.34.23.31.45.63.68.95.05.09.13.2.19.28.26.39.52.79.77,1.19.02.02.02.06.04.08.84,1.38,1.59,2.83,2.21,4.32,0,0,.02,0,.02.02,1.7,4.02,2.65,8.43,2.65,13.06,0-.09,0-.16,0-.25v.25c0-4.63.95-9.05,2.66-13.07,0,0,0-.02,0-.02.63-1.49,1.38-2.94,2.22-4.32Z"/><polygon class="cls-2" points="57.08 40.26 52.2 72.19 61.2 79.75 66.33 46.12 57.08 40.26"/><path class="cls-1" d="M59.27,25.56c-.02,18.54-15.08,33.59-33.64,33.59h14.11c10.82,0,20.43-5.1,26.59-13.03-4.42-5.68-7.05-12.82-7.06-20.56Z"/><polygon class="cls-2" points="129.87 57.21 132.77 46.06 123.52 40.21 120.19 62.8 137.99 65.05 152.31 59.16 129.87 57.21"/><path class="cls-1" d="M125.73,92.73c.02-18.55,15.07-33.59,33.64-33.59h-14.12c-10.81,0-20.42,5.1-26.58,13.02,4.42,5.68,7.05,12.81,7.06,20.56Z"/><path class="cls-1" d="M125.68,25.64c-.02,9.52-3.81,18.36-10.48,24.13-6.78,5.86-12.74,7.66-35.2,8.93-13.59.77-21.25,4.88-27.8,13.48h0c4.42,5.63,7.08,12.72,7.09,20.42.01-9.51,3.8-18.36,10.47-24.13,6.78-5.86,12.73-7.67,35.2-8.93,13.6-.76,21.26-4.88,27.8-13.48-4.42-5.62-7.07-12.71-7.09-20.42h0Z"/><path class="cls-1" d="M152.05,118.43l-.05-15.83c-.19-1.12-1.09-1.65-2.15-1.65h-2.29l-4.62,12.2-4.89-10.49h0c-.45-1.11-1.08-1.71-2.16-1.71h-3.9v17.48h2.57v-9.78l4.98,9.78h4.05l3.81-9.97v9.97h4.63Z"/><path class="cls-1" d="M48.31,100.95v13.19l-8.63-11.5c-.78-1.23-2.25-1.69-3.39-1.69h-3.34v17.27h2.5v-12.85l8.37,11.16c.79,1.23,2.25,1.68,3.39,1.68h3.6v-17.27h-2.52Z"/><path class="cls-1" d="M126.74,100.95h-10.94c-1.91,0-3.48,1.52-3.48,3.35v10.8c0,1.84,1.57,3.34,3.48,3.34h10.94c1.91,0,3.48-1.5,3.48-3.34v-10.8c0-1.83-1.57-3.35-3.48-3.35ZM125.11,114.96c0,.61-.52,1.12-1.16,1.12h-5.36c-.64,0-1.16-.5-1.16-1.12v-10.53c0-.61.52-1.11,1.16-1.11h5.36c.64,0,1.16.51,1.16,1.11v10.53Z"/><path class="cls-1" d="M58.72,103.32h9.48v-2.37h-12.16c-2.02,0-3.65,1.5-3.65,3.34v10.78c0,1.83,1.64,3.33,3.65,3.33h12.16v-2.36h-9.48c-.68,0-1.23-.5-1.23-1.11v-4.07h10.11v-2.37h-10.11v-4.07c0-.62.55-1.1,1.23-1.1Z"/><path class="cls-1" d="M100.64,103.32h10.11v-2.37h-12.78c-2.01,0-3.65,1.5-3.65,3.34v10.79c0,1.85,1.64,3.35,3.65,3.35h12.78v-2.38h-10.11c-.67,0-1.22-.5-1.22-1.1v-10.53c0-.62.55-1.1,1.22-1.1Z"/><path class="cls-1" d="M90.54,100.97l-2.39,12.29-3.35-12.29h-5.12l-3.24,12.54h-.06l-2-10.88c-.35-1.22-1.08-1.67-2.16-1.67h-2.81l2.93,15.82c.35,1.22,1.08,1.66,2.16,1.66h3.95l3.08-12.29,3.33,12.29h5.31l3.3-17.47h-2.93Z"/></svg>