<?xml version="1.0" encoding="UTF-8"?><svg id="_デザインカンプ" xmlns="http://www.w3.org/2000/svg" xmlns:xlink="http://www.w3.org/1999/xlink" viewBox="0 0 240 110"><defs><style>.cls-1{fill:none;}.cls-2{fill:#004f80;}.cls-3{fill:#ccc;}.cls-4{fill:#33c8e7;}.cls-5{clip-path:url(#clippath-1);}.cls-6{fill:#fff;}.cls-7{fill:#2cb9e7;}.cls-8{fill:#2e2e2e;}.cls-9{fill:#333;}.cls-10{clip-path:url(#clippath);}</style><clipPath id="clippath"><circle class="cls-1" cx="185" cy="55" r="55"/></clipPath><clipPath id="clippath-1"><circle class="cls-1" cx="55" cy="55" r="55"/></clipPath></defs><path class="cls-2" d="M212.96,29.9c1.83.45,3.56.55,5.35-.1,1.67-.61,3.44-1.61,4.24-3.28,1.76-3.67-2.88-6.23-6-5.56-.8.17-1.64.58-2.04,1.33-.46.85-.1,1.82.57,2.43,1.34,1.21,3.73,1.42,5.45,1.37,3.19-.1,7.03-1.48,7.42-5.14.28-2.65-1.65-5.01-4.15-5.6-2.02-.47-5.57-.5-6.27,2.03s2.51,3.48,4.41,3.77c2.5.38,5.65.4,7.8-1.11s2.93-4.66,1.67-6.94c-.83-1.5-2.47-2.4-4.1-2.77s-3.76-.53-5.41.1c-1.25.48-.71,2.51.56,2.02,1.05-.4,2.26-.38,3.35-.26s2.2.41,3.05,1.1c1.26,1.01,1.3,2.67.61,3.94-.33.62-.68.98-1.24,1.28-.77.41-1.69.6-2.55.68-1.74.17-3.83.05-5.38-.61-.17-.07-.33-.17-.5-.26-.18-.1-.1-.06-.18-.12-.13-.1-.12-.13-.12-.13,0,0,.05.17,0,.02.07.24,0,.05.01-.1-.03.17.12-.28.03-.11.04-.08.07-.14.24-.28.13-.1.49-.23.8-.3,1.35-.31,3.32-.07,4.23.84,1.39,1.39,1.37,3.63-.3,4.76-2.01,1.36-5.04,1.36-7.26.65-.13-.04-.29-.09-.42-.15-.1-.05-.35-.28-.44-.29l-.05-.07c.02.06.02.11-.01.17-.05.11-.04.11.04.03.07-.05.15-.09.23-.12.64-.29,1.46-.24,2.12-.06.92.25,2.29,1.01,2.06,2.15-.27,1.32-1.93,2.15-3.05,2.56-1.46.53-2.74.47-4.24.1-1.31-.32-1.87,1.7-.56,2.02h0Z"/><circle class="cls-6" cx="185" cy="55" r="55"/><g class="cls-10"><path class="cls-2" d="M212.96,29.9c1.83.45,3.56.55,5.35-.1,1.67-.61,3.44-1.61,4.24-3.28,1.76-3.67-2.88-6.23-6-5.56-.8.17-1.64.58-2.04,1.33-.46.85-.1,1.82.57,2.43,1.34,1.21,3.73,1.42,5.45,1.37,3.19-.1,7.03-1.48,7.42-5.14.28-2.65-1.65-5.01-4.15-5.6-2.02-.47-5.57-.5-6.27,2.03s2.51,3.48,4.41,3.77c2.5.38,5.65.4,7.8-1.11s2.93-4.66,1.67-6.94c-.83-1.5-2.47-2.4-4.1-2.77s-3.76-.53-5.41.1c-1.25.48-.71,2.51.56,2.02,1.05-.4,2.26-.38,3.35-.26s2.2.41,3.05,1.1c1.26,1.01,1.3,2.67.61,3.94-.33.62-.68.98-1.24,1.28-.77.41-1.69.6-2.55.68-1.74.17-3.83.05-5.38-.61-.17-.07-.33-.17-.5-.26-.18-.1-.1-.06-.18-.12-.13-.1-.12-.13-.12-.13,0,0,.05.17,0,.02.07.24,0,.05.01-.1-.03.17.12-.28.03-.11.04-.08.07-.14.24-.28.13-.1.49-.23.8-.3,1.35-.31,3.32-.07,4.23.84,1.39,1.39,1.37,3.63-.3,4.76-2.01,1.36-5.04,1.36-7.26.65-.13-.04-.29-.09-.42-.15-.1-.05-.35-.28-.44-.29l-.05-.07c.02.06.02.11-.01.17-.05.11-.04.11.04.03.07-.05.15-.09.23-.12.64-.29,1.46-.24,2.12-.06.92.25,2.29,1.01,2.06,2.15-.27,1.32-1.93,2.15-3.05,2.56-1.46.53-2.74.47-4.24.1-1.31-.32-1.87,1.7-.56,2.02h0Z"/><path class="cls-4" d="M145.53,29.57c0-.06-.02-.09,0,0h0Z"/><path class="cls-4" d="M176.51,43.1c.07-.03.13-.06.17-.08-.06.03-.11.06-.17.08Z"/><path class="cls-6" d="M191.11,80.2c-4.31,1.46-9.03.87-13.03-1.2-1.92-.99-3.67-2.31-5.2-3.86-.03,1.35-.13,2.69-.31,4.02,1.36.47,2.71.95,4.07,1.42,2.74.96,5.49,1.92,8.23,2.87.31.11.7.18.99.35.04.02.1.03.15.05-.51-.19-.03-.04.27-.04.19,0,.39-.01.58,0,.03-.01.06-.02.08-.03.3-.16.66-.25.97-.37,3.81-1.46,7.62-2.93,11.44-4.39-.17-1.37-.3-2.75-.41-4.13-2.14,2.37-4.8,4.28-7.84,5.31Z"/><path class="cls-4" d="M196.27,43.48s0,0,.01,0c.03,0,.07,0,.09,0-.01,0-.04,0-.05,0-.02,0-.03,0-.05,0Z"/><path class="cls-6" d="M207.01,50.15c-.51-.55-1.37-.68-1.73-.35-.86.79-2.01.09-2.15-.77-.27-.14-.49-.38-.57-.74-.76-3.36-1.65-6.7-2.65-10-.34-1.14-.71-2.28-1.09-3.4-.19-.54-.38-1.08-.58-1.61-.12-.32-.37-.73-.46-1.09,0,0,0-.01-.01-.02-.06-.05-.11-.11-.16-.15-.24-.22-.48-.44-.73-.66-.54-.49-1.08-.98-1.63-1.47-.32-.29-.68-.62-1.01-.83-.91-.57-2.11-.91-3.17-.97-2.19-.12-4.06.99-5.53,2.52-1.39,1.45-2.34,3.24-3.5,4.86-1.32,1.85-2.73,3.63-4.2,5.36-.02.02-.04.04-.06.06,1.3.18,2.6.39,3.89.61.69.12,1.02.94.88,1.55-.07.3-.32.6-.58.75-.31.18-.63.18-.97.13-.21-.04-.42-.07-.63-.11-.9-.15-1.81-.3-2.72-.43-.23-.04-.47-.07-.7-.1-.03,0-.06,0-.1-.01-.06,0-.12-.02-.18-.02-.14-.02-.28-.03-.42-.04,0,0-.02,0-.03,0-.03,0-.05,0-.07,0-.13,0-.25,0-.37-.03-2.22,2.45-4.65,4.8-7.45,6.47-.52.31-1.2.17-1.59-.27-.88-.36-1.86-.45-2.5.37-.6.77-.78,1.87-.8,2.82-.06,2.74,1.63,6.1,4.55,6.62.39.07.81.49.88.88.3,1.7.53,3.44.99,5.11.85,3.07,2.53,5.88,4.75,8.15,3.83,3.91,9.44,6.21,14.89,4.76,5.95-1.59,10.41-7.06,11.98-12.86.39-1.45.62-2.95.96-4.41.14-.58.39-.93.91-1.23.85-.5,1.69-.98,2.45-1.63,1.6-1.38,2.26-3.18,2.12-5.29-.06-.87-.29-1.84-.9-2.51ZM178.84,49.68c-1.62,0-1.62-2.52,0-2.52s1.62,2.52,0,2.52ZM186.3,57.77c1.62,0,1.62,2.52,0,2.52s-1.62-2.52,0-2.52ZM190.82,67.95c-.3.57-1.18.83-1.72.45-.25-.18-.52-.34-.8-.48-.04-.02-.31-.13-.29-.13-.11-.04-.22-.08-.34-.12-.14-.04-.28-.08-.42-.11-.04,0-.21-.03-.28-.05-.23-.02-.47-.04-.7-.03-.12,0-.24.02-.37.02-.04,0-.07,0-.09,0-.03,0-.07.01-.1.02-.28.05-.55.12-.81.21-.1.03-.21.07-.31.11-.02.01-.24.11-.28.13-.26.13-.51.28-.75.44-.59.39-1.37.1-1.72-.45-.38-.59-.1-1.36.45-1.72,2.44-1.61,5.62-1.71,8.04-.01.58.4.79,1.08.45,1.72ZM194.27,49.68c-1.62,0-1.62-2.52,0-2.52s1.62,2.52,0,2.52ZM197.5,42.87c-.22.43-.74.66-1.22.61,0,0-.01,0-.02,0-.03,0-.06,0-.09,0-.15,0-.3.03-.44.04-.18.02-.36.04-.54.07,0,0,0,0,0,0-.01,0-.02,0-.03,0-.11.01-.21.03-.32.04-.43.06-.86.13-1.29.19-.5.08-1,.15-1.5.23-.7.11-1.32-.17-1.55-.88-.1-.3-.03-.7.13-.97.14-.24.46-.53.75-.58.2-.03.4-.06.6-.09.84-.13,1.69-.26,2.53-.38.47-.07.95-.13,1.43-.18.37-.04.78-.06,1.11.16.59.38.78,1.1.45,1.72Z"/><path class="cls-4" d="M195.77,43.32s.09.05.15.07c-.05-.02-.1-.04-.15-.07Z"/><path class="cls-6" d="M170.81,81.49c-.17-.04-.31-.11-.43-.2-.4,1.92-.8,3.85-1.21,5.77.3.1.6.2.9.29,3.71,1.21,7.41,2.42,11.12,3.63.54-1.86,1.09-3.72,1.63-5.58-3.76-1.31-7.52-2.63-11.29-3.94-.24.07-.49.09-.73.03Z"/><path class="cls-3" d="M203.46,97.27c.2-.05.41-.06.66.02,1.5.44,3,.89,4.5,1.33.3-2.32.59-4.63.89-6.95.01-.12.05-.22.08-.32-1.15-.53-2.31-1.06-3.48-1.58-1.09,2.42-1.92,4.95-2.66,7.5Z"/><path class="cls-7" d="M187.77,86.14c-.88.31-1.72.25-2.56.04-.42,1.44-.84,2.87-1.26,4.31.03.05.06.1.08.16.5,1.2,1,2.4,1.5,3.6h2.1c.42-1.3.84-2.61,1.25-3.91.05-.14.11-.26.19-.38-.44-1.27-.87-2.53-1.31-3.8,0,0,0-.02,0-.02Z"/><path class="cls-6" d="M195.48,83.19c-1.8.69-3.59,1.38-5.39,2.07.04.07.08.15.11.24.65,1.88,1.29,3.77,1.94,5.65.2-.07.4-.14.59-.22,3.61-1.31,7.23-2.63,10.84-3.94-.7-2.03-1.41-4.06-2.11-6.09-2,.77-3.99,1.53-5.99,2.3Z"/><path class="cls-4" d="M196.26,43.49s0,0,0,0c-.07,0-.14-.02-.21-.04.07.02.14.04.2.04Z"/><path class="cls-4" d="M176.08,43.18s.05,0,.07,0c.01,0,.03,0,.04,0-.02,0-.05,0-.07,0-.01,0-.03,0-.04,0Z"/><path class="cls-9" d="M205.33,28.57c-.66-1.91-1.6-4.59-3.52-5.6-.66-.35-1.4-.26-2.01-.68-.71-.49-1.39-1.03-2.08-1.55-.76-.57-1.3-1.35-2.11-1.87-1.14-.73-2.4-1.2-3.71-1.55-5.77-1.52-11.86-.81-16.73,2.75-2.39,1.75-4.42,4.03-6.12,6.45-1.85,2.62-3.52,5.5-4.05,8.71-.52,3.1.26,6.54,1.74,9.29.41.77.87,1.51,1.34,2.26,1.64-1.14,3.11-2.52,4.5-3.94,1.96-1.99,3.8-4.12,5.53-6.32,2.64-3.36,4.58-7.84,8.5-9.92,2.1-1.11,4.51-1.34,6.78-.62.97.3,2.03.72,2.81,1.38.48.41.94.84,1.4,1.27,1.03.93,2.13,1.67,2.66,2.97.91,2.25,1.64,4.56,2.32,6.89.75,2.56,1.43,5.14,2.05,7.73.08-.04.16-.07.24-.11,1-.51,1.64-1.59,2.15-2.55,1.41-2.67,1.11-5.08.31-7.87-.68-2.36-1.2-4.77-2-7.09Z"/><path class="cls-4" d="M201,20.16c-.1-.05-.11-.02,0,0h0Z"/><path class="cls-4" d="M176.23,43.18c.06,0,.12-.03.19-.05-.07.02-.14.04-.22.05,0,0,.02,0,.03,0Z"/><path class="cls-6" d="M181.7,93.79c-.59-.19-1.19-.39-1.78-.58-3.71-1.21-7.42-2.42-11.13-3.63,2.7,6.72,4.6,13.75,7.43,20.42h4.1c.74-4.8,1.67-9.66,3.12-14.29-.28-.67-.56-1.35-.84-2.02-.27.14-.59.2-.89.1Z"/><path class="cls-7" d="M185.75,96.77c-1.31,4.3-2.2,8.78-2.9,13.23h7.1c-.93-4.38-1.08-8.92-2.38-13.23h-1.83Z"/><path class="cls-3" d="M164.64,90.89c-.02.23-.04.46-.06.69-.21,2.43-.42,4.87-.63,7.3,1.31-.4,2.62-.8,3.96-1.12,1.58-.38,2.24,2.04.67,2.43-1.48.36-2.93.79-4.39,1.25-.7.22-1.41.42-2.12.61-.47.12-.94.22-1.4.35-.02,0-.07.02-.11.03.11.23.19.54.29.74.16.32.33.64.5.95.42.75.86,1.49,1.3,2.23.72,1.2,1.46,2.39,2.06,3.65h8.82c-2.66-6.57-4.54-13.44-7.25-19.99-.54.3-1.09.59-1.63.88Z"/><path class="cls-3" d="M162.02,92.11c-.94.37-1.91.71-2.84,1.08-2.21.86-4.42,1.72-6.63,2.58-2.04.79-4.07,1.59-6.1,2.42-1.55.63-3.14,1.24-4.54,2.18-3.29,2.22-5.16,5.9-6.26,9.63h26.22c-.56-1-1.16-1.97-1.74-2.95-.47-.79-.94-1.58-1.35-2.4-.46-.89-1.05-1.95-.77-2.98.3-1.12,1.34-1.55,2.37-1.8.35-.09.7-.18,1.05-.27-.03-.1-.04-.21-.03-.32.03-.37.06-.74.1-1.11.17-2.02.35-4.04.52-6.06Z"/><path class="cls-6" d="M190.48,93.62c-.21.66-.42,1.31-.63,1.97,1.52,4.68,1.58,9.65,2.68,14.41h4.24c2.95-6.49,3.96-13.7,6.66-20.29-3.91,1.42-7.82,2.84-11.72,4.26-.46.17-.91-.03-1.22-.36Z"/><path class="cls-3" d="M210.47,101.79c-.47-.14-.94-.28-1.41-.42-1.87-.55-3.74-1.11-5.61-1.66-.25-.07-.44-.2-.58-.36-1,3.59-1.96,7.21-3.37,10.65h8.16c1.11-2.16,2.15-4.36,3.27-6.53.16-.3.34-.6.41-.94.02-.08.03-.3.04-.32-.02-.02-.07-.08-.09-.1-.22-.18-.55-.25-.81-.33Z"/><path class="cls-3" d="M230,102.27c-1.15-.84-2.42-1.55-3.65-2.28-2.66-1.58-5.39-3.05-8.15-4.46-2.08-1.06-4.17-2.09-6.27-3.09-.28,2.18-.56,4.35-.83,6.53-.02.13-.06.24-.09.36.78.23,1.57.5,2.16,1.1.77.79.88,1.97.54,2.98-.51,1.51-1.43,2.96-2.13,4.39-.36.73-.72,1.47-1.09,2.2h23.76c-.68-1.74-1.25-3.52-2.16-5.16-.54-.96-1.17-1.91-2.07-2.57Z"/><path class="cls-4" d="M197.77,32.15s0,.01,0,.02c.09.22.27.16.06.03-.02-.01-.04-.04-.07-.05Z"/><path class="cls-4" d="M197.76,32.15s0,0,0,0c-.01-.05-.03-.1-.03-.15,0,.06.01.1.03.14Z"/><path class="cls-9" d="M190.37,66.23c-2.42-1.7-5.61-1.6-8.04.01-.55.36-.83,1.13-.45,1.72.35.55,1.13.84,1.72.45.24-.16.49-.31.75-.44.03-.02.25-.11.28-.13.1-.04.2-.08.31-.11.27-.09.54-.16.81-.21.03,0,.07-.01.1-.02.02,0,.04,0,.09,0,.12,0,.24-.02.37-.02.23,0,.47,0,.7.03.07.01.24.04.28.05.14.03.28.07.42.11.11.03.22.08.34.12-.02,0,.25.11.29.13.28.14.54.3.8.48.54.38,1.42.12,1.72-.45.34-.64.13-1.32-.45-1.72Z"/><path class="cls-8" d="M176.16,43.18s.04,0,.07,0c0,0-.02,0-.03,0-.01,0-.03,0-.04,0Z"/><path class="cls-8" d="M196.37,43.48s-.03,0-.05,0c-.01,0-.03,0-.04,0,.03,0,.07,0,.09,0Z"/><path class="cls-8" d="M196.26,43.49s.01,0,.02,0c0,0,0,0-.01,0,0,0,0,0,0,0Z"/><path class="cls-9" d="M194.27,47.17c-1.62,0-1.62,2.52,0,2.52s1.62-2.52,0-2.52Z"/><path class="cls-9" d="M186.3,57.77c-1.62,0-1.62,2.52,0,2.52s1.62-2.52,0-2.52Z"/><path class="cls-9" d="M178.84,47.17c-1.62,0-1.62,2.52,0,2.52s1.62-2.52,0-2.52Z"/><path class="cls-8" d="M176.08,43.18s.05,0,.07,0c-.01,0-.03,0-.04,0-.01,0-.02,0-.03,0Z"/><path class="cls-8" d="M197.76,32.15s0,.02.01.02c0,0,0-.01,0-.02,0,0,0,0,0,0Z"/><rect class="cls-6" x="176.6" y="39.86" width="22.26" height="5.7"/><path class="cls-9" d="M197.34,42.26c-.24-.32-.62-.44-.99-.53-.46-.12-.93-.22-1.4-.32-.83-.18-1.67-.35-2.51-.52-.2-.04-.4-.08-.59-.12-.29-.06-.69.1-.9.28-.24.2-.44.55-.45.87-.03.74.46,1.22,1.15,1.36.5.1.99.2,1.48.3.43.09.85.18,1.28.27.1.02.21.05.31.07,0,0,.02,0,.03,0,0,0,0,0,0,0,.18.04.35.08.53.12.14.04.29.07.43.11.03,0,.06.02.08.03-.06-.03-.11-.06-.17-.11.06.04.12.08.18.11.02,0,.03.01.05.02,0,0,0,0,0,0,.43.18.97.14,1.31-.17.52-.47.59-1.21.17-1.77ZM195.4,43.87s.07.08.12.12c-.05-.04-.09-.09-.12-.12Z"/><path class="cls-9" d="M175.72,44.04c.35.31.88.35,1.31.17,0,0,0,0,0,0,.02,0,.03-.01.05-.02.07-.03.13-.07.18-.11-.06.05-.12.08-.17.11.03,0,.06-.02.08-.03.14-.04.29-.08.43-.11.18-.04.35-.08.53-.12,0,0,0,0,0,0,0,0,.02,0,.03,0,.1-.02.21-.05.31-.07.43-.09.85-.18,1.28-.27.49-.1.99-.2,1.48-.3.69-.14,1.18-.62,1.15-1.36-.01-.32-.21-.67-.45-.87-.22-.18-.61-.34-.9-.28-.2.04-.4.08-.59.12-.84.17-1.67.34-2.51.52-.47.1-.94.2-1.4.32-.36.09-.75.21-.99.53-.42.56-.36,1.3.17,1.77ZM177.38,43.99s.09-.09.12-.12c-.02.03-.07.08-.12.12Z"/><path class="cls-9" d="M232.54,101.18c-.91-.97-2.11-1.64-3.24-2.34-5.2-3.22-10.68-5.99-16.2-8.61-2.21-1.05-4.43-2.07-6.67-3.05-.06-.03-.11-.04-.17-.06-.01-.04-.01-.08-.03-.12-.93-2.69-1.86-5.38-2.79-8.07-.21-.59-.88-1.13-1.55-.88-.04.02-.08.03-.12.05-.21-1.88-.38-3.76-.49-5.64,0-.17-.05-.33-.12-.48.16-.25.33-.5.48-.75,1.76-3.02,2.48-6.26,3.18-9.61,1.36-.73,2.69-1.68,3.69-2.83,1.27-1.46,1.83-3.35,1.9-5.27.07-1.87-.38-3.97-1.79-5.3-.38-.36-.82-.63-1.29-.82.83-.79,1.48-1.84,1.97-2.82.74-1.48,1.25-3.07,1.29-4.73.04-1.65-.4-3.27-.85-4.84-.64-2.24-1.14-4.52-1.88-6.74-.76-2.28-1.72-4.76-3.49-6.46-.78-.75-1.73-1.34-2.8-1.55-.14-.03-.32-.06-.46-.07-.02-.02-.04-.04-.05-.05-.36-.32-.79-.59-1.18-.88-.32-.24-.71-.46-.99-.74-.18-.18-.57-.69-.95-1.02-1.1-.92-2.37-1.57-3.71-2.07-5.95-2.22-13.22-1.88-18.7,1.38-2.77,1.65-5.16,3.92-7.16,6.44-2.19,2.75-4.18,5.79-5.27,9.16-1.18,3.64-.91,7.47.44,11.02.43,1.13.96,2.17,1.54,3.2-.76.06-1.5.32-2.16.87-1.31,1.08-1.83,2.81-1.98,4.45-.34,3.71,1.86,8.3,5.6,9.47.5,2.85,1.04,5.62,2.37,8.26.43.85.93,1.67,1.47,2.47,0,.06-.02.13-.02.2.02.93,0,1.86-.03,2.79-.03.84-.07,1.69-.14,2.53-.02.23-.04.45-.07.67-.11-.04-.22-.08-.33-.12-.61-.21-1.41.25-1.55.88-.54,2.61-1.09,5.21-1.63,7.82-.21.07-.41.2-.58.36-1.15.64-2.29,1.28-3.46,1.87-2.38,1.19-5.67,2.25-8.39,3.3-3.08,1.2-6.16,2.38-9.21,3.64-2.58,1.07-4.98,2.21-6.93,4.28-2.54,2.68-4.07,6.11-5.03,9.64h2.61c1.1-3.74,2.96-7.42,6.26-9.63,1.4-.94,2.99-1.55,4.54-2.18,2.02-.83,4.06-1.62,6.1-2.42,2.21-.86,4.42-1.72,6.63-2.58.93-.36,1.89-.71,2.84-1.08-.17,2.02-.35,4.04-.52,6.06-.03.37-.06.74-.1,1.11,0,.11,0,.22.03.32-.35.09-.7.18-1.05.27-1.02.25-2.07.68-2.37,1.8-.28,1.03.31,2.08.77,2.98.42.82.89,1.61,1.35,2.4.58.98,1.19,1.95,1.74,2.95h2.83c-.6-1.26-1.34-2.46-2.06-3.65-.44-.74-.88-1.47-1.3-2.23-.17-.31-.34-.63-.5-.95-.1-.2-.18-.51-.29-.74.05-.01.09-.03.11-.03.46-.13.94-.23,1.4-.35.71-.19,1.42-.39,2.12-.61,1.45-.45,2.91-.89,4.39-1.25,1.57-.38.91-2.81-.67-2.43-1.34.32-2.65.72-3.96,1.12.21-2.43.42-4.87.63-7.3.02-.23.04-.46.06-.69.55-.29,1.09-.58,1.63-.88,2.71,6.55,4.59,13.42,7.25,19.99h2.7c-2.83-6.67-4.73-13.7-7.43-20.42,3.71,1.21,7.42,2.42,11.13,3.63.59.19,1.19.39,1.78.58.31.1.62.05.89-.1.28.67.56,1.35.84,2.02-1.45,4.63-2.38,9.49-3.12,14.29h2.53c.7-4.45,1.58-8.93,2.9-13.23h1.83c1.29,4.31,1.45,8.85,2.38,13.23h2.58c-1.11-4.76-1.17-9.73-2.68-14.41.21-.66.42-1.31.63-1.97.31.33.76.52,1.22.36,3.91-1.42,7.82-2.84,11.72-4.26-2.7,6.59-3.71,13.8-6.66,20.29h2.72c1.42-3.44,2.37-7.05,3.37-10.65.14.16.33.29.58.36,1.87.55,3.74,1.11,5.61,1.66.47.14.94.27,1.41.42.27.08.59.14.81.33.02.02.07.08.09.1-.01.02-.03.24-.04.32-.08.33-.26.64-.41.94-1.12,2.16-2.16,4.36-3.27,6.53h2.82c.37-.73.73-1.47,1.09-2.2.71-1.43,1.62-2.88,2.13-4.39.34-1.01.23-2.19-.54-2.98-.58-.6-1.37-.87-2.16-1.1.04-.12.08-.23.09-.36.28-2.18.56-4.35.83-6.53,2.11,1,4.2,2.03,6.27,3.09,2.76,1.41,5.48,2.88,8.15,4.46,1.22.73,2.5,1.44,3.65,2.28.9.66,1.54,1.61,2.07,2.57.91,1.64,1.48,3.42,2.16,5.16h2.71c-.83-1.87-1.41-3.86-2.32-5.7-.56-1.12-1.23-2.2-2.09-3.11ZM201,20.16c-.06,0-.08-.02-.08-.03,0,0,.02.02.08.03ZM165.01,35.22c.53-3.21,2.2-6.08,4.05-8.71,1.7-2.41,3.73-4.7,6.12-6.45,4.87-3.55,10.96-4.27,16.73-2.75,1.3.34,2.57.82,3.71,1.55.82.52,1.35,1.3,2.11,1.87.69.52,1.37,1.06,2.08,1.55.61.42,1.35.33,2.01.68,1.92,1.01,2.86,3.69,3.52,5.6.8,2.33,1.32,4.73,2,7.09.8,2.79,1.1,5.2-.31,7.87-.51.96-1.15,2.04-2.15,2.55-.08.04-.16.07-.24.11-.62-2.59-1.29-5.17-2.05-7.73-.68-2.32-1.42-4.64-2.32-6.89-.52-1.3-1.63-2.04-2.66-2.97-.47-.42-.93-.85-1.4-1.27-.78-.67-1.84-1.08-2.81-1.38-2.27-.71-4.68-.49-6.78.62-3.92,2.08-5.86,6.56-8.5,9.92-1.73,2.2-3.56,4.32-5.53,6.32-1.39,1.42-2.87,2.8-4.5,3.94-.46-.74-.92-1.49-1.34-2.26-1.48-2.75-2.26-6.19-1.74-9.29ZM176.68,43.02s-.1.05-.17.08c.07-.03.13-.06.17-.08ZM169.86,65.15c-.46-1.67-.69-3.41-.99-5.11-.07-.39-.49-.81-.88-.88-2.92-.52-4.61-3.88-4.55-6.62.02-.95.2-2.05.8-2.82.64-.82,1.62-.73,2.5-.37.39.44,1.06.58,1.59.27,2.8-1.67,5.24-4.02,7.45-6.47.11.03,2.03-2.32,2.05-2.34,1.47-1.73,2.88-3.51,4.2-5.36,1.16-1.63,2.11-3.41,3.5-4.86,1.47-1.53,3.35-2.65,5.53-2.52,1.07.06,2.27.4,3.17.97.33.21.69.54,1.01.83.54.49,1.08.98,1.63,1.47.24.22.48.44.73.66.05.05.11.1.16.15-.01-.04-.02-.09-.03-.14,0,.05.02.1.03.15.02.02.04.04.07.05.21.13.03.18-.06-.03.09.36.34.77.46,1.09.2.53.39,1.07.58,1.61.39,1.13.75,2.26,1.09,3.4,1,3.3,1.89,6.64,2.65,10,.08.36.3.6.57.74.14.86,1.3,1.56,2.15.77.36-.33,1.22-.2,1.73.35.61.66.84,1.63.9,2.51.14,2.1-.51,3.91-2.12,5.29-.75.65-1.6,1.13-2.45,1.63-.52.3-.77.66-.91,1.23-.34,1.46-.57,2.96-.96,4.41-1.57,5.79-6.03,11.27-11.98,12.86-5.45,1.45-11.06-.85-14.89-4.76-2.22-2.27-3.9-5.08-4.75-8.15ZM181.19,90.98c-3.71-1.21-7.41-2.42-11.12-3.63-.3-.1-.6-.2-.9-.29.4-1.92.8-3.85,1.21-5.77.12.09.26.17.43.2.23.05.49.04.73-.03,3.76,1.31,7.52,2.63,11.29,3.94-.54,1.86-1.09,3.72-1.63,5.58ZM188.89,90.34c-.42,1.3-.84,2.61-1.25,3.91h-2.1c-.5-1.2-1-2.4-1.5-3.6-.02-.05-.05-.11-.08-.16.42-1.44.84-2.87,1.26-4.31.84.21,1.68.27,2.56-.04,0,0,0,.02,0,.02.44,1.27.87,2.53,1.31,3.8-.08.11-.15.24-.19.38ZM187.93,83.41c-.32.12-.67.22-.97.37-.02.01-.05.02-.08.03-.19,0-.39,0-.58,0-.3,0-.78-.14-.27.04-.05-.02-.1-.03-.15-.05-.29-.16-.68-.24-.99-.35-2.74-.96-5.49-1.92-8.23-2.87-1.36-.47-2.71-.95-4.07-1.42.18-1.33.27-2.67.31-4.02,1.53,1.55,3.28,2.87,5.2,3.86,4,2.07,8.72,2.66,13.03,1.2,3.04-1.03,5.7-2.94,7.84-5.31.11,1.38.24,2.76.41,4.13-3.81,1.46-7.62,2.92-11.44,4.39ZM192.74,90.93c-.2.07-.4.14-.59.22-.65-1.88-1.29-3.77-1.94-5.65-.03-.09-.07-.17-.11-.24,1.8-.69,3.59-1.38,5.39-2.07,2-.77,3.99-1.53,5.99-2.3.7,2.03,1.41,4.06,2.11,6.09-3.61,1.31-7.23,2.63-10.84,3.94ZM209.51,91.67c-.29,2.32-.59,4.63-.89,6.95-1.5-.44-3-.89-4.5-1.33-.24-.07-.46-.07-.66-.02.74-2.55,1.57-5.08,2.66-7.5,1.16.52,2.32,1.04,3.48,1.58-.03.1-.07.21-.08.32Z"/></g><circle class="cls-6" cx="55" cy="55" r="55"/><g class="cls-5"><path class="cls-2" d="M26.85,29.9c-1.83.45-3.56.55-5.35-.1-1.67-.61-3.44-1.61-4.24-3.28-1.76-3.67,2.88-6.23,6-5.56.8.17,1.64.58,2.04,1.33.46.85.1,1.82-.57,2.43-1.34,1.21-3.73,1.42-5.45,1.37-3.19-.1-7.03-1.48-7.42-5.14-.28-2.65,1.65-5.01,4.15-5.6,2.02-.47,5.57-.5,6.27,2.03.71,2.58-2.51,3.48-4.41,3.77-2.5.38-5.65.4-7.8-1.11s-2.93-4.66-1.67-6.94c.83-1.5,2.47-2.4,4.1-2.77s3.76-.53,5.41.1c1.25.48.71,2.51-.56,2.02-1.05-.4-2.26-.38-3.35-.26s-2.2.41-3.05,1.1c-1.26,1.01-1.3,2.67-.61,3.94.33.62.68.98,1.24,1.28.77.41,1.69.6,2.55.68,1.74.17,3.83.05,5.38-.61.17-.07.33-.17.5-.26.18-.1.1-.06.18-.12.13-.1.12-.13.12-.13,0,0-.05.17,0,.02-.07.24,0,.05-.01-.1.03.17-.12-.28-.03-.11-.04-.08-.07-.14-.24-.28-.13-.1-.49-.23-.8-.3-1.35-.31-3.32-.07-4.23.84-1.39,1.39-1.37,3.63.3,4.76,2.01,1.36,5.04,1.36,7.26.65.13-.04.29-.09.42-.15.1-.05.35-.28.44-.29l.05-.07c-.02.06-.02.11.01.17.05.11.04.11-.04.03-.07-.05-.15-.09-.23-.12-.64-.29-1.46-.24-2.12-.06-.92.25-2.29,1.01-2.06,2.15.27,1.32,1.93,2.15,3.05,2.56,1.46.53,2.74.47,4.24.1,1.31-.32,1.87,1.7.56,2.02h0Z"/><path class="cls-4" d="M76.43,85.64s-.02-.04-.01-.04c-.01,0,0,.02.01.04Z"/><path class="cls-6" d="M69.42,82.76c-.39-.51-.67-1.06-.91-1.65-.84-2.03-1.11-4.32-1.32-6.51-3.22,2.82-7.28,4.46-11.62,4.34-.1,2.89-.14,5.78-.19,8.68,1.02-.67,2.35-.77,3.47-.19.77.4,1.26,1.03,1.56,1.77.66-.21,1.42-.19,2.25.15,1.13.46,1.72,1.34,1.97,2.37,1.7-.41,3.25.81,3.96,2.32.92-3.12,1.94-6.45,2.48-9.66-.23-.04-.45-.15-.6-.34-.34-.43-.71-.83-1.04-1.27Z"/><path class="cls-4" d="M71.49,81.34s.03.04.05.05c0,0,0-.01,0-.02-.03-.04-.06-.06-.1-.09.01.02.03.04.04.05Z"/><path class="cls-4" d="M71.42,81.27s.02.02.02.02c0,0,0,0,0,0,0,0-.01,0-.02-.02Z"/><path class="cls-4" d="M46.17,102.11s0,0,0-.01c0,0,0,0,0,0,0,0,0,0,0,.01Z"/><path class="cls-4" d="M56.11,66.45s.03,0,.04-.01c0,0-.01,0-.02,0-.19.01-.09.02-.02.01Z"/><path class="cls-4" d="M17.59,92.06c.09.01.18.01,0,0h0Z"/><path class="cls-4" d="M41.3,82.68s.02,0,.02,0c-.34-.14-.11-.03-.02,0Z"/><path class="cls-4" d="M41.06,82.65s0,0,0,.01c.18.02.36.06.52.14-.11-.05-.19-.09-.26-.11,0,0-.17-.02-.27-.03Z"/><path class="cls-4" d="M58.04,66.68s.01,0,.02,0c0,0,0,0,0,0-.02,0-.05-.02-.05-.03,0,0,.02.01.02.02Z"/><path class="cls-4" d="M58.06,66.69s.05.02.08.03c0,0,0-.01-.08-.03Z"/><path class="cls-4" d="M57.11,66.44s.02,0,.03,0c.07,0,.16,0,.02,0-.02,0-.03,0-.05,0Z"/><path class="cls-4" d="M56.16,66.44s.01,0,.01,0c0,0-.02,0-.02,0,0,0,0,0,.01,0Z"/><path class="cls-4" d="M57.11,66.44h0s-.04,0-.04-.01c0,0,.02,0,.04.01Z"/><path class="cls-6" d="M44.55,75.37c.4.3.55.85.46,1.35-.24,1.47-.53,2.93-.94,4.36-.35,1.22-1.13,3.67-2.61,4.02.21,1.01.46,2.02.71,3.01.95,3.85,2.04,7.67,3.21,11.47.36,0,.72,0,1.08,0,.21-1.64.44-3.28.7-4.93.78-4.92.45-9.94.66-14.89.03-.79.04-1.81.13-2.86-1.16-.61-2.25-1.34-3.27-2.16-.02.21-.07.42-.13.63Z"/><path class="cls-6" d="M39.11,67.77c-.25-.02-.5-.05-.75-.08.41.75.06,1.92-1.05,1.91-2.65-.04-5.14,1-7.16,2.69-1.68,1.41-3.07,3.16-4.04,5.13-.85,1.73-.93,3.55-1.33,5.4-.45,2.06-1.19,4.3-2.71,5.83-1.75,1.76-4.58,1.98-6.57.49-.41-.3-.56-.73-.53-1.14-1.5-.28-1.74-2.61-3.14-2.61v1.4c.26-.1.55-.13.82-.07.69.16,1.02.91.88,1.55,0,.01,0,.03,0,.04,0,.06,0,.12,0,.18,0,.07,0,.14,0,.21,0,0,0,0,0,.01.03.14.07.29.12.43,0,.01,0,.02.01.03.03.07.07.14.1.2.07.14.16.27.24.4.05.08.11.15.16.22-.03-.05-.05-.08-.06-.11-.02-.03-.03-.05-.03-.05,0,0,.01.02.03.05.03.04.06.09.09.12.23.27.49.53.77.76.07.06.16.12.23.19-.05-.05-.07-.07-.09-.09-.02-.02-.03-.03-.03-.03,0,0,.01.01.03.03.04.04.09.09.12.11.14.1.28.19.42.28.3.19.61.35.94.5,0,0,0,0,.02,0,.08.03.17.06.25.09.14.05.28.09.43.13.08.02.16.04.24.05.01,0,.03,0,.05,0,.12,0,.23.02.35.02.2,0,.38.05.54.13.13-.07.26-.13.39-.2,4.61-2.39,9.44-4.41,14.29-6.27.1-.22.2-.45.3-.67.28-.62.51-1.13,1.09-1.5.54-.34,1.1-.65,1.65-.98.98-.58,1.95-1.15,2.93-1.73.87-.51,1.82.16,1.89,1.09,0,.07.02.14.02.2.06-.12.12-.24.18-.36,0,0,0-.02,0-.02.03-.08.06-.16.09-.24.06-.15.11-.31.16-.46.14-.43.27-.87.38-1.31.32-1.22.55-2.46.76-3.7.12-.69.94-1.02,1.55-.88.16.04.3.11.41.19.06-.22.11-.43.13-.63-2.33-1.88-4.25-4.29-5.57-6.97Z"/><path class="cls-6" d="M68.78,24.45c-3.45-4.3-8.38-5.86-13.77-5.58-.9.05-1.29-.7-1.2-1.39h-2.21c.26.72-.12,1.74-1.13,1.79-2.86.16-5.53,1.31-7.78,3.06-3.97,3.1-6.8,7.77-8.29,12.54-1.32,4.2-.76,8.66.83,12.73.07.17.09.33.09.48.25-.03.51-.05.76-.04,1.22.02,1.52,1.45.91,2.14.28.28.56.56.83.83-.49-1.96.17-3.35,1.14-4.5-.2-.15-.36-.34-.44-.63-.16-.6.21-1.45.88-1.55,7.04-1,12.39-6.82,12.93-13.9.12-1.61,2.64-1.61,2.52,0-.32,4.12-2.03,7.98-4.7,10.92,2.47-.16,4.76-1.25,6.6-2.97,2.18-2.02,4.49-5.25,4.06-8.39-.09-.68.15-1.35.88-1.55.59-.16,1.45.2,1.55.88.02.12.02.25.04.37.07.1.13.2.17.32,1.01,2.9,2.18,5.75,3.65,8.45,1.25,2.3,3.05,5.44,5.59,6.35.15.05.27.13.38.22.44-.13.9-.21,1.35-.21.19-1.81.17-3.66.04-5.47-.37-5.28-2.31-10.74-5.65-14.91Z"/><path class="cls-6" d="M72.67,47.98c-.99.66-1.92-.33-1.83-1.26-2.56-1.42-4.33-4.13-5.72-6.61-1-1.78-1.85-3.64-2.63-5.53-.75,1.85-1.95,3.54-3.34,4.96.06-.05.12-.1.19-.14.25-.15.68-.24.97-.13.18.07.37.14.55.22,1.27.5,2.55.99,3.82,1.49.32.13.56.29.75.58.18.29.2.65.13.97-.07.3-.32.6-.58.75-.25.15-.68.24-.97.13-.18-.07-.37-.14-.55-.22-1.27-.5-2.55-.99-3.82-1.49-.32-.13-.56-.29-.75-.58-.18-.29-.2-.65-.13-.97.05-.22.2-.44.38-.6-.16.16-.32.32-.48.48-2.65,2.52-6.16,4.11-9.87,3.84-.36-.03-.69-.18-.93-.43-2.22,1.71-4.86,2.9-7.8,3.31-.41.06-.8-.03-1.1-.25-.97,1.15-1.63,2.54-1.14,4.5-.28-.28-.56-.56-.83-.83-.2.23-.5.38-.91.37-3.06-.06-3.05,3.4-2.46,5.57.59,2.15,2.54,4.4,4.94,4.3.74-.03,1.18.6,1.26,1.26.43,3.91,2.57,7.51,5.4,10.18.97.91,2.04,1.7,3.17,2.36.48-1.67,1.4-3.03,3.25-3.2,1.44-.13,2.61.63,3.29,1.89.59,1.08.71,2.28.71,3.48,2.74.12,5.51-.54,8.01-2.15,5.31-3.44,8.37-10.03,8.24-16.27-.01-.52.4-1.11.92-1.21,2.46-.46,3.79-2.23,3.89-4.66.06-1.48-.22-3.11-1.24-4.25-.79-.88-1.92-.43-2.79.14ZM47.99,50.64c-1.62,0-1.62-2.52,0-2.52s1.62,2.52,0,2.52ZM56.19,57.91c1.62,0,1.62,2.52,0,2.52s-1.62-2.52,0-2.52ZM60.47,67.02c-.21.23-.58.37-.89.37-.36,0-.61-.15-.89-.37.31.24-.08-.04-.16-.09-.11-.07-.23-.13-.34-.19,0,0-.03-.01-.05-.02-.01,0-.06-.01-.1-.04-.12-.04-.24-.08-.37-.12-.12-.03-.24-.06-.36-.08-.01,0-.11-.01-.17-.03-.01,0-.02,0-.03,0-.26-.02-.52-.03-.78-.02-.06,0-.12,0-.17.01-.01,0-.03.01-.05.02-.1.02-.31.05-.34.05-.13.03-.27.07-.4.11-.06.02-.13.05-.19.07-.14.07-.69.31-.68.4,0-.02.22-.19.03-.02-.05.05-.1.09-.15.14-.1.1-.19.2-.29.31-.46.53-1.31.43-1.78,0-.53-.48-.43-1.28,0-1.78.99-1.17,2.51-1.75,4.02-1.82,1.51-.08,2.96.41,4.14,1.33.55.43.41,1.33,0,1.78ZM62.35,49.38c-1.62,0-1.62-2.52,0-2.52s1.62,2.52,0,2.52Z"/><path class="cls-7" d="M94.46,96.87c-.8-.82-1.79-1.34-2.78-1.9-1.18-.67-2.36-1.34-3.54-2-2.52-1.41-5.05-2.79-7.59-4.17.3.72.6,1.44.89,2.17.45,1.14,1.22,2.53,1.22,3.79,0,1.62-2.51,1.62-2.52,0,0,.3-.01,0-.08-.25-.07-.26-.16-.51-.25-.76-.28-.79-.58-1.58-.89-2.36-.69-1.74-1.43-3.47-2.22-5.18,0-.02-.18-.37-.26-.54-.07-.05-.13-.09-.18-.12-.54-.32-1.08-.64-1.63-.96-.34-.2-.68-.4-1.02-.6-.25,1.54-.6,3.07-.97,4.57-1.78,7.23-4.04,14.37-6.43,21.43h7.74c1.03-1.37,2.17-3.01,3.18-4.46.63-.91,1.26-1.82,1.89-2.73.52-.76,1.28-1.57,1.65-2.42.12-.27.12-.56-.03-.82-.09-.15-.19-.22-.33-.32-.02-.02-.04-.03-.05-.04-.31-.14-.64-.25-.95-.37-2.12-.83-4.25-1.66-6.37-2.5-.63-.25-1.08-.84-.88-1.55.17-.6.91-1.13,1.55-.88,1.18.46,2.36.93,3.54,1.39,1.23.48,2.46.95,3.68,1.44,1.93.77,3.09,2.82,2.06,4.82-.49.95-1.22,1.82-1.82,2.7-.72,1.04-1.44,2.09-2.17,3.12-.61.87-1.22,1.74-1.84,2.6h22.57c-.5-2.22-1-4.44-1.71-6.6-.76-2.31-1.74-4.76-3.46-6.53Z"/><path class="cls-7" d="M41.45,95.08c-1.04-3.6-2.21-7.32-2.75-11.07-.36.22-.73.43-1.09.65-.53.31-1.06.63-1.59.94-.02.01-.08.05-.13.09,0,0,0,0,0,.01,0,.14-.18.39-.24.52-.81,1.74-1.55,3.51-2.26,5.3-.29.74-.58,1.48-.85,2.24-.09.27-.18.54-.27.82-.09.29-.07.36-.07.19,0,1.62-2.52,1.62-2.52,0,0-1.29.81-2.75,1.27-3.91.25-.63.51-1.25.77-1.88-1.06.43-2.13.86-3.18,1.31-3.09,1.31-6.17,2.68-9.14,4.26-1.11.59-2.25,1.09-2.98,1.95-.71.84-1.22,1.88-1.69,2.87-1.58,3.35-2.66,7.01-3.53,10.63h24.1c-.83-1.15-1.65-2.32-2.47-3.49-.69-.99-1.38-1.99-2.07-2.98-.6-.87-1.4-1.77-1.62-2.83-.41-1.98.91-3.37,2.62-4.03,2.32-.91,4.65-1.82,6.97-2.73.64-.25,1.38.28,1.55.88.2.7-.25,1.3-.88,1.55-1,.39-2.01.79-3.01,1.18-1.25.49-2.5.98-3.75,1.47-.16.06-.32.12-.48.19-.04.02-.08.03-.12.05.1-.05,0-.04-.1.07-.6.61-.26,1.12.17,1.74,1.21,1.76,2.42,3.52,3.65,5.27.59.85,1.19,1.69,1.8,2.53.25.35.56.77.84,1.15h7.34c0-.39,0-.79,0-1.19-.02-.06-.04-.12-.06-.17-1.48-4.5-2.91-9.01-4.23-13.56Z"/><path class="cls-8" d="M58.05,66.68s-.01,0-.02,0c.04.03.09.05.1.04-.03-.01-.05-.02-.08-.03,0,0,0,0,0,0Z"/><path class="cls-8" d="M56.11,66.45s.04,0,.05-.02c0,0,0,0-.01,0-.01,0-.02,0-.04.01Z"/><path class="cls-8" d="M57.11,66.44s.02,0,.03,0c-.01,0-.02,0-.03,0h0Z"/><path class="cls-9" d="M56.33,63.91c-1.5.08-3.02.65-4.02,1.82-.43.5-.53,1.29,0,1.78.47.43,1.32.53,1.78,0,.09-.11.18-.21.29-.31.05-.05.1-.09.15-.14.2-.18-.03,0-.03.02-.01-.08.53-.33.68-.4.06-.01.13-.05.19-.07.13-.04.26-.08.4-.11.03,0,.24-.03.34-.05-.08.01-.18,0,.02-.01,0,0,.01,0,.02,0,0,0,.02,0,.02,0,0,0,0,0-.01,0,.06,0,.12,0,.17-.01.26-.01.52,0,.78.02-.02,0-.04,0-.04-.01,0,0,.02,0,.04.01.02,0,.03,0,.05,0,.14.01.05.01-.02,0,.07.01.16.02.17.03.12.02.24.05.36.08.12.03.25.08.37.12,0,0-.02-.01-.02-.02,0,0,.03.02.05.03.07.02.08.03.08.03.02,0,.04.02.05.02.12.06.23.12.34.19.08.05.46.33.16.09.28.21.52.37.89.37.31,0,.68-.14.89-.37.41-.45.55-1.35,0-1.78-1.18-.92-2.63-1.41-4.14-1.33Z"/><path class="cls-9" d="M62.35,46.87c-1.62,0-1.62,2.52,0,2.52s1.62-2.52,0-2.52Z"/><path class="cls-9" d="M56.19,57.91c-1.62,0-1.62,2.52,0,2.52s1.62-2.52,0-2.52Z"/><path class="cls-9" d="M47.99,48.12c-1.62,0-1.62,2.52,0,2.52s1.62-2.52,0-2.52Z"/><path class="cls-9" d="M91.04,91.71c-2.48-1.4-4.98-2.78-7.48-4.15-1.41-.77-2.83-1.55-4.25-2.31-.12-.07-.24-.1-.36-.13,0-.02-.02-.04-.03-.06-.28-.62-.51-1.13-1.09-1.5-.51-.32-1.04-.62-1.56-.92-1-.59-2.01-1.19-3.01-1.78-.67-.4-1.39-.08-1.71.51-.02-.02-.06-.05-.1-.09,0,0,0,0,0,0,.03.03.06.05.1.09,0,0,0,.01,0,.02-.01-.01-.03-.03-.05-.05-.01-.02-.03-.04-.04-.05,0,0-.02-.02-.02-.02,0,0,.01.01.02.02-.02-.03-.04-.06-.06-.09-.06-.1-.13-.19-.18-.29-.07-.12-.13-.24-.19-.36-.03-.06-.06-.12-.09-.18-.02-.04-.03-.07-.05-.11-.05-.12-.03-.08.05.12-.07-.03-.15-.38-.17-.46-.07-.2-.13-.4-.19-.61-.14-.47-.25-.95-.35-1.43-.29-1.45-.43-2.7-.58-4.18-.04-.41-.23-.79-.54-1.02.76-.87,1.46-1.82,2.07-2.83,1.98-3.28,3.13-7.08,3.23-10.92,1.21-.4,2.39-1.12,3.2-2.06,1.3-1.5,1.71-3.62,1.63-5.56-.09-2.08-.81-4.37-2.5-5.72.09-.15.15-.33.17-.53.58-5.07-.14-10.46-2.14-15.14-1.99-4.67-4.84-9.25-9.5-11.65-3.16-1.63-6.72-2.1-10.24-1.92-.72.04-1.12.56-1.2,1.12h2.45-2.45c-.1.69.3,1.44,1.2,1.39,5.39-.28,10.33,1.28,13.77,5.58,3.34,4.16,5.28,9.63,5.65,14.91.13,1.81.15,3.66-.04,5.47-.45,0-.91.08-1.35.21-.11-.09-.23-.16-.38-.22-2.53-.92-4.33-4.05-5.59-6.35-1.47-2.7-2.64-5.55-3.65-8.45-.04-.12-.1-.23-.17-.32-.01-.12-.02-.25-.04-.37-.09-.67-.95-1.04-1.55-.88-.73.2-.97.87-.88,1.55.43,3.14-1.89,6.36-4.06,8.39-1.84,1.72-4.13,2.81-6.6,2.97,2.68-2.95,4.38-6.8,4.7-10.92.12-1.61-2.39-1.61-2.52,0-.55,7.08-5.89,12.9-12.93,13.9-.67.1-1.04.95-.88,1.55.08.29.25.48.44.63.68-.82,1.52-1.51,2.22-2.21-.7.7-1.53,1.39-2.22,2.21.3.22.7.31,1.1.25,2.94-.42,5.58-1.6,7.8-3.31.23.25.56.4.93.43,3.7.27,7.22-1.32,9.87-3.84.16-.15.32-.31.48-.48-.18.16-.33.38-.38.6-.07.32-.06.68.13.97.19.29.43.45.75.58,1.27.5,2.55.99,3.82,1.49.18.07.37.14.55.22.29.11.72.02.97-.13.26-.15.51-.45.58-.75.07-.32.06-.68-.13-.97-.19-.29-.43-.45-.75-.58-1.27-.5-2.55-.99-3.82-1.49-.18-.07-.37-.14-.55-.22-.29-.11-.72-.02-.97.13-.06.04-.13.08-.19.14,1.39-1.42,2.59-3.12,3.34-4.96.78,1.89,1.63,3.75,2.63,5.53,1.39,2.48,3.17,5.19,5.72,6.61-.09.93.84,1.91,1.83,1.26.86-.57,2-1.02,2.79-.14,1.02,1.14,1.3,2.76,1.24,4.25-.1,2.44-1.43,4.2-3.89,4.66-.53.1-.93.7-.92,1.21.13,6.24-2.93,12.83-8.24,16.27-2.49,1.61-5.26,2.27-8.01,2.15,0-1.2-.12-2.4-.71-3.48-.68-1.25-1.85-2.02-3.29-1.89-1.85.17-2.78,1.53-3.25,3.2-1.13-.66-2.2-1.45-3.17-2.36-2.83-2.66-4.96-6.27-5.4-10.18-.07-.65-.52-1.29-1.26-1.26-2.4.09-4.35-2.15-4.94-4.3-.6-2.17-.6-5.62,2.46-5.57.4,0,.7-.14.91-.37-.56-.56-1.12-1.12-1.68-1.68.56.56,1.12,1.12,1.68,1.68.61-.69.31-2.12-.91-2.14-.25,0-.51.01-.76.04,0-.15-.02-.31-.09-.48-1.59-4.07-2.15-8.53-.83-12.73,1.5-4.76,4.32-9.44,8.29-12.54,2.25-1.75,4.92-2.91,7.78-3.06,1.01-.05,1.39-1.07,1.13-1.79h-2.05,2.05c-.15-.43-.53-.76-1.13-.72-5.89.32-10.67,3.97-14.05,8.59-3.29,4.49-5.8,10.31-5.23,15.97.24,2.36.75,4.75,1.61,6.96.09.24.23.41.4.55-.76.46-1.39,1.11-1.77,1.94-.79,1.71-.75,3.71-.36,5.52.67,3.08,3.19,6.13,6.42,6.6.31,1.7.87,3.34,1.63,4.9.13,0,.26.01.38.01-.13,0-.26,0-.38-.01,1.31,2.68,3.24,5.08,5.57,6.97.05-.39.01-.75-.15-1.08.17.33.2.7.15,1.08,1.02.82,2.11,1.55,3.27,2.16-.08,1.05-.09,2.07-.13,2.86-.2,4.96.12,9.97-.66,14.89-.26,1.65-.5,3.29-.7,4.93-.36,0-.72,0-1.08,0-1.17-3.8-2.26-7.62-3.21-11.47-.24-.99-.49-2-.71-3.01,1.47-.35,2.25-2.8,2.61-4.02.41-1.43.69-2.89.94-4.36.08-.5-.07-1.05-.46-1.35-.4,1.41-1.44,2.99-.86,4.15-.58-1.17.45-2.74.86-4.15-.12-.09-.25-.16-.41-.19-.61-.14-1.43.18-1.55.88-.21,1.24-.44,2.48-.76,3.7-.11.44-.24.88-.38,1.31-.05.16-.11.31-.16.46-.03.08-.06.16-.09.24,0,0,0,.02,0,.02-.06.12-.12.24-.18.36,0-.07-.02-.14-.02-.2-.07-.92-1.02-1.6-1.89-1.09-.98.58-1.95,1.15-2.93,1.73-.55.32-1.11.63-1.65.98-.58.37-.81.88-1.09,1.5-.1.22-.2.45-.3.67-4.85,1.86-9.68,3.88-14.29,6.27-.13.07-.26.13-.39.2-.16-.08-.34-.13-.54-.13-.12,0-.23-.01-.35-.02-.02,0-.03,0-.05,0-.08-.02-.16-.03-.24-.05-.14-.04-.29-.08-.43-.13-.08-.03-.17-.06-.25-.09,0,0-.01,0-.02,0-.32-.15-.63-.31-.94-.5-.14-.09-.29-.18-.42-.28-.04-.03-.09-.08-.12-.11.02.02.04.04.09.09-.07-.07-.15-.12-.23-.19-.27-.23-.53-.49-.77-.76-.03-.03-.06-.08-.09-.12.02.02.03.06.06.11-.05-.08-.11-.15-.16-.22-.09-.13-.17-.26-.24-.4-.04-.07-.07-.14-.1-.2,0-.01,0-.02-.01-.03-.05-.14-.09-.28-.12-.43,0,0,0,0,0-.01,0-.07,0-.14,0-.21,0-.06,0-.12,0-.18,0-.01,0-.03,0-.04.14-.64-.19-1.39-.88-1.55-.27-.06-.56-.03-.82.07v2.79-2.79c-.35.14-.65.41-.73.81-.62,2.9,1.89,5.27,4.33,6.39-.09.07-.19.13-.27.21-.86.76-1.5,1.79-2.03,2.79-1.37,2.55-2.32,5.35-3.16,8.11-.49,1.62-.94,3.26-1.33,4.91h2.57c.87-3.62,1.95-7.28,3.53-10.63.47-.99.98-2.03,1.69-2.87.74-.86,1.87-1.36,2.98-1.95,2.96-1.58,6.04-2.95,9.14-4.26,1.06-.45,2.12-.88,3.18-1.31-.26.62-.52,1.25-.77,1.88-.46,1.17-1.27,2.62-1.27,3.91,0,1.62,2.51,1.62,2.52,0,0,.17-.03.1.07-.19.09-.27.17-.55.27-.82.26-.75.55-1.5.85-2.24.71-1.78,1.46-3.55,2.26-5.3.06-.14.25-.39.24-.52,0,0,0,0,0-.01.06-.04.11-.08.13-.09.53-.31,1.06-.63,1.59-.94.36-.22.73-.43,1.09-.65.54,3.75,1.71,7.47,2.75,11.07,1.31,4.55,2.74,9.06,4.23,13.56.02.06.04.12.06.17,0,.39,0,.79,0,1.19h2.51c0-3.94.23-7.9.86-11.78.34-2.12.73-4.23.9-6.37.18-2.17.21-4.36.23-6.54.02-2.18.03-4.37.15-6.54.08-1.43-.08-3.73.89-4.92.34-.42.84-.53,1.27-.02.95,1.1.58,3.09.53,4.41-.17,4.52-.17,9.04-.31,13.56-.04,1.35,1.67,1.58,2.34.63.52-.73,1.28-3.66,2.65-2.75.54.36.57,1.23.49,1.94-.1.36-.17.74-.18,1.13-.06,1.41,2.14,1.71,2.47.33.07-.29.12-.6.16-.92.04-.13.07-.24.09-.29.2-.38.65-.54,1.14-.12.57.48.43,1.59.19,2.51-.14.35-.25.71-.33,1.04-.36,1.59,1.88,2.18,2.43.67.11-.3.2-.62.29-.95.21-.52.54-.97,1.02-.79,1.8.65.76,3.71.52,5.01-.7,3.77-1.11,7.76-3.5,10.75h3.67c2.39-7.06,4.66-14.19,6.43-21.43.37-1.51.73-3.03.97-4.57.34.2.68.4,1.02.6.54.32,1.08.64,1.63.96.05.03.11.07.18.12.08.17.25.52.26.54.79,1.7,1.52,3.43,2.22,5.18.31.78.62,1.56.89,2.36.09.25.18.5.25.76.07.24.08.55.08.25,0,1.62,2.52,1.62,2.52,0,0-1.26-.77-2.66-1.22-3.79-.29-.73-.59-1.45-.89-2.17,2.53,1.38,5.07,2.76,7.59,4.17,1.18.66,2.36,1.33,3.54,2,.99.57,1.97,1.08,2.78,1.9,1.72,1.77,2.7,4.22,3.46,6.53.71,2.16,1.21,4.38,1.71,6.6h2.58c-1.06-4.77-2.06-9.93-5.08-13.87-1.59-2.07-3.85-3.17-6.08-4.42ZM17.59,92.06c.18.01.09.01,0,0h0ZM41.33,82.68s0,0-.02,0c-.09-.02-.31-.14.02,0ZM41.06,82.66s0,0,0-.01c.09.02.26.04.27.03.07.03.14.06.26.11-.17-.07-.34-.12-.52-.14ZM46.17,102.11s0,0,0-.01c0,0,0,0,0,0,0,0,0,0,0,.01ZM68.58,94.03c-.71-1.51-2.26-2.73-3.96-2.32-.25-1.03-.85-1.91-1.97-2.37-.83-.34-1.59-.36-2.25-.15-.29-.74-.79-1.37-1.56-1.77-1.12-.58-2.45-.48-3.47.19.05-2.89.1-5.79.19-8.68,4.35.12,8.4-1.52,11.62-4.34.21,2.19.48,4.48,1.32,6.51.25.59.53,1.14.91,1.65.33.44.7.84,1.04,1.27.15.19.37.3.6.34-.53,3.21-1.56,6.54-2.48,9.66ZM76.42,85.6s0,.02.01.04c-.02-.01-.03-.03-.01-.04Z"/><path class="cls-9" d="M35.3,68.62c.65-1.3,1.8-1.09,3.06-.93-.19-.34-.54-.6-1.05-.61-5.83-.09-11.07,4.17-13.47,9.28-1.05,2.23-1.11,4.57-1.76,6.91-.66,2.35-2.43,5.85-5.31,3.69-.89-.66-1.75.15-1.8,1.03.3.06.64.04,1.05-.1-.42.14-.76.15-1.05.1-.02.41.13.83.53,1.14,2,1.49,4.82,1.27,6.57-.49,1.52-1.53,2.26-3.77,2.71-5.83.4-1.85.49-3.67,1.33-5.4.97-1.97,2.35-3.72,4.04-5.13,2.02-1.69,4.51-2.73,7.16-2.69,1.11.02,1.46-1.16,1.05-1.91-1.26-.16-2.41-.37-3.06.93Z"/><path class="cls-8" d="M15.08,90.87s-.03-.03,0,0h0Z"/><path class="cls-8" d="M14.09,89.89c-.05-.08-.03-.05,0,0h0Z"/><path class="cls-9" d="M38.73,93.93c-2.32.91-4.65,1.82-6.97,2.73-1.71.67-3.03,2.05-2.62,4.03.22,1.06,1.02,1.96,1.62,2.83.69,1,1.37,1.99,2.07,2.98.81,1.17,1.63,2.33,2.47,3.49h3.09c-.28-.37-.59-.8-.84-1.15-.61-.84-1.2-1.68-1.8-2.53-1.23-1.75-2.44-3.51-3.65-5.27-.43-.62-.77-1.13-.17-1.74.11-.11.2-.12.1-.07.04-.02.08-.03.12-.05.16-.07.32-.13.48-.19,1.25-.49,2.5-.98,3.75-1.47,1-.39,2.01-.79,3.01-1.18.63-.25,1.08-.84.88-1.55-.17-.6-.91-1.13-1.55-.88Z"/><path class="cls-9" d="M80.84,96.76c-1.22-.49-2.45-.96-3.68-1.44-1.18-.46-2.36-.93-3.54-1.39-.64-.25-1.37.27-1.55.88-.2.71.25,1.3.88,1.55,2.12.83,4.25,1.66,6.37,2.5.31.12.64.23.95.37.01.01.03.02.05.04.13.1.24.17.33.32.15.26.15.55.03.82-.36.85-1.12,1.66-1.65,2.42-.63.91-1.26,1.82-1.89,2.73-1.01,1.45-2.15,3.09-3.18,4.46h3.1c.62-.86,1.23-1.73,1.84-2.6.73-1.04,1.45-2.08,2.17-3.12.6-.88,1.33-1.75,1.82-2.7,1.03-1.99-.12-4.04-2.06-4.82Z"/><path class="cls-6" d="M65.53,94.24c-.49-.18-.81.27-1.02.79-.08.33-.18.65-.29.95-.55,1.51-2.79.92-2.43-.67.08-.34.19-.69.33-1.04.24-.92.38-2.02-.19-2.51-.5-.42-.95-.26-1.14.12-.02.04-.06.16-.09.29-.04.32-.09.63-.16.92-.33,1.38-2.53,1.08-2.47-.33.02-.39.08-.77.18-1.13.08-.71.05-1.58-.49-1.94-1.37-.91-2.12,2.02-2.65,2.75-.68.94-2.38.71-2.34-.63.14-4.52.14-9.05.31-13.56.05-1.32.42-3.32-.53-4.41-.43-.5-.93-.4-1.27.02-.97,1.19-.81,3.49-.89,4.92-.12,2.18-.13,4.36-.15,6.54-.02,2.18-.06,4.36-.23,6.54-.17,2.15-.56,4.25-.9,6.37-.63,3.89-.86,7.84-.86,11.78h14.32c2.39-2.99,2.79-6.98,3.5-10.75.24-1.3,1.28-4.36-.52-5.01Z"/></g><path class="cls-2" d="M26.85,29.9c-1.83.45-3.56.55-5.35-.1-1.67-.61-3.44-1.61-4.24-3.28-1.76-3.67,2.88-6.23,6-5.56.8.17,1.64.58,2.04,1.33.46.85.1,1.82-.57,2.43-1.34,1.21-3.73,1.42-5.45,1.37-3.19-.1-7.03-1.48-7.42-5.14-.28-2.65,1.65-5.01,4.15-5.6,2.02-.47,5.57-.5,6.27,2.03.71,2.58-2.51,3.48-4.41,3.77-2.5.38-5.65.4-7.8-1.11s-2.93-4.66-1.67-6.94c.83-1.5,2.47-2.4,4.1-2.77s3.76-.53,5.41.1c1.25.48.71,2.51-.56,2.02-1.05-.4-2.26-.38-3.35-.26s-2.2.41-3.05,1.1c-1.26,1.01-1.3,2.67-.61,3.94.33.62.68.98,1.24,1.28.77.41,1.69.6,2.55.68,1.74.17,3.83.05,5.38-.61.17-.07.33-.17.5-.26.18-.1.1-.06.18-.12.13-.1.12-.13.12-.13,0,0-.05.17,0,.02-.07.24,0,.05-.01-.1.03.17-.12-.28-.03-.11-.04-.08-.07-.14-.24-.28-.13-.1-.49-.23-.8-.3-1.35-.31-3.32-.07-4.23.84-1.39,1.39-1.37,3.63.3,4.76,2.01,1.36,5.04,1.36,7.26.65.13-.04.29-.09.42-.15.1-.05.35-.28.44-.29l.05-.07c-.02.06-.02.11.01.17.05.11.04.11-.04.03-.07-.05-.15-.09-.23-.12-.64-.29-1.46-.24-2.12-.06-.92.25-2.29,1.01-2.06,2.15.27,1.32,1.93,2.15,3.05,2.56,1.46.53,2.74.47,4.24.1,1.31-.32,1.87,1.7.56,2.02h0Z"/></svg>