<?xml version="1.0" encoding="UTF-8"?><svg id="_デザインカンプ" xmlns="http://www.w3.org/2000/svg" xmlns:xlink="http://www.w3.org/1999/xlink" viewBox="0 0 252 110"><defs><style>.cls-1{fill:none;}.cls-2{fill:#004f80;}.cls-3{fill:#33c8e7;}.cls-4{clip-path:url(#clippath-1);}.cls-5{fill:#fff;}.cls-6{fill:#2cb9e7;}.cls-7{fill:#2e2e2e;}.cls-8{fill:#333;}.cls-9{clip-path:url(#clippath);}</style><clipPath id="clippath"><circle class="cls-1" cx="185.65" cy="55" r="55"/></clipPath><clipPath id="clippath-1"><circle class="cls-1" cx="55.65" cy="55" r="55"/></clipPath></defs><path class="cls-5" d="M225.77,40.6c-.45-.15-.97,0-1.45.08.29.56.07,1.37-.5,1.66-.07.04-.13.08-.2.12-.06.06-.13.12-.18.18-.06.1-.12.19-.17.3-.04.11-.07.22-.09.33,0,.11,0,.22,0,.34.02.07.04.15.06.22.03.07.07.13.12.2.05.06.11.11.17.16.08.05.17.1.26.15.11.04.23.07.34.09.11,0,.23,0,.34,0,.09-.02.19-.04.28-.07.05-.03.11-.06.16-.09.06-.05.11-.11.16-.16.05-.08.1-.16.14-.25.04-.11.07-.22.09-.34,0-.11,0-.23,0-.34-.02-.11-.05-.22-.09-.32-.05-.1-.11-.21-.18-.3.04.05.08.1.12.16-.22-.27-.35-.53-.36-.88-.02-.34.15-.66.37-.9.15-.16.38-.28.61-.33Z"/><path class="cls-5" d="M246.61,11.09c-1.17-.65-2.46-1.05-3.73-1.46-.86-.28-1.04-1.14-.76-1.78-.77-.26-1.54-.62-2.31-.99-.17.96-1.68,1.52-2.38.45-.97-1.48-3.09-2.06-4.77-1.79-1.52.24-3.3,1.35-3.36,3.04-.03.73-.57,1.22-1.27,1.27-1.28.09-7.17.61-5.27,3.12,1.31,1.73,3.28,3.19,2.12,5.62-.41.87-1.13,1.56-1.81,2.22-.51.49-1.22,1.04-1.47,1.72-.34.96.89,1.69,1.62,1.98,1.19.48,2.54.46,3.8.38,2.91-.18,5.84-.87,8.69.07,1.26.41,2.44,1.07,3.73,1.42,1.2.32,2.49.38,3.72.18,1.18-.19,2.44-.59,3.38-1.36.99-.81.85-1.4.07-2.23-1.32-1.41-2.74-3.03-1.57-5.02.53-.9,1.39-1.5,2.19-2.13.59-.46,1.47-1.03,1.57-1.84.17-1.29-1.24-2.32-2.21-2.86Z"/><path class="cls-3" d="M230.63,33.01s-.02-.02-.03-.03c0,0,.01.02.01.02.01.02.02.04.03.06,0,0,0,0,0,0,0-.01,0-.03-.01-.04,0,0,0,0-.01-.02Z"/><path class="cls-3" d="M230.52,32.91s0,0,0,0c0,0,0,0,0,0,0,0,.01,0,.02,0,0,0,0,0,0,0-.01,0-.02,0-.03,0Z"/><path class="cls-3" d="M230.45,32.87s-.06-.02-.05,0c.02,0,.04.02.06.02.01,0,.03.01.06.02,0,0,0,0,0,0-.02-.01-.04-.02-.06-.04Z"/><path class="cls-3" d="M230.51,32.9s0,0,0,0c0,0,0,0,0,0-.02-.02-.05-.04-.07-.07.03.03.04.04.06.07Z"/><path class="cls-3" d="M228.99,34.34s.04,0,.06,0c-.04-.01-.08-.02-.12-.03-.01,0,0,.02.06.02Z"/><path class="cls-3" d="M227.62,33.56s.01.01.02.02c0,0,0,0,0,0,0,0-.01-.01-.02-.01Z"/><path class="cls-3" d="M229.05,34.35s.03,0,.05.01c-.01,0-.02,0-.03-.01,0,0-.01,0-.02,0Z"/><path class="cls-3" d="M230.72,33.28s0,0,0,.01c0-.03,0-.06,0-.09,0,.03,0,.05,0,.08Z"/><path class="cls-3" d="M230.72,33.3s0,.07,0,.11c.01.04.03,0,0-.06,0-.02,0-.04-.01-.06Z"/><path class="cls-3" d="M227.64,33.58s.02.04.04.06c.07.1.04.03,0-.02-.02-.02-.03-.02-.04-.03Z"/><path class="cls-3" d="M230.56,32.92s.01,0,.02,0c0,0-.02,0-.03,0,0,0,0,0,0,0Z"/><path class="cls-3" d="M230.59,32.97s.02,0-.02-.04c0,.01.01.02.02.04Z"/><path class="cls-3" d="M230.56,32.92s0,0,0,.01c0,0,0,0,0,0,0,0,0-.01-.01-.02,0,0,0,0,0,0Z"/><polygon class="cls-3" points="230.59 32.97 230.6 32.98 230.59 32.97 230.59 32.97"/><path class="cls-3" d="M230.56,32.93s-.02,0-.03-.01c0,0,0,0,0,0,.02.01.03.03.05.04,0,0,0-.02-.01-.03,0,0,0,0,0,0Z"/><path class="cls-3" d="M227.53,33.39s.02.05.02.07c0-.02,0-.03,0-.05,0,0,0-.02-.01-.02Z"/><path class="cls-3" d="M227.43,33.04s.01-.04.02-.06c0-.02,0-.04,0-.05,0,.03-.01.07-.02.1,0,0,0,0,0,0Z"/><path class="cls-3" d="M227.77,32.35s.02-.02.03-.03t0,0s-.02.02-.03.03Z"/><path class="cls-3" d="M227.52,33.37s0,.01.01.02c0-.03,0-.05-.02-.08-.02-.02-.03,0,0,.06Z"/><path class="cls-3" d="M227.76,32.36c-.11.06-.06.04,0,0h0Z"/><path class="cls-3" d="M227.42,33.06s0-.01,0-.02c0,0,0,0,0,0,0,0,0,.02,0,.02Z"/><path class="cls-3" d="M227.44,33.13c0,.11,0,.07,0,0h0Z"/><path class="cls-3" d="M230.55,32.92s0,0,0,0c0,0,0-.01-.01-.02,0,0,0,0,0,.02Z"/><path class="cls-2" d="M243.56,7.19c-.7-.22-1.22.15-1.44.67.73.25,1.47.41,2.2.41-.73,0-1.47-.16-2.2-.41-.27.64-.09,1.51.76,1.78,1.27.41,2.56.8,3.73,1.46.97.54,2.38,1.57,2.21,2.86-.11.81-.98,1.38-1.57,1.84-.8.63-1.67,1.23-2.19,2.13-1.17,2,.25,3.62,1.57,5.02.78.83.91,1.42-.07,2.23-.93.76-2.2,1.17-3.38,1.36-1.23.2-2.52.14-3.72-.18-1.29-.35-2.46-1-3.73-1.42-2.86-.94-5.78-.24-8.69-.07-1.26.08-2.61.1-3.8-.38-.73-.29-1.96-1.02-1.62-1.98.25-.69.96-1.23,1.47-1.72.68-.66,1.39-1.35,1.81-2.22,1.16-2.42-.81-3.88-2.12-5.62-1.9-2.51,3.99-3.03,5.27-3.12.71-.05,1.24-.54,1.27-1.27.06-1.69,1.84-2.8,3.36-3.04,1.68-.26,3.8.31,4.77,1.79.7,1.07,2.21.51,2.38-.45-.19-.09-.38-.19-.58-.29.19.1.38.19.58.29.05-.26,0-.54-.19-.84-2.89-4.43-11.41-4-12.7,1.34-2.58.23-5.58.79-6.77,3.31-.53,1.13-.37,2.37.31,3.41.59.9,1.78,1.64,2.16,2.65.31.82-.64,1.57-1.16,2.08-.75.73-1.56,1.46-2.04,2.41-1.36,2.68.99,5.06,3.45,5.82,3.29,1.02,6.7-.21,10.04-.05,1.76.08,3.23.87,4.85,1.48,1.45.54,3.02.78,4.56.69,2.65-.15,6.28-1.23,7.33-3.98.49-1.3.05-2.52-.79-3.54-.45-.55-1.83-1.46-1.69-2.25.08-.46.71-.87,1.04-1.14.51-.42,1.06-.8,1.55-1.25,1.1-.99,1.77-2.29,1.55-3.8-.54-3.68-4.72-5.05-7.75-6.02Z"/><path class="cls-7" d="M230.72,33.28c0,.06,0,.11,0,.13,0-.04,0-.07,0-.11,0,0,0,0,0-.01Z"/><path class="cls-7" d="M228.93,34.32s.08.02.12.03c0,0,.01,0,.02,0-.07-.03-.12-.04-.14-.03Z"/><path class="cls-7" d="M230.53,32.91s.02.01.03.01c0,0,0,0,0,0,0,0,0,0,0-.01,0,0-.01,0-.02,0Z"/><path class="cls-2" d="M231.13,30.43c-.64-.17-1.41.22-1.56.89-.15.65.18,1.33.83,1.54,0-.02,0-.02.05,0,.02.01.04.02.06.04-.02-.02-.04-.03-.06-.07.02.02.05.05.07.07.01,0,.02,0,.03,0,0,0,0,0,0-.02,0,0,0,.01.01.02,0,0,.02,0,.03,0,0,0-.01,0-.02,0,0,0,0,.01.01.02.04.03.05.05.02.04,0,0,0,0,0,0,.01,0,.02.02.03.03,0,0,0,.01.01.02,0,.01,0,.03.01.04,0,0,0,0,0,0,0,0,0,.01.01.02.02.05.03.09.05.14,0,.02,0,.04.01.06,0-.03,0-.04,0-.08,0,.03,0,.06,0,.09,0,.02,0,.04.01.06.02.07,0,.1,0,.06,0,.03,0,.06,0,.09,0,0,0,.02,0,.03-.01.06-.03.12-.04.18,0,0,0,0,0,0-.02.03-.03.06-.05.09,0,0-.04.06-.06.08-.03.04-.07.07-.11.11-.02.02-.03.03-.05.04-.07.04-.14.09-.21.13-.04.02-.07.04-.11.06t0,0c-.17.05-.34.09-.51.13-.03,0-.06,0-.09,0-.12,0-.23,0-.35,0-.02,0-.05,0-.07,0,0,0,.02,0,.03.01-.01,0-.03,0-.05-.01-.02,0-.04,0-.06,0-.06,0-.07-.02-.06-.02-.04,0-.07,0-.1-.01-.1-.03-.21-.06-.31-.09-.03-.01-.06-.02-.1-.04,0,0,0,0,0,0-.17-.09-.33-.2-.49-.3-.02-.02-.05-.04-.07-.06-.03-.02-.12-.14-.18-.21.04.06.07.13,0,.02-.01-.02-.02-.04-.04-.06,0,0-.02-.02-.02-.02,0,0,.01,0,.02.01-.02-.02-.03-.05-.05-.07-.02-.03-.03-.06-.05-.09,0,.02,0,.03,0,.05,0-.02-.01-.05-.02-.07,0,0,0-.02-.01-.02-.04-.06-.03-.08,0-.06-.02-.05-.05-.11-.06-.15,0-.01,0-.03,0-.05,0-.03,0-.07,0-.1,0,0,0-.01,0-.02,0,.02,0,.03-.02.06,0,0,0,0,0,0,.01-.03.02-.07.02-.1,0,.01,0,.03,0,.05.03-.1.03-.12.02-.09,0-.05.02-.1.03-.15,0-.02.01-.04.02-.06.04-.07.09-.14.13-.21.03-.03.06-.06.09-.09,0,0,.02-.02.04-.03,0,0,0,0,0,0,.02-.01.05-.03.07-.04.03,0,.06-.02.09-.03,0,0,0,0,0,0,.64-.07,1.23-.57,1.2-1.26-.01-.25-.1-.51-.24-.72h-.68.68c-.23-.34-.59-.58-1.03-.55-1.44.09-2.63,1.18-2.9,2.6-.29,1.54.48,2.93,1.75,3.78,1.1.74,2.56.95,3.83.6,1.26-.34,2.44-1.33,2.65-2.67.25-1.53-.49-3.2-2.07-3.63ZM227.8,32.32s0,0,0,0c-.01.01-.02.02-.03.03.01-.01.02-.02.03-.03ZM227.76,32.36c-.06.04-.11.06,0,0h0ZM227.42,33.06s0-.02,0-.02c0,0,0,0,0,0,0,0,0,.01,0,.02ZM227.44,33.13c0,.07,0,.11,0,0h0Z"/><polygon class="cls-7" points="230.55 32.92 230.56 32.92 230.56 32.92 230.56 32.92 230.55 32.92"/><path class="cls-7" d="M227.64,33.58s.02.01.04.03c-.01-.02-.02-.03-.04-.03,0,0,0,0,0,0Z"/><path class="cls-7" d="M227.53,33.39s0,.02.01.02c0-.05-.02-.09-.04-.11.01.03.01.05.02.08Z"/><path class="cls-7" d="M230.6,32.98s0,0-.01-.01c0,0,0,0,0,0,0-.01-.02-.02-.02-.04,0,0,0,0,0,0,0,.01,0,.02.01.03-.02-.01-.03-.03-.05-.04,0,0,0,0,0,0,0,0,0,0,0,0,0,0,0,0,0,0,0,0,0,0,0,0,0,0,0,0,0,0,0,0,0,0,0,0-.02,0-.04-.02-.06-.02-.02,0-.04-.02-.06-.02,0,.02.05.04.13.05.02.02.04.04.06.05.03.05.05.09.07.1-.01-.02-.02-.04-.03-.06,0,0,0-.02-.01-.02Z"/><path class="cls-2" d="M226.95,40.93c-.2-.24-.6-.37-.9-.37-.09,0-.19.02-.29.04.29.09.55.31.76.72-.21-.42-.47-.63-.76-.72-.23.06-.46.17-.61.33-.22.24-.39.56-.37.9.02.35.14.61.36.88-.04-.05-.08-.1-.12-.16.07.09.12.2.18.3.04.11.06.21.09.32,0,.11,0,.23,0,.34-.02.11-.05.23-.09.34-.04.08-.09.17-.14.25-.05.06-.11.11-.16.16-.05.03-.11.06-.16.09-.09.03-.18.05-.28.07-.11,0-.23,0-.34,0-.12-.02-.23-.05-.34-.09-.09-.04-.18-.09-.26-.15-.06-.05-.11-.1-.17-.16-.04-.06-.08-.13-.12-.2-.02-.07-.04-.15-.06-.22,0-.11,0-.22,0-.34.02-.11.05-.22.09-.33.05-.1.11-.2.17-.3.06-.06.12-.13.18-.18.07-.04.13-.09.2-.12.57-.29.79-1.1.5-1.66-.45.08-.87.11-1.18-.2.31.31.73.28,1.18.2-.01-.03-.02-.06-.04-.08-.39-.61-1.1-.78-1.74-.46-2.1,1.07-2.63,4.3-.82,5.88.94.82,2.16,1.13,3.38.89,1.2-.24,2.09-1.16,2.52-2.27.24-.63.26-1.3.16-1.96-.1-.66-.41-1.23-.83-1.74Z"/><circle class="cls-5" cx="185.65" cy="55" r="55"/><g class="cls-9"><path class="cls-3" d="M187.54,93.68s-.04,0-.06,0c.02,0,.04,0,.06,0Z"/><path class="cls-5" d="M191.35,78.51c-3.91,1.46-8.38,1.36-12.28-.09-2.62-.97-5-2.48-6.97-4.43-.06,1.25-.19,2.5-.39,3.73.24.15.47.3.71.45,1.48.93,2.97,1.86,4.45,2.79.75.47,1.65.89,2.21,1.58,2.25,2.77,4.34,5.66,6.61,8.42,1.3-1.85,2.6-3.7,3.88-5.56.56-.81,1.12-1.63,1.67-2.45.25-.37.5-.84.85-1.12.6-.48,1.52-.76,2.21-1.11.58-.29,1.15-.6,1.72-.91.93-.51,1.84-1.06,2.72-1.66.08-.06.16-.12.24-.18-.19-1.5-.3-3.01-.36-4.53-1.98,2.23-4.44,4.01-7.27,5.07Z"/><path class="cls-5" d="M206.13,48.99c-.4-.06-.81,0-1.2.1-.17.05-.33.11-.5.17-1.19.53-2.23-.83-1.75-1.73-.11-.32-.21-.64-.31-.96-.13.02-.27.01-.4-.03-.11-.02-.22-.04-.33-.06-.45-.08-.9-.15-1.35-.23-.09,2.88-2.23,5.65-5.03,6.39-2.7.71-5.36-.68-6.86-2.91-.45-.67-.79-1.45-.97-2.25h-3.14c-.59,2.43-2.61,4.52-5.03,5.15-2.8.73-5.59-.63-7.2-2.93-.68-.97-1.1-2.16-1.14-3.34-.9.1-1.79.19-2.69.29-.12.33-.23.67-.36,1-.2.5-.58.84-1.06.91-.36.36-.89.51-1.45.16-1.13-.71-2.3-.2-2.82.96-.55,1.23-.48,2.79-.2,4.08.31,1.39.85,2.48,2.14,3.19.84.46,1.81.76,2.77.89.39.06.83.5.89.89.62,3.98,1.59,7.99,3.92,11.34,2.23,3.2,5.66,5.45,9.39,6.4v-1.49c0-.34.14-.65.37-.9.23-.25.57-.36.9-.37.32-.01.68.15.9.37.23.23.37.57.37.9v1.94c.17.02.34.01.51.02v-1.97c0-.34.14-.65.37-.9.23-.25.57-.36.9-.37.32-.01.68.15.9.37.23.23.37.57.37.9v1.92c.17-.02.34-.05.51-.07v-1.85c0-.34.14-.65.37-.9.23-.25.57-.36.9-.37.32-.01.68.15.9.37s.37.57.37.9v1.26c.73-.24,1.44-.52,2.13-.89,6.08-3.2,8.71-9.64,9.73-16.09.07-.42.5-.78.89-.89,1.08-.3,2.45-.49,3.42-1.06,1.33-.79,1.94-3.1,1.99-4.53.05-1.33-.55-3.56-2.11-3.8ZM186.34,55.6c1.64,0,1.64,2.54,0,2.54s-1.64-2.54,0-2.54ZM189.97,67.83c-.62.2-1.28-.19-1.51-.76-.03-.02-.04-.04-.05-.06-.03-.03-.05-.05-.07-.08-.06-.04-.13-.07-.19-.11-.02-.01-.07-.03-.11-.05,0,0-.02,0-.03-.01-.32-.11-.65-.19-.98-.24,0,0,0,0-.01,0-.08,0-.15-.02-.23-.02-.19-.02-.37-.02-.56-.03-.36,0-.72.04-1.08.06.08,0,.13,0,.16,0,.02,0,.04,0,.04,0,0,0-.02,0-.04,0-.05,0-.14,0-.18.02-.09.02-.19.04-.28.06-.16.04-.31.08-.47.13,0,0-.06.02-.11.04-.03.02-.07.04-.11.04-.12.06-.23.13-.34.2-.03.03-.07.06-.1.1-.03.05-.06.1-.08.15-.31.64-1.17.76-1.74.46-.64-.34-.75-1.14-.46-1.74.36-.73,1.07-1.21,1.8-1.52,1.39-.58,2.95-.62,4.42-.39,1.3.2,2.8.83,3.2,2.21.2.68-.24,1.35-.89,1.56Z"/><path class="cls-3" d="M180.08,38.3c.05-.01.1-.02.15-.04,0,0,0,0-.01,0-.09,0-.19.04-.14.04Z"/><path class="cls-5" d="M197.72,45.81c-.01-.06-.02-.13-.04-.19-.02-.09-.05-.18-.08-.26-.02-.03-.09-.18-.09-.2-.05-.09-.1-.17-.16-.25-.02-.02-.04-.05-.05-.06-.09-.1-.19-.19-.29-.29-.02-.02-.06-.05-.1-.07-.71-.49-1.56-.72-2.38-.79-1.03-.08-1.86-.04-2.79.25-.42.13-.6.21-1.03.48-.04.02-.05.03-.07.04-.08.06-.16.13-.23.2-.06.05-.11.11-.16.17-.02.02-.03.03-.04.04,0,0,0,0-.01.02-.08.11-.14.23-.21.35,0,0-.01.03-.02.05-.06.17-.11.35-.14.53,0,.03,0,.06,0,.07,0,.13-.01.26,0,.4,0,.07,0,.13.01.2,0,.03.02.15.02.18.17.84.52,1.56,1.03,2.14.6.68,1.23,1.14,2.03,1.36.77.22,1.62.14,2.31-.21.77-.39,1.39-.95,1.83-1.64.45-.71.7-1.46.71-2.17,0-.04-.04-.41-.02-.37ZM193.97,47.23c-1.64,0-1.64-2.54,0-2.54s1.64,2.54,0,2.54Z"/><path class="cls-3" d="M165.66,18.59s.01,0,.02.01c0,0,0,0,0,0,0,0,0,0-.01-.01,0,0,0,0,0,0Z"/><path class="cls-3" d="M180.45,38.27s.05,0,.07.01c-.02,0-.06-.01-.1-.02,0,0,.02,0,.03,0Z"/><path class="cls-3" d="M180.24,38.26s.04-.01.07-.02c-.02,0-.05.01-.07.02,0,0,0,0,0,0Z"/><path class="cls-3" d="M180.39,38.26s0,0,.01,0c0,0,.01,0,.02,0-.04,0-.09-.02-.13-.03.04.01.07.02.1.03Z"/><path class="cls-3" d="M165.7,18.62s-.02-.01-.02-.02c-.03,0-.02.01.02.02Z"/><path class="cls-3" d="M179.12,38.59c.1-.04.06-.03,0,0h0Z"/><polygon class="cls-3" points="165.7 18.62 165.71 18.63 165.7 18.62 165.7 18.62"/><path class="cls-3" d="M165.66,18.59c-.05-.04-.1-.09-.15-.12,0,.01.08.1.15.12Z"/><path class="cls-3" d="M188.34,66.94s.05.06.06.07c0-.01-.01-.02-.01-.03-.02-.01-.03-.03-.05-.04Z"/><path class="cls-3" d="M188.39,66.98s.04.04.05.05c0,0,0,0,0,0-.03-.05-.04-.06-.05-.04Z"/><path class="cls-3" d="M188.44,67.03s0,0,0,0c0,0,0,0,0,0Z"/><path class="cls-3" d="M184.15,66.81s.02-.01.03-.02c-.03.01-.05.02-.05.02,0,0,.02,0,.03,0Z"/><path class="cls-3" d="M184.18,66.79s.05-.02.08-.03c.03-.02.04-.03-.07.02,0,0,0,0-.01,0Z"/><path class="cls-3" d="M188.48,67.08s.03.03.06.04c-.01,0-.03-.02-.06-.04,0,0,0,0,0,0Z"/><path class="cls-3" d="M188.45,67.05s0,.01,0,.02c0,0,.01,0,.02.01,0,0,0,0,0,0,0,0-.01-.01-.02-.02Z"/><path class="cls-3" d="M188.4,67s0,0,0,0c.02.02.03.03.05.05,0,0,0-.01,0-.02,0,0-.02,0-.04-.03Z"/><path class="cls-3" d="M191.3,38.73s.04-.01.08-.02c-.03.01-.07.02-.1.02,0,0,.01,0,.02,0Z"/><path class="cls-3" d="M191.16,38.75s.03,0,.05,0c.02,0,.05-.01.07-.02,0,0,0,0,0,0-.05,0-.09.01-.12.02Z"/><path class="cls-3" d="M201.08,22.14s-.02-.05,0,0h0Z"/><path class="cls-8" d="M205.1,25.96c-.65-1.49-1.59-2.53-3.11-2.87-.53-.12-.81-.47-.88-.88-.03-.06-.06-.13-.07-.16-.15-.32-.31-.63-.49-.93-.55-.95-1.21-1.81-1.98-2.6-2.01-2.04-4.88-3.57-7.78-3.75-2.58-.16-5.29.46-7.81.91-2.71.49-5.41,1.04-8.09,1.65-1.37.32-3,.61-4.48.38.08.07.17.14.25.2.63.51.42,1.65-.26,2-.85.44-2,.97-3.16,1.2.12.11.22.2.03.15,1.02.29,1.29,1.8.3,2.32-1.85.97-2.44,3.88-2.87,5.72-.47,2.03-.9,4.23-.84,6.33.1,3.41,1.03,6.89,1.93,10.19.02,0,.03,0,.05.01.39-1.06.75-2.14,1.08-3.22.67-2.19,1.34-4.47,1.47-6.77.06-1.1-.25-2.01.64-2.83.74-.67,1.5-1.32,2.26-1.97,2.68-2.33,5.37-4.65,8.06-6.97,1.13-.97,2.6.23,2,1.54-.57,1.23-1.13,2.46-1.7,3.68,3.07-.83,6.18-1.98,8.69-3.81,1.17-.86,2.6,1.05,1.54,2-.55.49-1.18,1.02-1.72,1.6,1.57.02,3.27-.49,4.65-.88,1.46-.42,2.91-.9,4.31-1.49.55-.23,1.13.18,1.44.58,1.15,1.52,1.97,3.37,2.55,5.17.24.77.43,1.55.56,2.35.05.3.08.61.12.91.01.07.04.2.05.24.17.7.35,1.4.55,2.09.75,2.6,1.58,5.18,2.43,7.76.02-.01.04-.02.07-.03.15-.71.29-1.42.41-2.13.7-3.96,1.14-8.03.93-12.06-.1-1.9-.34-3.9-1.1-5.65Z"/><path class="cls-5" d="M198.73,33.48c-.41-1.38-1.01-2.75-1.79-3.99-1.29.5-2.61.94-3.94,1.3-2.24.6-5.13,1.34-7.38.42-.47-.19-.77-.52-.87-.91-2.3.92-4.73,1.58-7.03,2.11-1.14.26-1.9-.86-1.44-1.87.12-.26.24-.52.36-.78-1.92,1.66-3.83,3.32-5.74,4.99.14,2.56-.56,5.18-1.26,7.61-.16.56-.34,1.11-.52,1.67.8-.09,1.59-.17,2.39-.26.02,0,.03,0,.05,0,.19-.31.42-.6.7-.87,1.93-1.82,5.03-2.04,7.51-1.58,2.09.39,3.92,1.65,4.49,3.63h3.15c.19-.76.57-1.47,1.18-2.07,1.82-1.77,4.76-2.01,7.13-1.57,1.56.29,2.94,1.1,3.76,2.32,0,0,0,0,.01,0,.17-.04.34-.03.51.02.11.02.22.04.33.06.38.06.76.13,1.15.19-.53-1.65-1.04-3.3-1.53-4.96-.52-1.8-.7-3.67-1.24-5.46ZM182.01,37.38c-.15.65-.86,1.02-1.49.9.04.01.03.02-.14-.02-.05,0-.1,0-.15,0-.09.02-.14.03-.16.04-.21.05-.43.1-.64.17-.12.04-.23.09-.34.13-.04.01-.07.03-.1.04-.08.04-.15.07-.23.11-.3.14-.59.3-.88.46-.72.4-1.42.85-2.09,1.34-.57.42-1.4.07-1.74-.46-.17-.27-.21-.68-.13-.98.09-.34.31-.56.58-.76.17-.13.35-.25.53-.37.81-.55,1.66-1.06,2.55-1.47,1.08-.5,2.33-1,3.53-.69.69.18,1.04.9.89,1.56ZM197.33,40.09c-.31.59-1.18.82-1.74.46-.62-.41-1.28-.78-1.96-1.1-.14-.07-.28-.13-.42-.2-.07-.03-.13-.06-.2-.09.02,0,.03.01.04.02.1.04.29.14,0,0,0,0-.02,0-.03-.01-.28-.11-.57-.22-.87-.3-.13-.04-.26-.07-.39-.1-.05-.01-.1-.02-.15-.03-.11,0-.21-.01-.32,0-.15.04-.18.04-.14.02-.67.15-1.3-.25-1.51-.9-.21-.65.24-1.39.89-1.56,1.42-.37,2.96.27,4.22.87.73.35,1.45.74,2.12,1.18.59.39.79,1.1.46,1.74Z"/><path class="cls-5" d="M181.84,45.59s-.07-.21-.08-.23c-.03-.05-.05-.1-.08-.15-.18-.32-.42-.55-.65-.71-.78-.52-1.73-.75-2.7-.82-1-.06-1.9-.01-2.83.26-.46.13-.67.22-1.09.48-.06.04-.12.08-.17.12-.03.02-.11.09-.13.11-.04.04-.27.29-.28.28-.06.09-.12.18-.17.27,0-.01-.08.17-.1.21-.02.06-.07.24-.1.37,0,.04-.02.15-.02.18,0,.11,0,.23,0,.34,0,.07,0,.14.01.22,0,.03.02.16.03.19.19.82.56,1.54,1.14,2.16,1.2,1.27,2.95,1.81,4.52,1.14.81-.35,1.53-.97,1.99-1.64.25-.36.49-.82.58-1.12.15-.5.19-.64.19-1.08,0-.06-.02-.28-.02-.35-.02-.06-.06-.25-.05-.23ZM177.89,47.23c-1.64,0-1.64-2.54,0-2.54s1.64,2.54,0,2.54Z"/><path class="cls-5" d="M224.44,96.04c-2.33-1.31-4.81-2.38-7.24-3.49-3.36-1.54-6.73-3.04-10.12-4.5-2.96,1.82-5.92,3.64-8.87,5.46-.54.34-1.45.16-1.74-.46-.96-2.03-1.91-4.07-2.87-6.1-.69-1.47,1.5-2.76,2.2-1.28.77,1.64,1.54,3.28,2.31,4.92,2.37-1.46,4.74-2.92,7.11-4.38-1.23-2.35-2.47-4.73-3.46-7.2-.46.39-.94.77-1.43,1.12-.78.55-1.59,1.06-2.41,1.53-.57.33-1.15.64-1.73.95-.61.32-1.29.8-1.96.98,0,0-.35.15-.43.11-.18.19-.32.47-.46.68-.55.81-1.11,1.62-1.66,2.43-.96,1.4-1.94,2.79-2.92,4.18.05-.01.11-.02.16-.03.23-.05.46-.11.69-.18.12-.04.25-.08.37-.13.06-.02.11-.05.17-.07-.01,0-.02,0-.03,0-.1.04-.26.07,0,0,0,0,0,0,.01,0,.63-.29,1.21-.66,1.77-1.06.58-.42,1.4-.08,1.74.46.4.62.08,1.35-.46,1.74-1.06.76-2.25,1.4-3.53,1.69-.5.11-1.02.17-1.53.23-.18.02-.36.03-.54.05-.05,0-.1.01-.14.02,0,0,0,0-.02,0-.03,0-.06.01-.09.02-.16.03-.31.03-.46.01.07.16.11.32.11.49.06,2.15-.06,4.3,0,6.45.02.71-.6,1.24-1.27,1.27-.7.03-1.25-.61-1.27-1.27-.06-2.15.06-4.3,0-6.45,0-.19.04-.36.11-.52-.05-.08-.09-.16-.12-.25-1.69-2-3.3-4.06-4.9-6.13-.62-.8-1.24-1.61-1.85-2.42-.17-.22-.52-.55-.71-.85-.11-.07-.22-.15-.33-.21-.55-.34-1.1-.69-1.65-1.03-1.9-1.19-3.8-2.38-5.71-3.58-.93,2.37-1.86,4.73-2.78,7.1,1.3,1.88,2.6,3.77,3.89,5.65,1.15-2.64,2.3-5.28,3.46-7.92.65-1.5,2.84-.2,2.2,1.28-.49,1.12-.98,2.24-1.47,3.36.13.09.25.2.34.33,0,0,0,0,0,0,.05.04.08.09.13.14.07.07.15.14.23.21.03.02.05.04.08.05.1.07.2.13.31.19.11.06.22.12.33.17.04.02.08.04.12.05,0,0,0,0,.02,0,.24.09.48.18.73.25,1.14.35,2.31.58,3.45.91.68.19,1.04.89.89,1.56-.15.67-.92,1.07-1.56.89-2.05-.58-4.5-.85-6.13-2.3-.59,1.35-1.18,2.7-1.77,4.05-.41.95-1.72.7-2.2,0-.79-1.15-1.58-2.3-2.38-3.45-.95-1.37-1.89-2.74-2.84-4.12-.06-.08-.11-.16-.16-.24-2.49,1.15-5.06,2.14-7.63,3.1-2.88,1.08-5.77,2.11-8.64,3.24-2.27.89-4.86,1.75-6.84,3.21-2.09,1.54-3.57,3.97-4.74,6.24-1.11,2.14-2,4.44-2.47,6.82h99.48c-.43-2.62-1.14-5.2-2.44-7.52-1.51-2.72-3.75-4.91-6.46-6.44Z"/><path class="cls-5" d="M225.77,40.6c-.45-.15-.97,0-1.45.08.29.56.07,1.37-.5,1.66-.07.04-.13.08-.2.12-.06.06-.13.12-.18.18-.06.1-.12.19-.17.3-.04.11-.07.22-.09.33,0,.11,0,.22,0,.34.02.07.04.15.06.22.03.07.07.13.12.2.05.06.11.11.17.16.08.05.17.1.26.15.11.04.23.07.34.09.11,0,.23,0,.34,0,.09-.02.19-.04.28-.07.05-.03.11-.06.16-.09.06-.05.11-.11.16-.16.05-.08.1-.16.14-.25.04-.11.07-.22.09-.34,0-.11,0-.23,0-.34-.02-.11-.05-.22-.09-.32-.05-.1-.11-.21-.18-.3.04.05.08.1.12.16-.22-.27-.35-.53-.36-.88-.02-.34.15-.66.37-.9.15-.16.38-.28.61-.33Z"/><path class="cls-5" d="M246.61,11.09c-1.17-.65-2.46-1.05-3.73-1.46-.86-.28-1.04-1.14-.76-1.78-.77-.26-1.54-.62-2.31-.99-.17.96-1.68,1.52-2.38.45-.97-1.48-3.09-2.06-4.77-1.79-1.52.24-3.3,1.35-3.36,3.04-.03.73-.57,1.22-1.27,1.27-1.28.09-7.17.61-5.27,3.12,1.31,1.73,3.28,3.19,2.12,5.62-.41.87-1.13,1.56-1.81,2.22-.51.49-1.22,1.04-1.47,1.72-.34.96.89,1.69,1.62,1.98,1.19.48,2.54.46,3.8.38,2.91-.18,5.84-.87,8.69.07,1.26.41,2.44,1.07,3.73,1.42,1.2.32,2.49.38,3.72.18,1.18-.19,2.44-.59,3.38-1.36.99-.81.85-1.4.07-2.23-1.32-1.41-2.74-3.03-1.57-5.02.53-.9,1.39-1.5,2.19-2.13.59-.46,1.47-1.03,1.57-1.84.17-1.29-1.24-2.32-2.21-2.86Z"/><path class="cls-3" d="M230.63,33.01s-.02-.02-.03-.03c0,0,.01.02.01.02.01.02.02.04.03.06,0,0,0,0,0,0,0-.01,0-.03-.01-.04,0,0,0,0-.01-.02Z"/><path class="cls-3" d="M230.52,32.91s0,0,0,0c0,0,0,0,0,0,0,0,.01,0,.02,0,0,0,0,0,0,0-.01,0-.02,0-.03,0Z"/><path class="cls-3" d="M230.45,32.87s-.06-.02-.05,0c.02,0,.04.02.06.02.01,0,.03.01.06.02,0,0,0,0,0,0-.02-.01-.04-.02-.06-.04Z"/><path class="cls-3" d="M230.51,32.9s0,0,0,0c0,0,0,0,0,0-.02-.02-.05-.04-.07-.07.03.03.04.04.06.07Z"/><path class="cls-3" d="M228.99,34.34s.04,0,.06,0c-.04-.01-.08-.02-.12-.03-.01,0,0,.02.06.02Z"/><path class="cls-3" d="M227.62,33.56s.01.01.02.02c0,0,0,0,0,0,0,0-.01-.01-.02-.01Z"/><path class="cls-3" d="M229.05,34.35s.03,0,.05.01c-.01,0-.02,0-.03-.01,0,0-.01,0-.02,0Z"/><path class="cls-3" d="M230.72,33.28s0,0,0,.01c0-.03,0-.06,0-.09,0,.03,0,.05,0,.08Z"/><path class="cls-3" d="M230.72,33.3s0,.07,0,.11c.01.04.03,0,0-.06,0-.02,0-.04-.01-.06Z"/><path class="cls-3" d="M227.64,33.58s.02.04.04.06c.07.1.04.03,0-.02-.02-.02-.03-.02-.04-.03Z"/><path class="cls-3" d="M230.56,32.92s.01,0,.02,0c0,0-.02,0-.03,0,0,0,0,0,0,0Z"/><path class="cls-3" d="M230.59,32.97s.02,0-.02-.04c0,.01.01.02.02.04Z"/><path class="cls-3" d="M230.56,32.92s0,0,0,.01c0,0,0,0,0,0,0,0,0-.01-.01-.02,0,0,0,0,0,0Z"/><polygon class="cls-3" points="230.59 32.97 230.6 32.98 230.59 32.97 230.59 32.97"/><path class="cls-3" d="M230.56,32.93s-.02,0-.03-.01c0,0,0,0,0,0,.02.01.03.03.05.04,0,0,0-.02-.01-.03,0,0,0,0,0,0Z"/><path class="cls-3" d="M227.53,33.39s.02.05.02.07c0-.02,0-.03,0-.05,0,0,0-.02-.01-.02Z"/><path class="cls-3" d="M227.43,33.04s.01-.04.02-.06c0-.02,0-.04,0-.05,0,.03-.01.07-.02.1,0,0,0,0,0,0Z"/><path class="cls-3" d="M227.77,32.35s.02-.02.03-.03t0,0s-.02.02-.03.03Z"/><path class="cls-3" d="M227.52,33.37s0,.01.01.02c0-.03,0-.05-.02-.08-.02-.02-.03,0,0,.06Z"/><path class="cls-3" d="M227.76,32.36c-.11.06-.06.04,0,0h0Z"/><path class="cls-3" d="M227.42,33.06s0-.01,0-.02c0,0,0,0,0,0,0,0,0,.02,0,.02Z"/><path class="cls-3" d="M227.44,33.13c0,.11,0,.07,0,0h0Z"/><path class="cls-3" d="M230.55,32.92s0,0,0,0c0,0,0-.01-.01-.02,0,0,0,0,0,.02Z"/><path class="cls-2" d="M243.56,7.19c-.7-.22-1.22.15-1.44.67.73.25,1.47.41,2.2.41-.73,0-1.47-.16-2.2-.41-.27.64-.09,1.51.76,1.78,1.27.41,2.56.8,3.73,1.46.97.54,2.38,1.57,2.21,2.86-.11.81-.98,1.38-1.57,1.84-.8.63-1.67,1.23-2.19,2.13-1.17,2,.25,3.62,1.57,5.02.78.83.91,1.42-.07,2.23-.93.76-2.2,1.17-3.38,1.36-1.23.2-2.52.14-3.72-.18-1.29-.35-2.46-1-3.73-1.42-2.86-.94-5.78-.24-8.69-.07-1.26.08-2.61.1-3.8-.38-.73-.29-1.96-1.02-1.62-1.98.25-.69.96-1.23,1.47-1.72.68-.66,1.39-1.35,1.81-2.22,1.16-2.42-.81-3.88-2.12-5.62-1.9-2.51,3.99-3.03,5.27-3.12.71-.05,1.24-.54,1.27-1.27.06-1.69,1.84-2.8,3.36-3.04,1.68-.26,3.8.31,4.77,1.79.7,1.07,2.21.51,2.38-.45-.19-.09-.38-.19-.58-.29.19.1.38.19.58.29.05-.26,0-.54-.19-.84-2.89-4.43-11.41-4-12.7,1.34-2.58.23-5.58.79-6.77,3.31-.53,1.13-.37,2.37.31,3.41.59.9,1.78,1.64,2.16,2.65.31.82-.64,1.57-1.16,2.08-.75.73-1.56,1.46-2.04,2.41-1.36,2.68.99,5.06,3.45,5.82,3.29,1.02,6.7-.21,10.04-.05,1.76.08,3.23.87,4.85,1.48,1.45.54,3.02.78,4.56.69,2.65-.15,6.28-1.23,7.33-3.98.49-1.3.05-2.52-.79-3.54-.45-.55-1.83-1.46-1.69-2.25.08-.46.71-.87,1.04-1.14.51-.42,1.06-.8,1.55-1.25,1.1-.99,1.77-2.29,1.55-3.8-.54-3.68-4.72-5.05-7.75-6.02Z"/><path class="cls-7" d="M230.72,33.28c0,.06,0,.11,0,.13,0-.04,0-.07,0-.11,0,0,0,0,0-.01Z"/><path class="cls-7" d="M228.93,34.32s.08.02.12.03c0,0,.01,0,.02,0-.07-.03-.12-.04-.14-.03Z"/><path class="cls-7" d="M230.53,32.91s.02.01.03.01c0,0,0,0,0,0,0,0,0,0,0-.01,0,0-.01,0-.02,0Z"/><path class="cls-2" d="M231.13,30.43c-.64-.17-1.41.22-1.56.89-.15.65.18,1.33.83,1.54,0-.02,0-.02.05,0,.02.01.04.02.06.04-.02-.02-.04-.03-.06-.07.02.02.05.05.07.07.01,0,.02,0,.03,0,0,0,0,0,0-.02,0,0,0,.01.01.02,0,0,.02,0,.03,0,0,0-.01,0-.02,0,0,0,0,.01.01.02.04.03.05.05.02.04,0,0,0,0,0,0,.01,0,.02.02.03.03,0,0,0,.01.01.02,0,.01,0,.03.01.04,0,0,0,0,0,0,0,0,0,.01.01.02.02.05.03.09.05.14,0,.02,0,.04.01.06,0-.03,0-.04,0-.08,0,.03,0,.06,0,.09,0,.02,0,.04.01.06.02.07,0,.1,0,.06,0,.03,0,.06,0,.09,0,0,0,.02,0,.03-.01.06-.03.12-.04.18,0,0,0,0,0,0-.02.03-.03.06-.05.09,0,0-.04.06-.06.08-.03.04-.07.07-.11.11-.02.02-.03.03-.05.04-.07.04-.14.09-.21.13-.04.02-.07.04-.11.06t0,0c-.17.05-.34.09-.51.13-.03,0-.06,0-.09,0-.12,0-.23,0-.35,0-.02,0-.05,0-.07,0,0,0,.02,0,.03.01-.01,0-.03,0-.05-.01-.02,0-.04,0-.06,0-.06,0-.07-.02-.06-.02-.04,0-.07,0-.1-.01-.1-.03-.21-.06-.31-.09-.03-.01-.06-.02-.1-.04,0,0,0,0,0,0-.17-.09-.33-.2-.49-.3-.02-.02-.05-.04-.07-.06-.03-.02-.12-.14-.18-.21.04.06.07.13,0,.02-.01-.02-.02-.04-.04-.06,0,0-.02-.02-.02-.02,0,0,.01,0,.02.01-.02-.02-.03-.05-.05-.07-.02-.03-.03-.06-.05-.09,0,.02,0,.03,0,.05,0-.02-.01-.05-.02-.07,0,0,0-.02-.01-.02-.04-.06-.03-.08,0-.06-.02-.05-.05-.11-.06-.15,0-.01,0-.03,0-.05,0-.03,0-.07,0-.1,0,0,0-.01,0-.02,0,.02,0,.03-.02.06,0,0,0,0,0,0,.01-.03.02-.07.02-.1,0,.01,0,.03,0,.05.03-.1.03-.12.02-.09,0-.05.02-.1.03-.15,0-.02.01-.04.02-.06.04-.07.09-.14.13-.21.03-.03.06-.06.09-.09,0,0,.02-.02.04-.03,0,0,0,0,0,0,.02-.01.05-.03.07-.04.03,0,.06-.02.09-.03,0,0,0,0,0,0,.64-.07,1.23-.57,1.2-1.26-.01-.25-.1-.51-.24-.72h-.68.68c-.23-.34-.59-.58-1.03-.55-1.44.09-2.63,1.18-2.9,2.6-.29,1.54.48,2.93,1.75,3.78,1.1.74,2.56.95,3.83.6,1.26-.34,2.44-1.33,2.65-2.67.25-1.53-.49-3.2-2.07-3.63ZM227.8,32.32s0,0,0,0c-.01.01-.02.02-.03.03.01-.01.02-.02.03-.03ZM227.76,32.36c-.06.04-.11.06,0,0h0ZM227.42,33.06s0-.02,0-.02c0,0,0,0,0,0,0,0,0,.01,0,.02ZM227.44,33.13c0,.07,0,.11,0,0h0Z"/><polygon class="cls-7" points="230.55 32.92 230.56 32.92 230.56 32.92 230.56 32.92 230.55 32.92"/><path class="cls-7" d="M227.64,33.58s.02.01.04.03c-.01-.02-.02-.03-.04-.03,0,0,0,0,0,0Z"/><path class="cls-7" d="M227.53,33.39s0,.02.01.02c0-.05-.02-.09-.04-.11.01.03.01.05.02.08Z"/><path class="cls-7" d="M230.6,32.98s0,0-.01-.01c0,0,0,0,0,0,0-.01-.02-.02-.02-.04,0,0,0,0,0,0,0,.01,0,.02.01.03-.02-.01-.03-.03-.05-.04,0,0,0,0,0,0,0,0,0,0,0,0,0,0,0,0,0,0,0,0,0,0,0,0,0,0,0,0,0,0,0,0,0,0,0,0-.02,0-.04-.02-.06-.02-.02,0-.04-.02-.06-.02,0,.02.05.04.13.05.02.02.04.04.06.05.03.05.05.09.07.1-.01-.02-.02-.04-.03-.06,0,0,0-.02-.01-.02Z"/><path class="cls-2" d="M226.95,40.93c-.2-.24-.6-.37-.9-.37-.09,0-.19.02-.29.04.29.09.55.31.76.72-.21-.42-.47-.63-.76-.72-.23.06-.46.17-.61.33-.22.24-.39.56-.37.9.02.35.14.61.36.88-.04-.05-.08-.1-.12-.16.07.09.12.2.18.3.04.11.06.21.09.32,0,.11,0,.23,0,.34-.02.11-.05.23-.09.34-.04.08-.09.17-.14.25-.05.06-.11.11-.16.16-.05.03-.11.06-.16.09-.09.03-.18.05-.28.07-.11,0-.23,0-.34,0-.12-.02-.23-.05-.34-.09-.09-.04-.18-.09-.26-.15-.06-.05-.11-.1-.17-.16-.04-.06-.08-.13-.12-.2-.02-.07-.04-.15-.06-.22,0-.11,0-.22,0-.34.02-.11.05-.22.09-.33.05-.1.11-.2.17-.3.06-.06.12-.13.18-.18.07-.04.13-.09.2-.12.57-.29.79-1.1.5-1.66-.45.08-.87.11-1.18-.2.31.31.73.28,1.18.2-.01-.03-.02-.06-.04-.08-.39-.61-1.1-.78-1.74-.46-2.1,1.07-2.63,4.3-.82,5.88.94.82,2.16,1.13,3.38.89,1.2-.24,2.09-1.16,2.52-2.27.24-.63.26-1.3.16-1.96-.1-.66-.41-1.23-.83-1.74Z"/><path class="cls-8" d="M193.97,44.69c-1.64,0-1.64,2.54,0,2.54s1.64-2.54,0-2.54Z"/><path class="cls-8" d="M177.89,44.69c-1.64,0-1.64,2.54,0,2.54s1.64-2.54,0-2.54Z"/><path class="cls-8" d="M186.34,55.6c-1.64,0-1.64,2.54,0,2.54s1.64-2.54,0-2.54Z"/><path class="cls-7" d="M188.4,67.01s.03.04.05.06c0,0,0-.01,0-.02-.02-.01-.03-.03-.05-.05Z"/><path class="cls-7" d="M184.15,66.81s.08-.03.11-.04c-.03.01-.06.02-.08.03,0,0-.02.01-.03.02Z"/><path class="cls-8" d="M187.66,64.06c-1.47-.23-3.04-.2-4.42.39-.73.31-1.44.78-1.8,1.52-.29.6-.18,1.4.46,1.74.57.3,1.43.18,1.74-.46.02-.05.06-.1.08-.15.03-.03.07-.06.1-.1.11-.07.22-.13.34-.2-.01,0-.02,0-.03,0,0,0,.02,0,.05-.02,0,0,0,0,.01,0,.1-.05.1-.04.07-.02.05-.02.1-.04.11-.04.15-.05.31-.09.47-.13.09-.02.19-.04.28-.06.04,0,.13-.01.18-.02-.03,0-.08,0-.16,0,.36-.02.72-.06,1.08-.06.19,0,.37.01.56.03.08,0,.15.02.23.02,0,0,0,0,.01,0,.33.05.66.13.98.24,0,0,.02,0,.03.01.04.02.09.04.11.05.07.03.13.07.19.11.02.02.04.05.07.08,0,0,0,0,0,0-.01-.01-.04-.04-.06-.07.02.01.04.03.05.04,0-.02.02,0,.05.04,0,0,0,0,0,0,0,0,0,0,0,0,0,0,0,.01,0,.02,0,0,.01.01.02.02,0,0,0,0,0,0,0,0-.01,0-.02-.01.24.57.9.96,1.51.76.65-.21,1.09-.88.89-1.56-.4-1.38-1.9-2-3.2-2.21ZM188.48,67.08s0,0,0,0c.02.02.04.04.06.04-.02,0-.04-.02-.06-.04Z"/><path class="cls-7" d="M188.39,66.98s0,.01.01.03c.03.02.04.03.04.03,0,0,0,0,0,0,0-.01-.02-.03-.05-.05Z"/><path class="cls-7" d="M185.3,66.52c.06,0,.04,0,0,0h0Z"/><path class="cls-8" d="M196.88,38.35c-.67-.44-1.39-.84-2.12-1.18-1.27-.6-2.8-1.25-4.22-.87-.64.17-1.1.92-.89,1.56.21.65.84,1.04,1.51.9.02,0,.06-.02.12-.02,0,0,0,0,0,0,.03,0,.07-.01.1-.02-.04.01-.05.01-.08.02.11,0,.21,0,.32,0,.05,0,.1.02.15.03.13.03.26.06.39.1.3.08.58.19.87.3,0,0,.02,0,.03.01-.01,0-.02-.01-.04-.02.07.03.13.06.2.09.14.06.28.13.42.2.67.33,1.33.69,1.96,1.1.56.37,1.43.13,1.74-.46.34-.64.14-1.35-.46-1.74Z"/><path class="cls-7" d="M191.21,38.75s-.03,0-.05,0c-.04.02,0,.02.14-.02,0,0-.01,0-.02,0-.02,0-.05,0-.07.02Z"/><path class="cls-7" d="M193.06,39.18c.29.14.1.04,0,0h0Z"/><path class="cls-7" d="M180.45,38.27s-.02,0-.03,0c0,0-.01,0-.02,0,0,0,0,0-.01,0,.16.04.18.03.14.02-.02,0-.05,0-.07-.01Z"/><path class="cls-8" d="M181.13,35.81c-1.2-.31-2.46.18-3.53.69-.89.41-1.73.93-2.55,1.47-.18.12-.36.24-.53.37-.28.2-.49.42-.58.76-.08.3-.05.71.13.98.34.53,1.17.88,1.74.46.67-.49,1.37-.93,2.09-1.34.29-.16.58-.31.88-.46.08-.04.15-.07.23-.11.02-.01.06-.03.1-.04.11-.05.23-.09.34-.13.21-.07.42-.12.64-.17-.05,0,.05-.03.14-.04,0,0,0,0,.01,0,.02,0,.05-.01.07-.02-.03,0-.05.01-.07.02.05,0,.1,0,.15,0-.03,0-.06-.02-.1-.03.04.01.09.02.13.03.04,0,.08.01.1.02.63.12,1.34-.25,1.49-.9.15-.66-.2-1.38-.89-1.56ZM179.12,38.59c.06-.03.1-.04,0,0h0Z"/><path class="cls-7" d="M180.08,38.3s.07-.01.16-.04c0,0,0,0,0,0-.05.01-.1.03-.15.04Z"/><path class="cls-7" d="M165.68,18.6s.01,0,.03,0c-.01,0-.03,0-.04,0,0,0,0,0,.01.01Z"/><path class="cls-7" d="M165.67,18.6s.02.01.02.02c0,0,0,0,0,0,0,0-.01-.01-.02-.02,0,0,0,0,0,0Z"/><path class="cls-7" d="M165.66,18.59s0,0,0,0c-.11-.1-.16-.13-.16-.12.05.03.1.08.15.12Z"/><path class="cls-8" d="M227.8,95.19c-2.32-1.73-5.08-2.87-7.69-4.09-2.62-1.22-5.25-2.4-7.89-3.57-1.48-.65-2.96-1.3-4.44-1.95-1.54-2.93-3.16-5.93-4.23-9.06-.32-.94-1.38-1.2-2.12-.56-.03.03-.07.06-.1.09-.16-1.84-.22-3.69-.24-5.53,0-.13-.03-.26-.07-.38,1.74-2.95,2.68-6.17,3.26-9.52,1.47-.37,3.07-.75,4.13-1.8,1.69-1.67,2.59-4.66,2.32-6.99-.25-2.09-1.37-4.4-3.45-5.14.04-.18.07-.36.1-.53.37-1.81.66-3.63.89-5.46.63-4.85,1.16-10.44-.6-15.12-.81-2.15-2.23-4.03-4.42-4.77-1.7-3.77-5.31-6.69-9.18-7.93-2.79-.89-5.39-.64-8.24-.23-3.08.44-6.14,1.04-9.18,1.69-1.29.28-2.6.67-3.91.86-.82.12-1.71.13-2.5-.16-.17-.06-.31-.15-.49-.23-.02-.01-.04-.02-.05-.02,0,0,0,0,0,0-.64-.59-1.51-.42-2,.26-.75,1.06-.59,2.29,0,3.32-.56.21-1.15.34-1.72.28-.03,0-.2-.01-.28-.03,0,0,0,0,0,0,0,0,0,0,0,0-.04,0-.05-.01-.02-.02,0,0-.01,0-.02-.01-.08-.03-.15-.11-.15-.12-1.06-.71-2.37.5-1.8,1.7.32.68.73,1.54,1.25,2.26-1.3,1.39-1.98,3.44-2.46,5.17-.66,2.4-1.13,5.01-1.19,7.51-.07,2.48.55,5.04,1.08,7.44.26,1.16.54,2.32.83,3.47-.81.21-1.57.64-2.15,1.31-1.35,1.56-1.62,3.84-1.38,5.82.23,1.99.88,4.03,2.5,5.32,1.03.82,2.32,1.38,3.63,1.68.62,3.69,1.61,7.39,3.63,10.58.08.13.17.25.26.37-.05.14-.08.28-.08.44,0,.74-.02,1.47-.05,2.21-.03.71-.08,1.42-.15,2.13-.01.13-.03.26-.04.39-.01,0-.03-.02-.04-.03-.76-.47-1.58.03-1.87.76-.97,2.48-1.95,4.97-2.92,7.45-.05.02-.09.03-.13.05-5.56,2.76-11.54,4.57-17.3,6.84-2.4.95-5.07,1.86-7.21,3.35-2.28,1.59-3.97,3.99-5.3,6.39-1.54,2.75-2.78,5.8-3.29,8.93h2.57c.47-2.38,1.36-4.67,2.47-6.82,1.17-2.27,2.65-4.7,4.74-6.24,1.98-1.46,4.57-2.32,6.84-3.21,2.86-1.12,5.76-2.16,8.64-3.24,2.57-.96,5.14-1.95,7.63-3.1.05.08.11.16.16.24.95,1.37,1.89,2.74,2.84,4.12.79,1.15,1.58,2.3,2.38,3.45.48.7,1.78.95,2.2,0,.59-1.35,1.18-2.7,1.77-4.05,1.63,1.45,4.08,1.72,6.13,2.3.64.18,1.41-.22,1.56-.89.15-.68-.2-1.37-.89-1.56-1.14-.32-2.31-.55-3.45-.91-.25-.08-.49-.16-.73-.25,0,0,0,0-.02,0-.04-.02-.08-.03-.12-.05-.11-.05-.22-.11-.33-.17-.11-.06-.21-.12-.31-.19-.03-.02-.05-.04-.08-.05-.07-.07-.16-.14-.23-.21-.04-.04-.08-.1-.13-.14,0,0,0,0,0,0-.1-.13-.21-.24-.34-.33.49-1.12.98-2.24,1.47-3.36.65-1.48-1.54-2.78-2.2-1.28-1.15,2.64-2.3,5.28-3.46,7.92-1.3-1.88-2.6-3.77-3.89-5.65.93-2.37,1.86-4.73,2.78-7.1,1.9,1.19,3.8,2.39,5.71,3.58.55.34,1.1.69,1.65,1.03.11.07.22.14.33.21.19.3.54.63.71.85.61.81,1.23,1.61,1.85,2.42,1.6,2.07,3.22,4.13,4.9,6.13.03.09.07.17.12.25-.07.16-.12.33-.11.52.06,2.15-.06,4.3,0,6.45.02.66.57,1.3,1.27,1.27.67-.03,1.29-.56,1.27-1.27-.06-2.15.06-4.3,0-6.45,0-.17-.04-.34-.11-.49.15.01.3.02.46-.01.03,0,.06-.01.09-.02,0,0,0,0,.02,0,.05,0,.1-.01.14-.02.18-.02.36-.04.54-.05.51-.05,1.02-.11,1.53-.23,1.28-.29,2.47-.92,3.53-1.69.54-.39.85-1.12.46-1.74-.34-.53-1.16-.87-1.74-.46-.56.4-1.15.77-1.77,1.06,0,0,0,0-.01,0,.01,0,.02,0,.03,0-.06.02-.12.05-.17.07-.12.05-.24.09-.37.13-.23.07-.45.13-.69.18-.05.01-.11.02-.16.03.97-1.39,1.96-2.78,2.92-4.18.56-.81,1.11-1.62,1.66-2.43.14-.21.28-.49.46-.68.08.03.43-.11.43-.11.66-.18,1.35-.66,1.96-.98.58-.3,1.16-.62,1.73-.95.83-.48,1.64-.98,2.41-1.53.5-.35.97-.73,1.43-1.12.99,2.46,2.22,4.85,3.46,7.2-2.37,1.46-4.74,2.92-7.11,4.38-.77-1.64-1.54-3.28-2.31-4.92-.7-1.48-2.89-.19-2.2,1.28.96,2.03,1.91,4.07,2.87,6.1.29.61,1.19.79,1.74.46,2.96-1.82,5.92-3.64,8.87-5.46,3.39,1.47,6.76,2.97,10.12,4.5,2.43,1.11,4.91,2.18,7.24,3.49,2.71,1.53,4.94,3.71,6.46,6.44,1.29,2.33,2.01,4.91,2.44,7.52h2.55c-.86-5.81-3.27-11.22-8.09-14.81ZM201.08,22.14s-.01-.03-.01-.03c0,0,0,0,.01.03ZM164.69,29.31c.43-1.84,1.03-4.75,2.87-5.72.99-.52.72-2.04-.3-2.32.19.05.08-.04-.03-.15,1.16-.23,2.31-.75,3.16-1.2.67-.35.88-1.49.26-2-.08-.06-.16-.13-.25-.2,1.48.23,3.11-.06,4.48-.38,2.68-.62,5.38-1.17,8.09-1.65,2.52-.45,5.23-1.07,7.81-.91,2.9.18,5.77,1.71,7.78,3.75.77.78,1.43,1.65,1.98,2.6.18.3.34.61.49.93.01.02.04.09.07.16.08.4.35.76.88.88,1.52.35,2.46,1.38,3.11,2.87.76,1.75,1,3.75,1.1,5.65.21,4.03-.23,8.09-.93,12.06-.13.71-.26,1.42-.41,2.13-.02.01-.04.02-.07.03-.85-2.57-1.68-5.15-2.43-7.76-.2-.69-.38-1.39-.55-2.09-.01-.04-.03-.17-.05-.24-.04-.3-.07-.61-.12-.91-.13-.8-.32-1.58-.56-2.35-.57-1.8-1.4-3.65-2.55-5.17-.31-.41-.89-.81-1.44-.58-1.4.58-2.85,1.07-4.31,1.49-1.38.39-3.07.9-4.65.88.55-.58,1.17-1.11,1.72-1.6,1.06-.95-.37-2.86-1.54-2-2.51,1.84-5.61,2.98-8.69,3.81.57-1.23,1.13-2.46,1.7-3.68.6-1.31-.87-2.51-2-1.54-2.69,2.32-5.38,4.64-8.06,6.97-.75.65-1.52,1.3-2.26,1.97-.89.82-.58,1.73-.64,2.83-.13,2.3-.8,4.58-1.47,6.77-.33,1.08-.7,2.15-1.08,3.22-.02,0-.03,0-.05-.01-.9-3.3-1.83-6.78-1.93-10.19-.06-2.1.37-4.3.84-6.33ZM197.75,46.18c-.01.71-.26,1.46-.71,2.17-.44.68-1.06,1.25-1.83,1.64-.69.34-1.54.42-2.31.21-.8-.22-1.43-.68-2.03-1.36-.51-.58-.86-1.3-1.03-2.14,0-.03-.02-.15-.02-.18,0-.07-.01-.13-.01-.2,0-.13,0-.26,0-.4,0-.01,0-.04,0-.07.03-.18.08-.36.14-.53,0-.02.02-.04.02-.05.07-.12.13-.24.21-.35,0-.01,0-.01.01-.02.01-.01.02-.02.04-.04.05-.06.11-.11.16-.17.07-.07.15-.14.23-.2.02-.01.03-.02.07-.04.44-.28.61-.36,1.03-.48.93-.29,1.76-.33,2.79-.25.82.07,1.67.3,2.38.79.03.03.08.06.1.07.1.09.2.19.29.29.01.01.03.04.05.06.06.08.11.16.16.25,0,.02.08.17.09.2.03.09.06.17.08.26.02.06.03.12.04.19-.02-.04.02.32.02.37ZM195.74,41.32c-2.37-.45-5.32-.2-7.13,1.57-.61.59-.99,1.31-1.18,2.07h-3.15c-.57-1.98-2.4-3.24-4.49-3.63-2.49-.46-5.58-.25-7.51,1.58-.28.27-.51.56-.7.87-.02,0-.03,0-.05,0-.8.09-1.6.17-2.39.26.18-.55.36-1.11.52-1.67.7-2.43,1.4-5.05,1.26-7.61,1.9-1.67,3.82-3.34,5.74-4.99-.12.26-.24.52-.36.78-.46,1,.3,2.13,1.44,1.87,2.3-.52,4.74-1.18,7.03-2.11.1.4.4.72.87.91,2.25.93,5.14.19,7.38-.42,1.33-.36,2.65-.8,3.94-1.3.78,1.23,1.38,2.61,1.79,3.99.53,1.79.71,3.66,1.24,5.46.48,1.66,1,3.32,1.53,4.96-.38-.06-.76-.13-1.15-.19-.11-.02-.22-.04-.33-.06-.17-.05-.34-.06-.51-.02,0,0,0,0-.01,0-.82-1.21-2.2-2.02-3.76-2.32ZM181.92,46.18c0,.44-.04.58-.19,1.08-.09.3-.34.76-.58,1.12-.46.67-1.18,1.29-1.99,1.64-1.57.68-3.33.13-4.52-1.14-.59-.62-.95-1.34-1.14-2.16,0-.03-.03-.16-.03-.19,0-.07-.01-.14-.01-.22,0-.11,0-.23,0-.34,0-.03.02-.14.02-.18.03-.12.08-.3.1-.37.02-.04.11-.23.1-.21.05-.09.11-.18.17-.27,0,.01.24-.24.28-.28.02-.02.1-.09.13-.11.06-.04.11-.08.17-.12.42-.27.63-.35,1.09-.48.93-.27,1.83-.33,2.83-.26.97.06,1.92.29,2.7.82.23.15.47.39.65.71.03.05.05.1.08.15,0,.02.07.22.08.23,0-.02.04.17.05.23,0,.07.02.3.02.35ZM187.47,93.69s.04,0,.06,0c-.02,0-.04,0-.06,0ZM198.74,78.16c-.87.6-1.79,1.15-2.72,1.66-.57.31-1.14.62-1.72.91-.69.35-1.61.63-2.21,1.11-.35.28-.59.75-.85,1.12-.56.82-1.11,1.63-1.67,2.45-1.28,1.86-2.58,3.72-3.88,5.56-2.26-2.76-4.36-5.65-6.61-8.42-.57-.7-1.46-1.11-2.21-1.58-1.48-.93-2.97-1.86-4.45-2.79-.24-.15-.47-.3-.71-.45.2-1.23.32-2.48.39-3.73,1.97,1.94,4.35,3.46,6.97,4.43,3.9,1.44,8.37,1.55,12.28.09,2.84-1.06,5.29-2.84,7.27-5.07.06,1.51.17,3.03.36,4.53-.08.06-.15.13-.24.18ZM192.22,75.36c-.69.36-1.41.65-2.13.89v-1.26c0-.33-.14-.67-.37-.9s-.58-.39-.9-.37c-.33.01-.67.12-.9.37-.23.25-.37.55-.37.9v1.85c-.17.02-.34.05-.51.07v-1.92c0-.33-.14-.67-.37-.9-.22-.22-.58-.39-.9-.37-.33.01-.67.12-.9.37-.23.25-.37.55-.37.9v1.97c-.17-.01-.34,0-.51-.02v-1.94c0-.33-.14-.67-.37-.9-.22-.22-.58-.39-.9-.37-.33.01-.67.12-.9.37-.23.25-.37.55-.37.9v1.49c-3.73-.95-7.16-3.2-9.39-6.4-2.33-3.35-3.3-7.36-3.92-11.34-.06-.38-.5-.83-.89-.89-.95-.14-1.92-.43-2.77-.89-1.28-.71-1.83-1.8-2.14-3.19-.29-1.29-.35-2.84.2-4.08.51-1.15,1.69-1.67,2.82-.96.56.35,1.1.2,1.45-.16.48-.07.86-.41,1.06-.91.13-.33.24-.67.36-1,.9-.1,1.79-.19,2.69-.29.04,1.18.46,2.37,1.14,3.34,1.61,2.3,4.4,3.66,7.2,2.93,2.42-.63,4.44-2.72,5.03-5.15h3.14c.18.8.51,1.58.97,2.25,1.5,2.23,4.16,3.63,6.86,2.91,2.8-.74,4.94-3.52,5.03-6.39.45.08.9.15,1.35.23.11.02.22.04.33.06.13.04.27.05.4.03.11.32.21.64.31.96-.48.9.57,2.25,1.75,1.73.17-.06.33-.12.5-.17.39-.11.79-.17,1.2-.1,1.56.25,2.16,2.48,2.11,3.8-.05,1.43-.66,3.74-1.99,4.53-.96.57-2.34.76-3.42,1.06-.39.11-.82.46-.89.89-1.01,6.44-3.64,12.88-9.73,16.09Z"/><path class="cls-7" d="M190.12,90.58c-.26.07-.1.04,0,0h0Z"/></g><path class="cls-3" d="M16.82,37.77c.05.01.08.01.09,0-.01,0-.05,0-.09,0,0,0,0,0,0,0Z"/><path class="cls-3" d="M16.75,37.76s.04,0,.07,0c0,0-.02,0-.03,0-.01,0-.02,0-.04,0Z"/><path class="cls-3" d="M16.38,36.21c.06-.05.15-.13.01-.01,0,0,0,0-.01.01Z"/><path class="cls-3" d="M16.1,36.48s-.06.06-.06.08c0,0,.03-.04.06-.08Z"/><path class="cls-2" d="M19.68,17.1c-1.05-1.04-2.02-2.15-3.42-2.71-1.57-.62-3.45-.17-4.43,1.24-.77,1.1-.56,2.6.13,3.68.94,1.46,2.51,2.16,4.19,2.32.66.06,1.3-.63,1.27-1.27-.03-.74-.56-1.2-1.27-1.27-.02,0-.09-.01-.12-.01-.03,0-.07-.01-.1-.02-.14-.03-.27-.06-.4-.1-.12-.03-.23-.08-.35-.12-.07-.03-.14-.07-.2-.1-.1-.06-.2-.12-.3-.18-.03-.02-.06-.04-.08-.06,0,0,0,0,0,0-.06-.08-.16-.15-.23-.22-.05-.05-.11-.14-.14-.17-.09-.13-.17-.27-.25-.41,0,0,0,0,0,0,0,0,0,0,0-.02-.03-.1-.06-.19-.08-.29,0,0,0,.01,0,.02,0,0,0-.02,0-.03-.04-.18-.01-.15,0-.09,0-.05,0-.09,0-.12,0-.03.01-.05.02-.08,0-.01,0-.01.02-.03.01-.02.02-.03.02-.04.04-.04.08-.08.11-.11.04-.02.19-.12.23-.15.02-.01.05-.02.07-.03.02,0,.05-.02.07-.02.05-.02.1-.03.15-.04.01,0,.14-.02.18-.03.03,0,.05,0,.06,0,.05,0,.11,0,.16,0-.25-.01.12.03.2.05.04.01.24.08.28.09.14.06.27.14.4.22.32.2.29.17.57.42.24.21.46.43.68.66.31.32.62.63.94.95.55.54,1.11,1.08,1.68,1.61.48.46,1.32.51,1.79,0,.45-.49.52-1.31,0-1.79-.61-.58-1.22-1.16-1.82-1.76Z"/><path class="cls-7" d="M15.97,36.97s0-.02,0,0h0Z"/><path class="cls-7" d="M16.79,37.76s.02,0,.03,0c.04,0,.08,0,.09,0,.02,0-.03-.04-.12-.02Z"/><path class="cls-2" d="M15.13,27.19c-.64.02-1.27.06-1.91.12-1.15.1-2.27.23-3.32.76-1.23.61-2.25,1.87-2.15,3.3.1,1.48,1.1,2.65,2.49,3.11.72.24,1.54.21,2.25-.05.88-.32,1.6-.87,2.33-1.44.52-.41.46-1.37,0-1.79-.56-.51-1.23-.44-1.79,0-.04.03-.07.06-.11.08-.02.02-.04.03-.06.04-.11.08-.23.17-.34.25-.24.17-.49.3-.75.44,0,0,0,0,0,0-.05.01-.1.03-.15.05-.05.01-.1.03-.15.04-.08,0-.19.02-.24.01,0,0,0,0,0,0-.01,0-.03,0-.09,0,0,0,0,0,0,0-.03,0-.06,0-.07,0,.01,0,.02,0,.04,0-.08-.02-.16-.05-.24-.07-.03-.01-.06-.03-.08-.04-.02-.01-.12-.08-.17-.11-.05-.05-.13-.11-.15-.14,0,0-.02-.03-.04-.05-.02-.04-.07-.16-.11-.23,0-.02-.01-.04-.02-.06,0-.03-.01-.06,0-.09,0,.01,0,.03,0,.06-.02.21,0-.01,0-.07,0-.04,0-.08,0-.11.02-.06.05-.16.07-.23.02-.04.04-.08.07-.11.02-.03.02-.03.02-.04.03-.03.06-.05.06-.06.06-.06.13-.12.19-.18.04-.02.09-.06.11-.08.1-.06.2-.12.3-.18.05-.03.1-.05.15-.08.38-.13.75-.22,1.14-.28.02,0,.04,0,.05,0,.08,0,.15-.02.23-.03.22-.02.43-.04.65-.06.6-.05,1.19-.09,1.79-.11.66-.02,1.3-.57,1.27-1.27-.03-.67-.56-1.29-1.27-1.27ZM10.37,30.89s.02-.05.06-.08c-.02.04-.06.08-.06.08ZM10.71,30.54s0,0,.01-.01c.13-.12.04-.03-.01.01Z"/><circle class="cls-5" cx="55.65" cy="55" r="55"/><g class="cls-4"><path class="cls-3" d="M16.82,37.77c.05.01.08.01.09,0-.01,0-.05,0-.09,0,0,0,0,0,0,0Z"/><path class="cls-3" d="M19.54,23.06s0-.05,0-.09c-.02-.06-.04-.09,0,.09Z"/><path class="cls-3" d="M19.54,23.06s0,.02,0,.03c0,0,0-.01,0-.02,0,0,0,0,0,0,0,0,0,0,0,0Z"/><path class="cls-3" d="M64.64,41.21s.02.01.04.01c0,0,0,0,0,0-.01,0-.03-.01-.04-.01Z"/><path class="cls-5" d="M76.6,63.31c-.64.11-1.23.06-1.82-.15-.97,3.63-2.84,7.03-5.42,9.75,0,.04.02.07.02.11.36,3.68.89,7.7,3,10.85,1.61,2.4,4.09,3.45,6.56,4.74,1.54.8,3.06,1.65,4.54,2.55-1.49-9.44-5.01-18.51-6.48-27.95-.13.05-.26.09-.4.11Z"/><path class="cls-5" d="M33.88,75.83c-.39-2.03-.31-3.98-.25-6.03.04-1.15-.23-2.76-.14-4.23-1.12,8.97-3.01,17.91-6.08,26.41.81-.34,1.62-.68,2.43-1.02,1.67-.69,3.35-1.37,5.01-2.11,1.42-.63,2.91-1.25,4.17-2.17-.7-1.79-1.54-3.42-2.63-5.05-1.2-1.79-2.1-3.67-2.51-5.8Z"/><path class="cls-5" d="M39.94,89.11c-.61.4-1.24.76-1.89,1.09.11.13.19.29.25.49.88,3.21,1.7,6.43,2.5,9.67.1,0,.21.01.31.04.6.16,1.19.32,1.79.48.04-.35.08-.7.11-1.06.14-2.11-.36-4.07-1.13-6.03-.61-1.57-1.31-3.11-1.93-4.67Z"/><path class="cls-6" d="M41.47,103.11c.18.74.36,1.48.54,2.21.04-.17.09-.33.13-.5.12-.49.23-.98.33-1.48-.04,0-.09,0-.13,0-.29-.08-.58-.15-.87-.23Z"/><path class="cls-5" d="M67.06,74.99c-3.99,3.08-8.92,4.35-13.82,3.39,1.88,4.67,4.69,9.01,5.4,14.06.54,3.81-.03,7.84-1.27,11.51.03.01.06.02.09.03.24.08.3.08.69.05.55-.04,1.13-.15,1.86-.3,1.94-.4,3.85-.93,5.76-1.48,2.53-.73,5.05-1.51,7.56-2.33.91-3.12,1.82-6.24,2.73-9.36.05-.17.12-.3.21-.42-.46-.24-.92-.49-1.38-.73-5.44-2.94-7.09-8.69-7.82-14.41Z"/><path class="cls-3" d="M16.75,37.76s.04,0,.07,0c0,0-.02,0-.03,0-.01,0-.02,0-.04,0Z"/><path class="cls-3" d="M64.68,41.22s.03.01.05.02c.12.05.04.01-.03-.01,0,0-.01,0-.02,0Z"/><path class="cls-5" d="M57.16,65.95s-.04-.07-.06-.1c-.02-.02-.04-.04-.06-.06-.03-.02-.07-.04-.1-.06-.04-.01-.07-.02-.11-.03-.04,0-.08,0-.12,0-.04,0-.07.02-.11.03-.03.02-.07.04-.1.06-.02.02-.04.04-.06.06-.02.03-.04.07-.06.1-.01.04-.02.07-.03.11,0,.04,0,.08,0,.12,0,.04.02.07.03.11.02.03.04.07.06.1.02.02.04.04.06.06.03.02.07.04.1.06.04.01.07.02.11.03.04,0,.08,0,.12,0,.04,0,.07-.02.11-.03.03-.02.07-.04.1-.06.02-.02.04-.04.06-.06.02-.03.04-.07.06-.1.02-.05.03-.11.05-.17,0,0,0,0,0,0s0,0,0,0c-.01-.06-.03-.11-.05-.17Z"/><path class="cls-3" d="M34.65,48.1s0,0,0,0c.01-.06,0-.04-.02,0,0,0,0,0,.01,0Z"/><path class="cls-3" d="M16.38,36.21c.06-.05.15-.13.01-.01,0,0,0,0-.01.01Z"/><path class="cls-3" d="M34.62,48.13s0-.01.01-.02c0,0-.01.01-.01.02Z"/><path class="cls-5" d="M77.5,48.29c-.75-.53-2.06-.02-2.79.36-.17.09-.35.14-.51.15-.65.28-1.47.1-1.6-.79-.38-2.5-.95-5.11-1.78-7.64-.07.01-.14.02-.22.02-4.65-.01-9.21-1.65-13.13-4.08-3.47-2.15-6.79-5.07-8.68-8.74-.26.3-.5.6-.74.9.01.15,0,.31-.05.48-1.91,6.58-3.68,13.84-8.81,18.74-.14.87-1.31,1.58-2.17.78-.13-.12-.39-.26-.63-.32-.38-.1-.58-.14-.96-.14-.39,0-.39,0-.75.09-.02,0-.02,0-.03,0,0,0,0,0,0,0-.01.04-.03.04-.03.03,0,.01-.01.03-.03.04-.03.04-.08.08-.11.13.14-.17-.06.11-.1.17-.06.1-.12.21-.17.32-.02.04-.04.08-.06.12,0,.01,0,.02-.01.04-.05.14-.1.29-.15.44-.17.59-.24,1.03-.28,1.56-.09,1.28,0,2.44.29,3.63.14.58.3,1.05.49,1.43.06.12.13.24.2.35.02.03.08.13.12.18.04.04.11.13.13.15.08.09.17.17.26.25.12.11.26.19.39.29.72-.3,1.55-.34,2.27-.07.68.25,1.21.66,1.63,1.25.06.08.11.17.15.26.23.23.36.54.38.86.22-.02.44-.01.66.02.23-.68.62-1.29,1.28-1.68,1-.6,2.36-.4,3.32.18,1.43.87,1.63,2.56,1.87,4.11,2.61.03,3.45,2.78,3.88,4.9.52,2.54.37,5.14.99,7.67.07.27.14.53.22.79,5.03,1.49,10.18.31,14.12-3.23,3.33-3,5.64-7.18,6.37-11.61-.04-.23-.06-.46-.03-.68.03-.35.11-.68.23-.99,0-.04,0-.08.01-.12.04-.6.39-1,.9-1.18.63-.53,1.49-.79,2.31-.73.3-.16.58-.35.84-.58.99-.9,1.41-2.42,1.58-3.7.18-1.3.15-3.55-1.08-4.41ZM49.41,49.69c-1.63,0-1.63-2.54,0-2.54s1.63,2.54,0,2.54ZM52.41,41.69c-.09.34-.31.56-.58.76-.98.71-2.03,1.29-3.18,1.68-.7.24-1.44.38-2.12.67-.31.13-.7.02-.98-.13-.29-.15-.48-.45-.58-.76-.1-.3-.03-.71.13-.98.18-.31.44-.45.76-.58.67-.28,1.39-.42,2.07-.65.2-.07.39-.15.59-.22-.42.15,0,0,.1-.05.11-.05.23-.11.34-.17.56-.29,1.09-.64,1.6-1.01.57-.42,1.39-.07,1.73.45.17.27.21.67.13.98ZM56.86,57.42c1.63,0,1.63,2.54,0,2.54s-1.63-2.54,0-2.54ZM59.71,66.39c-.07.64-.32,1.22-.74,1.71-.38.45-.98.81-1.56.91-.69.13-1.33.05-1.97-.25-.5-.23-.94-.66-1.22-1.14-.29-.48-.46-1.11-.4-1.68.03-.29.07-.57.18-.84.15-.37.31-.65.57-.96.73-.88,2.09-1.24,3.16-.84.64.24,1.13.62,1.52,1.17.33.47.49,1.07.5,1.64,0,.09,0,.18-.03.27ZM64.09,49.69c-1.63,0-1.63-2.54,0-2.54s1.63,2.54,0,2.54ZM68.63,43.91c-.07.3-.32.6-.58.76-.25.15-.7.25-.98.13-1.79-.75-3.78-1.15-5.36-2.35-.28-.21-.47-.42-.58-.76-.11-.33-.03-.68.13-.98.14-.27.46-.5.76-.58.28-.08.73-.06.98.13.38.29.8.54,1.23.75.11.05.21.1.32.15.04.02.09.04.13.06,0,0,.01,0,.02,0,.2.06.4.16.6.24.81.3,1.65.55,2.45.89.32.14.57.29.76.58.19.29.2.65.13.98Z"/><path class="cls-5" d="M50.03,76.95c-.77-2.39-1.03-4.85-1.19-7.35-.06-1.01-.25-2-.5-2.98-.12-.48-.4-2.04-1.2-1.95-.89.1-.38,3.35-.33,3.97.2,2.5.43,5,.62,7.51.12,1.63-2.41,1.62-2.54,0-.22-2.86-.5-5.72-.7-8.58-.09-1.31-.08-3.08.64-4.23-.13-1.09-.21-2.76-1.01-3.21-.9-.49-.85.76-.86,1.31-.03,1.07-.03,2.14-.05,3.21-.05,4.29.05,8.56.46,12.83.16,1.63-2.38,1.61-2.54,0-.27-2.83-.43-5.66-.46-8.5-.03-2.27-.08-4.57,0-6.85-.83-.51-1.03,1.47-1.06,1.92-.09,1.38-.1,2.78-.07,4.16.06,3.05.34,6.09.79,9.1.1.68-.16,1.36-.89,1.56-.6.17-1.46-.21-1.56-.89-.58-3.91-.95-7.86-.89-11.81,0-.59,0-1.21.03-1.85-.1.13-.23.25-.4.34-.02.01-.03.02-.05.02,0,.01,0,.02-.01.04-.03.09-.06.19-.09.28-.08.27-.1.55-.12.83-.05.79,0,1.58.04,2.37.1,1.78-.13,3.55,0,5.33.15,2.04.71,4.03,1.79,5.78,1.14,1.86,2.35,3.55,3.17,5.58.79,1.95,1.44,3.95,2.28,5.89.86,1.98,1.73,3.98,2.06,6.13.53,3.4-.36,6.99-1.25,10.26-.26.95-.53,1.89-.83,2.82h9.3c.25-.76.51-1.53.76-2.29.25-.75.5-1.49.75-2.24.06-.19.12-.38.19-.57.01-.03.03-.07.04-.11.02-.26.11-.52.27-.74,1.24-3.41,1.97-7.12,1.58-10.74-.63-5.85-4.41-10.85-6.19-16.36Z"/><path class="cls-6" d="M60.21,106.27c-.74.14-1.51.29-2.26.31-.5.01-.96-.11-1.42-.25-.25.75-.5,1.5-.75,2.25-.16.47-.32.95-.47,1.42h15.08c.14-.49.29-.99.43-1.48.55-1.89,1.1-3.78,1.65-5.67-2.13.68-4.27,1.34-6.43,1.96-1.93.55-3.87,1.08-5.83,1.46Z"/><path class="cls-5" d="M83.91,94.42c-1.76-1.14-3.59-2.14-5.43-3.11-.25.85-.49,1.69-.74,2.54-1.57,5.39-3.14,10.77-4.72,16.16h24.96c-1.12-3.21-3.06-6.06-5.41-8.53-2.57-2.72-5.54-5.02-8.67-7.05Z"/><path class="cls-5" d="M35.85,91.36s-.01-.08-.02-.13c-1.29.55-2.61,1.06-3.87,1.58-2.96,1.22-5.95,2.41-8.73,4.01-2.68,1.54-5.3,3.42-6.81,6.18-1.22,2.23-2.02,4.66-3.01,7.01h27.26s.03-.09.05-.14c-.16-.15-.29-.35-.36-.62-1.45-5.97-2.87-11.96-4.5-17.88Z"/><path class="cls-5" d="M56.03,17.54c-.75,0-1.15-.54-1.21-1.12-.65,0-1.3.13-1.95.32-.02.46-.3.88-.91.99-2.83.48-5.4,1.83-7.61,3.63-4.02,3.28-7.25,7.83-9.01,12.71-1.3,3.6-.98,7.74.08,11.39.7,0,1.41.13,2.05.39,4.75-4.59,6.32-11.44,8.1-17.57.41-1.39,2.39-1.01,2.49.2.23-.3.48-.6.74-.9-.04-.08-.09-.16-.13-.24-.72-1.46,1.47-2.74,2.19-1.28,1.69,3.42,4.71,6.09,7.91,8.07,3.35,2.08,7.17,3.53,11.13,3.7-1.75-4.18-4.38-7.91-8.34-10.21-1.41-.82-.13-3.01,1.28-2.19,7.21,4.17,10.55,12.55,11.98,20.46.65-.21,1.34-.35,2.02-.34.44-2.02.58-4.13.57-6.19-.03-5.73-1.94-11.14-5.9-15.33-4.06-4.28-9.6-6.46-15.46-6.49Z"/><path class="cls-5" d="M34.05,61.81c-.32-.53-.5-1.21-.44-1.83.03-.32.1-.62.21-.9-.22-.18-.43-.38-.63-.59-.5.89-.71,1.78-.83,2.67.75-.18,1.6.2,1.5,1.16-.08.8-.19,1.6-.28,2.41.16-.85.51-1.59,1.2-2.08-.29-.24-.54-.53-.73-.84Z"/><path class="cls-3" d="M34.63,48.11s.01,0,.02,0c0,0,0,0,0,0,0,0-.01,0-.01,0,0,0,0,0,0,0Z"/><path class="cls-3" d="M16.1,36.48s-.06.06-.06.08c0,0,.03-.04.06-.08Z"/><path class="cls-2" d="M19.68,17.1c-1.05-1.04-2.02-2.15-3.42-2.71-1.57-.62-3.45-.17-4.43,1.24-.77,1.1-.56,2.6.13,3.68.94,1.46,2.51,2.16,4.19,2.32.66.06,1.3-.63,1.27-1.27-.03-.74-.56-1.2-1.27-1.27-.02,0-.09-.01-.12-.01-.03,0-.07-.01-.1-.02-.14-.03-.27-.06-.4-.1-.12-.03-.23-.08-.35-.12-.07-.03-.14-.07-.2-.1-.1-.06-.2-.12-.3-.18-.03-.02-.06-.04-.08-.06,0,0,0,0,0,0-.06-.08-.16-.15-.23-.22-.05-.05-.11-.14-.14-.17-.09-.13-.17-.27-.25-.41,0,0,0,0,0,0,0,0,0,0,0-.02-.03-.1-.06-.19-.08-.29,0,0,0,.01,0,.02,0,0,0-.02,0-.03-.04-.18-.01-.15,0-.09,0-.05,0-.09,0-.12,0-.03.01-.05.02-.08,0-.01,0-.01.02-.03.01-.02.02-.03.02-.04.04-.04.08-.08.11-.11.04-.02.19-.12.23-.15.02-.01.05-.02.07-.03.02,0,.05-.02.07-.02.05-.02.1-.03.15-.04.01,0,.14-.02.18-.03.03,0,.05,0,.06,0,.05,0,.11,0,.16,0-.25-.01.12.03.2.05.04.01.24.08.28.09.14.06.27.14.4.22.32.2.29.17.57.42.24.21.46.43.68.66.31.32.62.63.94.95.55.54,1.11,1.08,1.68,1.61.48.46,1.32.51,1.79,0,.45-.49.52-1.31,0-1.79-.61-.58-1.22-1.16-1.82-1.76Z"/><path class="cls-7" d="M19.54,23.06s0,0,0,0c0,0,0,0,0,0,.01-.03,0-.07,0-.1,0,.04,0,.07,0,.09Z"/><path class="cls-7" d="M15.97,36.97s0-.02,0,0h0Z"/><path class="cls-7" d="M16.79,37.76s.02,0,.03,0c.04,0,.08,0,.09,0,.02,0-.03-.04-.12-.02Z"/><path class="cls-2" d="M15.13,27.19c-.64.02-1.27.06-1.91.12-1.15.1-2.27.23-3.32.76-1.23.61-2.25,1.87-2.15,3.3.1,1.48,1.1,2.65,2.49,3.11.72.24,1.54.21,2.25-.05.88-.32,1.6-.87,2.33-1.44.52-.41.46-1.37,0-1.79-.56-.51-1.23-.44-1.79,0-.04.03-.07.06-.11.08-.02.02-.04.03-.06.04-.11.08-.23.17-.34.25-.24.17-.49.3-.75.44,0,0,0,0,0,0-.05.01-.1.03-.15.05-.05.01-.1.03-.15.04-.08,0-.19.02-.24.01,0,0,0,0,0,0-.01,0-.03,0-.09,0,0,0,0,0,0,0-.03,0-.06,0-.07,0,.01,0,.02,0,.04,0-.08-.02-.16-.05-.24-.07-.03-.01-.06-.03-.08-.04-.02-.01-.12-.08-.17-.11-.05-.05-.13-.11-.15-.14,0,0-.02-.03-.04-.05-.02-.04-.07-.16-.11-.23,0-.02-.01-.04-.02-.06,0-.03-.01-.06,0-.09,0,.01,0,.03,0,.06-.02.21,0-.01,0-.07,0-.04,0-.08,0-.11.02-.06.05-.16.07-.23.02-.04.04-.08.07-.11.02-.03.02-.03.02-.04.03-.03.06-.05.06-.06.06-.06.13-.12.19-.18.04-.02.09-.06.11-.08.1-.06.2-.12.3-.18.05-.03.1-.05.15-.08.38-.13.75-.22,1.14-.28.02,0,.04,0,.05,0,.08,0,.15-.02.23-.03.22-.02.43-.04.65-.06.6-.05,1.19-.09,1.79-.11.66-.02,1.3-.57,1.27-1.27-.03-.67-.56-1.29-1.27-1.27ZM10.37,30.89s.02-.05.06-.08c-.02.04-.06.08-.06.08ZM10.71,30.54s0,0,.01-.01c.13-.12.04-.03-.01.01Z"/><path class="cls-7" d="M34.62,48.13s.02.02.03-.03c0,0-.01,0-.02,0,0,0,0,.01-.01.02Z"/><path class="cls-7" d="M64.68,41.22s.01,0,.02,0c0,0-.01,0-.02,0,0,0,0,0,0,0Z"/><path class="cls-8" d="M67.75,42.35c-.8-.34-1.64-.58-2.45-.89-.2-.07-.4-.18-.6-.24.07.03.14.07.03.01-.02,0-.03-.01-.05-.02-.01,0-.02-.01-.04-.01,0,0,.02,0,.04.01-.04-.02-.09-.04-.13-.06-.11-.05-.21-.1-.32-.15-.43-.21-.85-.46-1.23-.75-.24-.19-.7-.2-.98-.13-.29.08-.61.31-.76.58-.16.29-.23.65-.13.98.11.34.31.55.58.76,1.57,1.2,3.56,1.6,5.36,2.35.28.12.73.02.98-.13.26-.15.51-.46.58-.76.07-.32.06-.69-.13-.98-.19-.3-.43-.45-.76-.58Z"/><path class="cls-8" d="M50.55,40.26c-.51.37-1.04.72-1.6,1.01-.11.06-.22.11-.34.17-.11.05-.52.2-.1.05-.2.07-.39.15-.59.22-.69.23-1.4.37-2.07.65-.32.13-.58.27-.76.58-.16.27-.23.67-.13.98.1.31.29.6.58.76.28.15.67.26.98.13.69-.29,1.42-.43,2.12-.67,1.15-.39,2.21-.97,3.18-1.68.27-.2.49-.42.58-.76.08-.3.05-.71-.13-.98-.34-.53-1.16-.87-1.73-.45Z"/><path class="cls-8" d="M64.09,47.15c-1.63,0-1.63,2.54,0,2.54s1.63-2.54,0-2.54Z"/><path class="cls-8" d="M56.86,57.42c-1.63,0-1.63,2.54,0,2.54s1.63-2.54,0-2.54Z"/><path class="cls-8" d="M49.41,47.15c-1.63,0-1.63,2.54,0,2.54s1.63-2.54,0-2.54Z"/><path class="cls-8" d="M88.06,94.2c-.58-.43-1.18-.84-1.78-1.24-1.5-11.66-6.45-22.71-7.29-34.46-.01-.15-.05-.28-.1-.4,0,0,0,0,0,0,1.51-1.49,2.13-3.81,2.27-5.86.14-1.94-.36-4.48-1.95-5.82.02-.05.04-.1.05-.15,1.15-5.23,1.01-11.2-.99-16.2-2.14-5.33-6.11-9.91-11.26-12.51-3.41-1.72-7.17-2.53-10.98-2.55-.89,0-1.29.74-1.21,1.42.49,0,.97.07,1.46.23-.49-.16-.97-.23-1.46-.23.06.58.46,1.11,1.21,1.12,5.86.04,11.4,2.22,15.46,6.49,3.97,4.18,5.88,9.6,5.9,15.33,0,2.06-.13,4.17-.57,6.19-.67,0-1.36.12-2.02.34-1.43-7.92-4.77-16.29-11.98-20.46-1.41-.82-2.69,1.37-1.28,2.19,3.96,2.29,6.59,6.02,8.34,10.21-3.96-.17-7.78-1.62-11.13-3.7-3.2-1.98-6.22-4.65-7.91-8.07-.72-1.46-2.91-.18-2.19,1.28.04.08.09.16.13.24.23-.26.46-.52.72-.78-.26.26-.5.52-.72.78,1.9,3.67,5.22,6.59,8.68,8.74,3.92,2.43,8.48,4.07,13.13,4.08.08,0,.15-.01.22-.02.83,2.53,1.39,5.14,1.78,7.64.14.89.95,1.08,1.6.79.16-.01.34-.06.51-.15.73-.38,2.03-.89,2.79-.36,1.23.86,1.26,3.11,1.08,4.41-.17,1.28-.6,2.8-1.58,3.7-.25.23-.54.42-.84.58-.82-.06-1.68.2-2.31.73-.51.17-.86.57-.9,1.18,0,.04,0,.08-.01.12-.12.31-.2.63-.23.99-.02.22,0,.45.03.68-.73,4.43-3.04,8.61-6.37,11.61-3.94,3.55-9.09,4.73-14.12,3.23-.08-.26-.15-.53-.22-.79-.62-2.53-.47-5.13-.99-7.67-.43-2.12-1.27-4.86-3.88-4.9-.24-1.55-.45-3.24-1.87-4.11-.96-.59-2.33-.79-3.32-.18-.65.39-1.05,1-1.28,1.68-.22-.04-.44-.04-.66-.02-.02-.32-.15-.64-.38-.86-.05-.09-.1-.18-.15-.26-.42-.59-.95-1-1.63-1.25-.72-.27-1.55-.22-2.27.07-.13-.1-.27-.18-.39-.29-.09-.08-.17-.16-.26-.25-.02-.02-.09-.1-.13-.15-.03-.05-.1-.15-.12-.18-.07-.11-.14-.23-.2-.35-.19-.38-.35-.84-.49-1.43-.29-1.18-.38-2.35-.29-3.63.04-.53.11-.97.28-1.56.04-.15.09-.29.15-.44,0-.02.01-.03.01-.04.02-.04.04-.08.06-.12.06-.11.11-.21.17-.32.04-.06.24-.34.1-.17.03-.04.08-.08.11-.13.01-.01.02-.03.03-.04,0,0,0-.01.01-.02,0,0,0,0,0,0,0,0,0,0,.01,0,0,0,0,0,0,0,0,0,0,0,0,0,.01,0,.01,0,.03,0,.35-.1.36-.09.75-.09.38,0,.58.04.96.14.25.07.5.2.63.32.86.8,2.03.09,2.17-.78,5.13-4.9,6.9-12.16,8.81-18.74.05-.17.06-.33.05-.48-.88,1.13-1.64,2.26-2.77,3.39,1.13-1.13,1.89-2.26,2.77-3.39-.11-1.21-2.09-1.59-2.49-.2-1.78,6.13-3.35,12.98-8.1,17.57-.65-.26-1.35-.39-2.05-.39-1.06-3.65-1.37-7.79-.08-11.39,1.76-4.88,4.99-9.44,9.01-12.71,2.21-1.8,4.79-3.15,7.61-3.63.61-.1.89-.52.91-.99-1.4.41-2.8,1.14-4.2,1.6,1.4-.47,2.8-1.19,4.2-1.6.04-.75-.6-1.63-1.59-1.46-5.65.96-10.29,5.05-13.65,9.47-3.47,4.56-6.02,9.94-5.61,15.78.13,1.9.43,3.85.97,5.69-.9.76-1.38,2.04-1.6,3.16-.33,1.66-.29,3.35,0,5.01.24,1.42.72,2.9,1.69,4,.04.04.08.07.12.11.08-.14.17-.29.26-.43-.1.14-.18.29-.26.43.2.21.41.41.63.59-.1.28-.18.58-.21.9-.06.62.12,1.3.44,1.83.19.31.44.6.73.84-.69.49-1.04,1.23-1.2,2.08.1-.8.2-1.6.28-2.41.1-.96-.75-1.35-1.5-1.16-.19,1.5-.1,3-.6,4.5.5-1.5.41-3,.6-4.5-.51.13-.97.51-1.04,1.16-1.11,10.52-3.28,21.11-7.1,30.99-.02.05-.02.09-.04.13-1.04.51-2.07,1.05-3.06,1.66-2.64,1.62-5.19,3.61-6.75,6.33-1.55,2.7-2.41,5.74-3.73,8.55h2.76c.99-2.34,1.79-4.78,3.01-7.01,1.51-2.75,4.14-4.64,6.81-6.18,2.78-1.6,5.77-2.79,8.73-4.01,1.27-.52,2.58-1.03,3.87-1.58,0,.04,0,.08.02.13,1.63,5.92,3.05,11.91,4.5,17.88.07.27.2.48.36.62-.02.05-.03.09-.05.14h2.66c.29-.94.57-1.88.83-2.82.89-3.27,1.78-6.86,1.25-10.26-.34-2.15-1.21-4.15-2.06-6.13-.84-1.94-1.49-3.93-2.28-5.89-.82-2.04-2.03-3.73-3.17-5.58-1.07-1.75-1.63-3.73-1.79-5.78-.13-1.78.09-3.55,0-5.33-.04-.79-.09-1.58-.04-2.37.02-.28.03-.56.12-.83.03-.09.06-.19.09-.28,0-.02,0-.03.01-.04.01,0,.03,0,.05-.02.17-.1.31-.21.4-.34-.03.63-.02,1.26-.03,1.85-.06,3.96.3,7.9.89,11.81.1.68.96,1.05,1.56.89.72-.2.99-.88.89-1.56-.45-3.01-.73-6.05-.79-9.1-.03-1.39-.01-2.78.07-4.16.03-.45.23-2.43,1.06-1.92-.09,2.28-.04,4.58,0,6.85.04,2.84.19,5.67.46,8.5.15,1.61,2.69,1.63,2.54,0-.41-4.27-.51-8.54-.46-12.83.01-1.07.02-2.14.05-3.21.01-.55-.03-1.8.86-1.31.81.44.89,2.12,1.01,3.21-.72,1.15-.73,2.91-.64,4.23.2,2.86.48,5.72.7,8.58.12,1.62,2.66,1.63,2.54,0-.19-2.5-.42-5-.62-7.51-.05-.62-.56-3.87.33-3.97.8-.09,1.08,1.47,1.2,1.95.25.98.44,1.97.5,2.98.15,2.5.41,4.96,1.19,7.35,1.78,5.51,5.55,10.51,6.19,16.36.39,3.61-.33,7.33-1.58,10.74-.16.22-.25.48-.27.74-.01.04-.03.07-.04.11-.07.19-.13.38-.19.57-.25.75-.5,1.49-.75,2.24-.25.76-.51,1.53-.76,2.29h2.67c.16-.47.32-.95.47-1.42.25-.75.5-1.5.75-2.25.46.14.92.26,1.42.25.76-.02,1.52-.17,2.26-.31,1.97-.38,3.91-.91,5.83-1.46,2.15-.61,4.29-1.27,6.43-1.96-.55,1.89-1.1,3.78-1.65,5.67-.14.49-.29.99-.43,1.48h2.64c1.57-5.39,3.14-10.77,4.72-16.16.25-.85.49-1.69.74-2.54,1.84.97,3.67,1.97,5.43,3.11,3.13,2.03,6.1,4.33,8.67,7.05,2.34,2.48,4.29,5.32,5.41,8.53h2.67c-1.98-6.62-7.15-11.79-12.6-15.8ZM34.65,48.1s0,0,0,0c0,0,0,0-.01,0,.02-.05.03-.06.02,0ZM42.14,104.83c-.04.17-.09.33-.13.5-.18-.74-.36-1.48-.54-2.21.29.08.58.16.87.23.04.01.09,0,.13,0-.1.49-.22.99-.33,1.48ZM41.87,93.78c.76,1.96,1.27,3.91,1.13,6.03-.02.35-.06.71-.11,1.06-.6-.16-1.19-.31-1.79-.48-.1-.03-.2-.04-.31-.04-.8-3.23-1.61-6.46-2.5-9.67-.05-.2-.14-.36-.25-.49.65-.33,1.28-.69,1.89-1.09.62,1.57,1.32,3.1,1.93,4.67ZM36.38,81.64c1.09,1.63,1.93,3.27,2.63,5.05-1.26.92-2.76,1.55-4.17,2.17-1.66.73-3.34,1.41-5.01,2.11-.81.33-1.62.67-2.43,1.02,3.07-8.5,4.96-17.45,6.08-26.41-.09,1.46.18,3.08.14,4.23-.06,2.05-.14,4,.25,6.03.41,2.13,1.31,4.01,2.51,5.8ZM37.5,60.21c-.02.08-.04.15-.06.23-.03.05-.06.11-.09.16-.03.03-.06.07-.1.1-.05.03-.1.06-.16.09-.06.02-.11.03-.17.05-.06,0-.13,0-.19,0-.06-.01-.12-.03-.17-.05-.05-.03-.11-.06-.16-.09-.03-.03-.07-.06-.1-.1-.03-.05-.06-.1-.09-.16-.02-.06-.03-.11-.05-.17,0-.06,0-.13,0-.19.01-.06.03-.12.05-.17.03-.05.06-.11.09-.16.03-.03.06-.07.1-.1.05-.03.1-.06.16-.09.06-.02.11-.03.17-.05.06,0,.13,0,.19,0,.06.01.12.03.17.05.05.03.11.06.16.09.03.03.07.06.1.1.03.05.06.1.09.16.02.08.05.15.06.23,0,.01,0,.02,0,.04,0,.01,0,.02,0,.04ZM75.25,60.08c.01-.06.03-.12.05-.17.03-.05.06-.11.09-.16.03-.03.06-.07.1-.1.05-.03.1-.06.16-.09.06-.02.11-.03.17-.05.06,0,.13,0,.19,0,.06.01.12.03.17.05.05.03.1.06.16.09.03.03.07.06.1.1.03.05.06.1.09.16.02.08.05.15.06.23,0,.01,0,.02,0,.04,0,.01,0,.02,0,.04-.02.08-.04.15-.06.23-.03.05-.06.11-.09.16-.03.03-.06.07-.1.1-.05.03-.1.06-.16.09-.06.02-.11.03-.17.05-.06,0-.13,0-.19,0-.06-.01-.12-.03-.17-.05-.05-.03-.11-.06-.16-.09-.03-.03-.07-.06-.1-.1-.03-.05-.06-.1-.09-.16-.02-.06-.03-.11-.05-.17,0-.06,0-.13,0-.19ZM76.06,90.56c-.91,3.12-1.82,6.24-2.73,9.36-2.5.82-5.02,1.6-7.56,2.33-1.9.55-3.82,1.08-5.76,1.48-.73.15-1.31.26-1.86.3-.39.03-.45.03-.69-.05-.03-.01-.06-.02-.09-.03,1.25-3.67,1.81-7.7,1.27-11.51-.72-5.05-3.52-9.39-5.4-14.06,4.9.96,9.83-.3,13.82-3.39.73,5.72,2.39,11.47,7.82,14.41.46.25.92.49,1.38.73-.09.12-.16.26-.21.42ZM78.94,88.61c-2.47-1.28-4.96-2.34-6.56-4.74-2.11-3.15-2.64-7.16-3-10.85,0-.04-.02-.07-.02-.11,2.58-2.72,4.45-6.12,5.42-9.75.59.21,1.18.27,1.82.15.13-.02.27-.07.4-.11,1.48,9.44,4.99,18.51,6.48,27.95-1.48-.9-3-1.75-4.54-2.55Z"/><path class="cls-5" d="M37.43,59.91c-.03-.05-.06-.1-.09-.16-.03-.03-.06-.07-.1-.1-.05-.03-.1-.06-.16-.09-.06-.02-.11-.03-.17-.05-.06,0-.13,0-.19,0-.06.01-.12.03-.17.05-.05.03-.11.06-.16.09-.03.03-.07.06-.1.1-.03.05-.06.1-.09.16-.02.06-.03.11-.05.17,0,.06,0,.13,0,.19.01.06.03.12.05.17.03.05.06.11.09.16.03.03.06.07.1.1.05.03.1.06.16.09.06.02.11.03.17.05.06,0,.13,0,.19,0,.06-.01.12-.03.17-.05.05-.03.11-.06.16-.09.03-.03.07-.06.1-.1.03-.05.06-.1.09-.16.02-.08.05-.15.06-.23,0-.01,0-.02,0-.04,0-.01,0-.02,0-.04-.02-.08-.04-.15-.06-.23Z"/><path class="cls-5" d="M76.53,59.91c-.03-.05-.06-.1-.09-.16-.03-.03-.06-.07-.1-.1-.05-.03-.1-.06-.16-.09-.06-.02-.11-.03-.17-.05-.06,0-.13,0-.19,0-.06.01-.12.03-.17.05-.05.03-.11.06-.16.09-.03.03-.07.06-.1.1-.03.05-.06.1-.09.16-.02.06-.03.11-.05.17,0,.06,0,.13,0,.19.01.06.03.12.05.17.03.05.06.11.09.16.03.03.06.07.1.1.05.03.1.06.16.09.06.02.11.03.17.05.06,0,.13,0,.19,0,.06-.01.12-.03.17-.05.05-.03.11-.06.16-.09.03-.03.07-.06.1-.1.03-.05.06-.1.09-.16.02-.08.05-.15.06-.23,0-.01,0-.02,0-.04,0-.01,0-.02,0-.04-.02-.08-.04-.15-.06-.23Z"/><path class="cls-8" d="M57.72,63.31c-1.07-.4-2.43-.04-3.16.84-.26.31-.42.58-.57.96-.11.27-.15.55-.18.84-.05.56.12,1.19.4,1.68.28.47.72.9,1.22,1.14.64.3,1.28.37,1.97.25.58-.1,1.18-.46,1.56-.91.42-.5.67-1.08.74-1.71.02-.09.03-.18.03-.27,0-.57-.16-1.17-.5-1.64-.4-.55-.89-.93-1.52-1.17ZM57.21,66.12c-.01.06-.03.11-.05.17-.02.03-.04.07-.06.1-.02.02-.04.04-.06.06-.03.02-.07.04-.1.06-.04.01-.07.02-.11.03-.04,0-.08,0-.12,0-.04,0-.07-.02-.11-.03-.03-.02-.07-.04-.1-.06-.02-.02-.04-.04-.06-.06-.02-.03-.04-.07-.06-.1-.01-.04-.02-.07-.03-.11,0-.04,0-.08,0-.12,0-.04.02-.07.03-.11.02-.03.04-.07.06-.1.02-.02.04-.04.06-.06.03-.02.07-.04.1-.06.04-.01.07-.02.11-.03.04,0,.08,0,.12,0,.04,0,.07.02.11.03.03.02.07.04.1.06.02.02.04.04.06.06.02.03.04.07.06.1.02.05.03.11.05.17,0,0,0,0,0,0s0,0,0,0Z"/></g></svg>