<?xml version="1.0" encoding="UTF-8"?><svg id="_デザインカンプ" xmlns="http://www.w3.org/2000/svg" viewBox="0 0 171 150"><defs><style>.cls-1{fill:#004f80;}.cls-2{fill:#fff;}.cls-3{fill:#e6d226;}.cls-4{fill:none;stroke:#004f80;stroke-linecap:round;stroke-linejoin:round;stroke-width:4px;}</style></defs><circle class="cls-3" cx="85.5" cy="75" r="75"/><polygon class="cls-1" points="131.96 14.57 168.65 56.18 150.27 72.4 147.08 68.78 115.85 33.36 113.58 30.78 131.96 14.57"/><path class="cls-2" d="M104.2,63.59l-11.94-1.19c-3.88-.38-7.77.58-11.01,2.73l-13.06,8.66c-1.17.78-2.52,1.13-3.83,1.08-1.74-.06-3.42-.81-4.65-2.19-2.3-2.6-2.18-6.54.29-8.98,3.11-3.06,7.5-7.18,11.87-10.67,3.48-2.77,7.14-4.64,10.6-5.97h.01c4.59-1.78,8.84-2.6,11.82-3.36,5.23-1.33,12.07-1.53,14.97-4.22l6.58-6.12,31.23,35.42c-5.56,8.5-12.03,15.12-19.04,20.59l-1.11.94-22.73-26.72Z"/><path class="cls-2" d="M128.98,92.69c.74,1.18,1.12,2.53,1.12,3.88,0,1.78-.66,3.57-1.99,4.98-2.28,2.42-5.8,2.78-8.65,1.28-.12-.06-.24-.13-.36-.2.07.11.13.23.2.35,1.2,2.25,2.23,6.47-.94,9.53-2.87,2.78-7.61,1.78-10.74-.41,1.4,2.42.97,6.86-1.84,9.15-3.14,2.56-7.21,1.68-9.86-.49,1.5,2.41,1.53,7.12-2.26,9.53-3.27,2.08-7.5,1.43-10.46-1.08.47-.85.72-1.79.76-2.74.06-1.57-.49-3.16-1.65-4.41-2.18-2.34-5.78-2.59-8.25-.64h-.02s1.27-1.2,1.27-1.2c1.43-1.33,2.18-3.11,2.25-4.91.06-1.82-.57-3.66-1.9-5.1-2.67-2.85-7.14-3.01-10-.34l2.01-1.89c1.43-1.32,2.18-3.11,2.24-4.91.07-1.81-.55-3.66-1.89-5.09-2.67-2.86-7.15-3.01-10-.34l-2.02,1.87c1.43-1.32,2.18-3.1,2.25-4.91.06-1.81-.57-3.65-1.91-5.08-2.66-2.87-7.13-3.02-10-.35l-3.36,3.13c-.48-.7-.91-1.44-1.31-2.19l-3.51-6.67c-1.25-2.36-2.85-4.5-4.76-6.37l-9.64-9.34,32.12-33.76,4.46,4.34c2.84,2.75,6.35,4.71,10.18,5.68l9.94,2.5c.68.17,1.35.36,2.01.57-3.46,1.33-7.12,3.2-10.6,5.97-4.37,3.49-8.76,7.61-11.87,10.67-2.47,2.44-2.59,6.38-.29,8.98,1.23,1.38,2.91,2.13,4.65,2.19,1.31.05,2.66-.3,3.83-1.08l13.06-8.66c3.24-2.15,7.13-3.11,11.01-2.73l11.94,1.19,22.73,26.72.64.75c.33.29.63.6.9.92.19.23.35.46.51.71Z"/><path class="cls-2" d="M82.31,122.06c1.16,1.25,1.71,2.84,1.65,4.41-.04.95-.29,1.89-.76,2.74-.31.55-.7,1.06-1.18,1.51l-3.35,3.13c-2.48,2.31-6.35,2.17-8.66-.3-2.31-2.48-2.18-6.35.3-8.66l.69-.65,2.66-2.47c.06-.06.12-.12.19-.18s.14-.11.21-.17c2.47-1.95,6.07-1.7,8.25.64Z"/><path class="cls-2" d="M75.66,110.21c1.33,1.44,1.96,3.28,1.9,5.1-.07,1.8-.82,3.58-2.25,4.91l-1.27,1.19-.19.18c-.07.06-.13.12-.19.18l-2.66,2.47c-2.86,2.67-7.33,2.51-10-.34-2.67-2.87-2.51-7.34.35-10.01l2.15-2,2.16-2.02c2.86-2.67,7.33-2.51,10,.34Z"/><path class="cls-2" d="M68.02,97.98c1.34,1.43,1.96,3.28,1.89,5.09-.06,1.8-.81,3.59-2.24,4.91l-2.01,1.89-2.16,2.02-2.15,2c-2.86,2.67-7.34,2.51-10-.34-2.67-2.86-2.52-7.34.34-10.01l1.25-1.18h.01l3.05-2.85,2.02-1.87c2.85-2.67,7.33-2.52,10,.34Z"/><polygon class="cls-1" points="58.33 31.4 55.88 33.97 23.76 67.73 20.09 71.59 2.34 54.69 40.58 14.5 58.33 31.4"/><path class="cls-2" d="M56.34,89.52c1.34,1.43,1.97,3.27,1.91,5.08-.07,1.81-.82,3.59-2.25,4.91l-3.05,2.85h-.01l-1.25,1.18c-2.86,2.67-7.33,2.51-10-.35-2.67-2.85-2.51-7.33.34-10l.95-.89,3.36-3.13c2.87-2.67,7.34-2.52,10,.35Z"/><path class="cls-4" d="M42.98,92.3c-.48-.7-.91-1.44-1.31-2.19l-3.51-6.67c-1.25-2.36-2.85-4.5-4.76-6.37l-9.64-9.34"/><line class="cls-4" x1="74.06" y1="121.42" x2="74.04" y2="121.41"/><path class="cls-4" d="M104.2,63.59l22.73,26.72.64.75c.33.29.63.6.9.92.19.23.35.46.51.71.74,1.18,1.12,2.53,1.12,3.88,0,1.78-.66,3.57-1.99,4.98-2.28,2.42-5.8,2.78-8.65,1.28-.12-.06-.24-.13-.36-.2.07.11.13.23.2.35,1.2,2.25,2.23,6.47-.94,9.53-2.87,2.78-7.61,1.78-10.74-.41,1.4,2.42.97,6.86-1.84,9.15-3.14,2.56-7.21,1.68-9.86-.49,1.5,2.41,1.53,7.12-2.26,9.53-3.27,2.08-7.5,1.43-10.46-1.08"/><path class="cls-4" d="M55.88,33.97l4.46,4.34c2.84,2.75,6.35,4.71,10.18,5.68l9.94,2.5c.68.17,1.35.36,2.01.57"/><path class="cls-4" d="M106.7,63.84l-2.5-.25-11.94-1.19c-3.88-.38-7.77.58-11.01,2.73l-13.06,8.66c-1.17.78-2.52,1.13-3.83,1.08-1.74-.06-3.42-.81-4.65-2.19-2.3-2.6-2.18-6.54.29-8.98,3.11-3.06,7.5-7.18,11.87-10.67,3.48-2.77,7.14-4.64,10.6-5.97h.01c4.59-1.78,8.84-2.6,11.82-3.36,5.23-1.33,12.07-1.53,14.97-4.22l6.58-6.12"/><path class="cls-4" d="M51.69,103.54c-2.86,2.67-7.33,2.51-10-.35-2.67-2.85-2.51-7.33.34-10l.95-.89,3.36-3.13c2.87-2.67,7.34-2.52,10,.35,1.34,1.43,1.97,3.27,1.91,5.08-.07,1.81-.82,3.59-2.25,4.91"/><path class="cls-4" d="M61.35,113.89c-2.86,2.67-7.34,2.51-10-.34-2.67-2.86-2.52-7.34.34-10.01l1.25-1.18h.01l3.05-2.85,2.02-1.87c2.85-2.67,7.33-2.52,10,.34,1.34,1.43,1.96,3.28,1.89,5.09-.06,1.8-.81,3.59-2.24,4.91l-2.01,1.89"/><path class="cls-4" d="M71,124.24c-2.86,2.67-7.33,2.51-10-.34-2.67-2.87-2.51-7.34.35-10.01l2.15-2,2.16-2.02c2.86-2.67,7.33-2.51,10,.34,1.33,1.44,1.96,3.28,1.9,5.1-.07,1.8-.82,3.58-2.25,4.91l-1.27,1.19-.19.18"/><path class="cls-4" d="M74.06,121.42c2.47-1.95,6.07-1.7,8.25.64,1.16,1.25,1.71,2.84,1.65,4.41-.04.95-.29,1.89-.76,2.74-.31.55-.7,1.06-1.18,1.51l-3.35,3.13c-2.48,2.31-6.35,2.17-8.66-.3-2.31-2.48-2.18-6.35.3-8.66l.69-.65,2.66-2.47c.06-.06.12-.12.19-.18s.14-.11.21-.17Z"/><path class="cls-4" d="M128.04,89.37c7.01-5.47,13.48-12.09,19.04-20.59"/><polygon class="cls-4" points="147.08 68.78 150.27 72.4 168.65 56.18 131.96 14.57 113.58 30.78 115.85 33.36 147.08 68.78"/><polygon class="cls-4" points="23.76 67.73 20.09 71.59 2.34 54.69 40.58 14.5 58.33 31.4 55.88 33.97 23.76 67.73"/></svg>