<?xml version="1.0" encoding="UTF-8"?><svg id="_デザインカンプ" xmlns="http://www.w3.org/2000/svg" xmlns:xlink="http://www.w3.org/1999/xlink" viewBox="0 0 150 150"><defs><style>.cls-1,.cls-2,.cls-3,.cls-4{fill:none;}.cls-5{fill:#004f80;}.cls-6{fill:url(#_名称未設定グラデーション_2);}.cls-7{fill:#fff;}.cls-8{fill:#2cb9e7;}.cls-9{fill:#e6d226;}.cls-2{stroke-width:.89px;}.cls-2,.cls-3,.cls-4{stroke:#054c8f;stroke-miterlimit:10;}.cls-3{stroke-width:.64px;}.cls-4{stroke-width:.36px;}.cls-10{clip-path:url(#clippath);}</style><clipPath id="clippath"><rect class="cls-1" x="14.38" y="14.38" width="121.25" height="121.25"/></clipPath><linearGradient id="_名称未設定グラデーション_2" x1="-339.01" y1="38.63" x2="-300.95" y2="55.11" gradientTransform="translate(400.88) skewX(-10)" gradientUnits="userSpaceOnUse"><stop offset="0" stop-color="#4098d4"/><stop offset=".32" stop-color="#2887c8"/><stop offset=".75" stop-color="#0d74bb"/><stop offset="1" stop-color="#036eb7"/></linearGradient></defs><circle class="cls-9" cx="75" cy="75" r="75"/><g class="cls-10"><path class="cls-7" d="M123.1,81.14H26.9c-1.49,0-2.7-1.22-2.7-2.72V18.71c0-1.5,1.22-2.72,2.7-2.72h96.2c1.49,0,2.7,1.22,2.7,2.72v59.71c0,1.5-1.21,2.72-2.7,2.72"/><path class="cls-7" d="M123.1,15.99c1.49,0,2.7,1.22,2.7,2.72v59.71c0,1.5-1.21,2.72-2.7,2.72H26.9c-1.49,0-2.7-1.22-2.7-2.72V18.71c0-1.5,1.22-2.72,2.7-2.72h96.2M123.1,15.4H26.9c-1.82,0-3.29,1.49-3.29,3.31v59.71c0,1.83,1.48,3.31,3.29,3.31h96.2c1.81,0,3.29-1.49,3.29-3.31V18.71c0-1.83-1.48-3.31-3.29-3.31h0Z"/><path class="cls-2" d="M123.1,81.14H26.9c-1.49,0-2.7-1.22-2.7-2.72V18.71c0-1.5,1.22-2.72,2.7-2.72h96.2c1.49,0,2.7,1.22,2.7,2.72v59.71c0,1.5-1.21,2.72-2.7,2.72Z"/><path class="cls-5" d="M134.41,130.86l-8.13-41.42c-.28-1.41-1.51-2.43-2.93-2.43H26.66c-1.43,0-2.66,1.02-2.93,2.43l-8.13,41.42c-.37,1.86,1.05,3.6,2.93,3.6h112.96c1.88,0,3.3-1.74,2.93-3.6"/><path class="cls-7" d="M123.34,87.01c1.43,0,2.66,1.02,2.93,2.43l8.13,41.42c.37,1.86-1.05,3.6-2.93,3.6H18.52c-1.88,0-3.3-1.74-2.93-3.6l8.13-41.42c.28-1.41,1.51-2.43,2.93-2.43h96.69M123.34,86.86H26.66c-1.49,0-2.79,1.07-3.08,2.55l-8.13,41.42c-.18.94.06,1.9.66,2.63.6.73,1.48,1.14,2.41,1.14h112.96c.94,0,1.82-.42,2.41-1.14.6-.74.85-1.69.66-2.63l-8.13-41.42c-.29-1.48-1.58-2.55-3.08-2.55h0Z"/><path class="cls-7" d="M122.12,93.2c-.25-1.28-1.37-2.21-2.67-2.21H30.57c-1.31,0-2.44.93-2.7,2.23l-2.78,13.99c-.26,1.31.74,2.54,2.07,2.54h95.68c1.33,0,2.33-1.23,2.07-2.54l-2.78-14.02Z"/><path class="cls-3" d="M122.12,93.66c-.25-1.28-1.37-2.21-2.67-2.21H30.57c-1.31,0-2.44.93-2.7,2.23l-2.78,13.99c-.26,1.31.74,2.54,2.07,2.54h95.68c1.33,0,2.33-1.23,2.07-2.54l-2.78-14.02Z"/><path class="cls-7" d="M89.94,119.26c-.08-1.28.15-2.06-.85-2.21h-28.17c-.85.15-.77.93-.86,2.23l-.51,8.08c-.05.8.58,1.47,1.37,1.47h28.15c.79,0,1.42-.67,1.37-1.47l-.51-8.11Z"/><path class="cls-4" d="M89.94,119.26c-.08-1.28.15-2.06-.85-2.21h-28.17c-.85.15-.77.93-.86,2.23l-.51,8.08c-.05.8.58,1.47,1.37,1.47h28.15c.79,0,1.42-.67,1.37-1.47l-.51-8.11Z"/></g><path class="cls-8" d="M91.91,66.91h-17.08c-.18,0-.29-.14-.26-.31l2.8-15.86c.03-.17.2-.31.37-.31h17.08c.18,0,.29.14.26.31l-2.8,15.86c-.03.17-.2.31-.37.31Z"/><path class="cls-6" d="M98.52,29.41h-10.93l-7.11,3.66-.31,1.75h-4.83l.9-5.09c.03-.17-.09-.31-.26-.31h-8.8l-9.46,4.87-1.99,11.31c-.03.17.09.31.26.31h5.55l-1.18,6.71-6.45,3.32-1.88,10.67c-.03.17.09.31.26.31h17.08c.18,0,.34-.14.37-.31l2.8-15.86c.03-.17-.09-.31-.26-.31h-5.14l.8-4.52h5.14c.18,0,.34-.14.37-.31l.71-4.03h4.83s-.71,4.03-.71,4.03c-.03.17.09.31.26.31h17.08c.18,0,.34-.14.37-.31l2.8-15.86c.03-.17-.09-.31-.26-.31Z"/></svg>